<?xml version="1.0" standalone="no"?>
<!DOCTYPE svg PUBLIC "-//W3C//DTD SVG 1.1//EN" "http://www.w3.org/Graphics/SVG/1.1/DTD/svg11.dtd" >
<svg>
<metadata>
Created by FontForge 20110222 at Fri Dec 19 05:41:55 2014
 By deploy user
(c) 2008 Microsoft Corporation. All rights reserved.
</metadata>
<defs>
<font id="Gautami-Bold" horiz-adv-x="0" >
  <font-face 
    font-family="Gautami"
    font-weight="700"
    font-stretch="normal"
    units-per-em="2048"
    panose-1="2 11 8 2 4 2 4 2 2 3"
    ascent="1638"
    descent="-410"
    x-height="979"
    cap-height="1353"
    bbox="-2900 -1706 3487 2344"
    underline-thickness="96"
    underline-position="-552"
    unicode-range="U+0020-25CC"
  />
    <missing-glyph />
    <glyph glyph-name="glyph0" horiz-adv-x="554" 
d="M45 0v1417h463v-1417h-463zM146 101h262v1216h-262v-1216z" />
    <glyph glyph-name="glyph1" unicode="&#x200b;" 
 />
    <glyph glyph-name="glyph2" 
 />
    <glyph glyph-name="space" unicode=" " horiz-adv-x="544" 
 />
    <glyph glyph-name="space" unicode="&#xa0;" horiz-adv-x="544" 
 />
    <glyph glyph-name="exclam" horiz-adv-x="561" 
d="M412 0h-263v240h263v-240zM412 1079l-35 -691h-192l-36 691v274h263v-274z" />
    <glyph glyph-name="quotedbl" horiz-adv-x="781" 
d="M707 1313l-47 -478h-161l-48 478v40h256v-40zM329 1313l-48 -478h-158l-49 478v40h255v-40z" />
    <glyph glyph-name="numbersign" horiz-adv-x="1117" 
d="M1081 831h-201l-61 -311h187v-157h-220l-75 -363h-159l74 363h-261l-76 -363h-159l74 363h-168v157h200l63 311h-187v155h218l76 367h159l-74 -367h261l76 367h158l-73 -367h168v-155zM720 831h-260l-63 -311h261z" />
    <glyph glyph-name="percent" horiz-adv-x="1695" 
d="M424 1376q77 0 138 -25t104 -71t65.5 -113t22.5 -150q0 -84 -22.5 -150.5t-65.5 -113t-104 -71t-138 -24.5q-78 0 -139 24.5t-103.5 71t-65 113t-22.5 150.5q0 83 22.5 150t65 113t103.5 71t139 25zM424 799q71 0 104 55.5t33 162.5q0 106 -33 161.5t-104 55.5
t-104 -55.5t-33 -161.5q0 -107 33 -162.5t104 -55.5zM1334 1353l-816 -1353h-159l817 1353h158zM1270 696q76 0 137.5 -25t104.5 -71t66 -113t23 -150q0 -84 -23 -150.5t-66 -113t-104.5 -71.5t-137.5 -25q-78 0 -139 24.5t-103.5 71t-65.5 113t-23 151.5q0 84 23 150.5
t65.5 113t103.5 71t139 24.5zM1270 119q70 0 103 55.5t33 162.5q0 106 -33 161.5t-103 55.5q-69 0 -102.5 -55.5t-33.5 -161.5q0 -107 33.5 -162.5t102.5 -55.5z" />
    <glyph glyph-name="ampersand" horiz-adv-x="1311" 
d="M1225 128l-172 -157l-115 133q-82 -64 -177.5 -95.5t-216.5 -31.5q-100 0 -186 26.5t-148.5 77.5t-98 126.5t-35.5 174.5q0 65 19 119.5t56.5 101t93 88t127.5 80.5q-61 81 -92 148t-31 136q0 81 30.5 141.5t81.5 100t117.5 59.5t139.5 20q79 0 143.5 -21.5t111 -61.5
t72 -96t25.5 -126q0 -53 -15.5 -99t-47.5 -87.5t-82.5 -81t-121.5 -78.5l231 -274q14 44 22 92.5t12 100.5h228q-5 -105 -29.5 -195.5t-72.5 -170.5zM552 905q11 -7 22 -13t21 -13q39 22 65.5 43.5t44 44t25 48.5t7.5 56t-9.5 54.5t-26.5 42t-39.5 27t-48.5 9.5
q-56 0 -92.5 -35t-36.5 -96q0 -42 15.5 -80t52.5 -88zM496 615q-44 -27 -75 -53t-50.5 -52.5t-29 -56t-9.5 -64.5q0 -43 15 -81.5t41.5 -67.5t64.5 -46.5t84 -20.5q19 -1 40 -0.5t41 2.5q55 8 98.5 28.5t82.5 55.5z" />
    <glyph glyph-name="quotesingle" horiz-adv-x="414" 
d="M332 1313l-45 -478h-161l-48 478v40h254v-40z" />
    <glyph glyph-name="parenleft" horiz-adv-x="701" 
d="M433 -397q-165 214 -242 435.5t-77 450.5q0 230 77.5 451.5t243.5 435.5h207q-137 -224 -206.5 -443t-69.5 -444t69.5 -443.5t206.5 -442.5h-209z" />
    <glyph glyph-name="parenright" horiz-adv-x="701" 
d="M269 1376q164 -214 241.5 -435.5t77.5 -451.5q0 -231 -79 -451t-244 -435h-209q138 224 207 442.5t69 443.5t-69 444t-207 443h213z" />
    <glyph glyph-name="asterisk" horiz-adv-x="773" 
d="M712 1077l-228 -51l158 -182l-134 -96l-122 208l-121 -208l-135 96l159 182l-231 51l52 155l215 -94l-20 238h162l-21 -238l216 94z" />
    <glyph glyph-name="plus" horiz-adv-x="1104" 
d="M1006 567h-354v-356h-201v356h-355v200h355v353h201v-353h354v-200z" />
    <glyph glyph-name="comma" horiz-adv-x="561" 
d="M412 2q0 -79 -18.5 -136.5t-52.5 -95t-81.5 -55.5t-104.5 -18v125q64 0 91.5 43.5t27.5 134.5h-126v255h264v-253z" />
    <glyph glyph-name="hyphen" horiz-adv-x="665" 
d="M599 404h-533v193h533v-193z" />
    <glyph glyph-name="period" horiz-adv-x="561" 
d="M412 0h-264v255h264v-255z" />
    <glyph glyph-name="slash" horiz-adv-x="595" 
d="M595 1353l-391 -1353h-204l391 1353h204z" />
    <glyph glyph-name="glyph120" horiz-adv-x="1117" 
d="M557 1376q245 0 362.5 -177.5t117.5 -523.5t-117.5 -522t-362.5 -176q-243 0 -361 174.5t-118 523.5q0 346 118 523.5t361 177.5zM557 173q60 0 102.5 29.5t69 90t38.5 155.5t12 227q0 133 -12.5 228.5t-39.5 157t-69 90t-101 28.5q-58 0 -99.5 -28.5t-68.5 -90
t-39.5 -157t-12.5 -228.5q0 -132 12 -227t38.5 -155.5t68 -90t101.5 -29.5z" />
    <glyph glyph-name="glyph121" horiz-adv-x="1117" 
d="M788 0h-253v1011q-58 -38 -134.5 -57.5t-187.5 -19.5v196q170 0 262.5 61t117.5 185h195v-1376z" />
    <glyph glyph-name="glyph122" horiz-adv-x="1117" 
d="M1028 0h-974q0 76 22 141.5t65.5 127.5t109.5 125.5t157 134.5q86 69 148 122t104 100.5t64.5 94t29.5 101.5q8 49 -4 92q-15 69 -66 104.5t-132 35.5q-44 0 -82.5 -14.5t-67 -43t-46.5 -70.5t-24 -97h-243q8 97 44.5 175t98 133t145 84.5t188.5 29.5q106 0 190 -28.5
t142 -80t89 -124t31 -158.5q0 -85 -27.5 -154.5t-80.5 -135.5t-131 -134.5t-179 -152.5q-86 -71 -130 -117t-49 -70h608v-221z" />
    <glyph glyph-name="glyph123" horiz-adv-x="1117" 
d="M792 735q62 -16 109.5 -46.5t79.5 -73.5t49 -96t17 -115q0 -95 -33.5 -173.5t-96.5 -134.5t-153.5 -87.5t-204.5 -31.5q-105 0 -188.5 23.5t-147.5 73.5q-74 55 -110.5 132.5t-42.5 175.5h249q1 -43 16.5 -81t44.5 -66.5t72.5 -45t101.5 -16.5q54 0 98.5 17.5t75.5 48
t47.5 73.5t16.5 96q0 106 -65.5 160t-189.5 54h-77v187h50q106 0 160.5 45.5t54.5 144.5q0 89 -47.5 134.5t-136.5 45.5q-182 0 -204 -194h-243q10 95 47 168t96 122.5t137 75t170 25.5q204 0 320 -99q60 -50 90.5 -116.5t30.5 -149.5q0 -43 -12 -84t-36 -77t-60 -65.5
t-85 -49.5z" />
    <glyph glyph-name="glyph124" horiz-adv-x="1117" 
d="M1041 310h-175v-310h-246v310h-588v189l596 871h238v-863h175v-197zM620 507v133q0 102 1 204.5t3 208.5l-367 -546h363z" />
    <glyph glyph-name="glyph125" horiz-adv-x="1117" 
d="M368 830q102 72 248 72q93 0 171.5 -30.5t135.5 -88t90 -139.5t33 -184q0 -107 -32.5 -196t-95.5 -152.5t-156.5 -99t-215.5 -35.5q-99 0 -183 25.5t-147 75.5t-101.5 126t-48.5 176h248q6 -53 26.5 -92t51 -64.5t69.5 -38t83 -12.5q60 0 106.5 21t77.5 58t46.5 86.5
t15.5 107.5q0 59 -18 105.5t-50.5 79t-78 50t-100.5 17.5q-71 0 -124 -22.5t-102 -64.5h-189l59 742h783v-211h-577z" />
    <glyph glyph-name="glyph126" horiz-adv-x="1117" 
d="M337 763q126 126 298 126q97 0 173.5 -33.5t129 -92.5t80.5 -140t28 -177t-30 -181.5t-89 -149t-147 -101t-205 -37.5q-124 0 -217 44.5t-155.5 129t-93.5 208t-31 281.5q0 365 125.5 550.5t384.5 185.5q87 0 159 -22.5t125.5 -66.5t88 -109t47.5 -150h-252
q-11 75 -54 113t-122 38q-109 0 -170 -102.5t-73 -313.5zM330 582q5 -203 67.5 -306t177.5 -103q54 0 94.5 22.5t67 59.5t40 85t13.5 98q0 60 -16 107t-45.5 80t-70 50t-88.5 17q-65 0 -122.5 -27.5t-117.5 -82.5z" />
    <glyph glyph-name="glyph127" horiz-adv-x="1117" 
d="M1032 1179l-491 -1179h-265l505 1142h-691v211h942v-174z" />
    <glyph glyph-name="glyph128" horiz-adv-x="1117" 
d="M759 711q142 -60 212 -146t70 -204q0 -91 -33.5 -162t-96.5 -120t-152.5 -75.5t-201.5 -26.5q-108 0 -196.5 25.5t-151.5 74t-98 120t-35 164.5q0 118 70.5 203.5t210.5 146.5q-121 63 -175 143t-54 180q0 83 34.5 146.5t93.5 107.5t136.5 66t164.5 22q91 0 170 -22.5
t137 -66t91 -107.5t33 -148q0 -103 -56.5 -182t-172.5 -139zM557 805q92 40 141.5 93.5t49.5 122.5q0 80 -49.5 124t-141.5 44q-89 0 -139 -44t-50 -124q0 -69 50 -122.5t139 -93.5zM783 368q0 40 -13 72.5t-41 62t-70.5 55.5t-101.5 53q-57 -27 -99 -53t-69.5 -55.5
t-41 -62t-13.5 -72.5q0 -47 15.5 -85t45 -64t71 -40.5t91.5 -14.5q51 0 93 14.5t71 40.5t45.5 64t16.5 85z" />
    <glyph glyph-name="glyph129" horiz-adv-x="1117" 
d="M784 590q-130 -125 -293 -125q-96 0 -173 32t-132 89t-84.5 138t-29.5 178q0 96 30 182.5t89.5 151t147.5 102.5t204 38q122 0 215 -44.5t155 -129t93 -208t31 -282.5q0 -364 -126.5 -549.5t-385.5 -185.5q-93 0 -169 22t-132.5 66t-91.5 109t-45 151h247
q29 -152 189 -152q57 0 104 27.5t80.5 80.5t53 130.5t23.5 178.5zM784 771q-1 200 -64 304t-177 104q-54 0 -94 -21t-67.5 -57.5t-41 -84.5t-13.5 -102q0 -58 16 -104.5t45 -79.5t69 -50.5t87 -17.5q67 0 124.5 27t115.5 82z" />
    <glyph glyph-name="colon" horiz-adv-x="561" 
d="M412 0h-264v255h264v-255zM412 723h-264v256h264v-256z" />
    <glyph glyph-name="semicolon" horiz-adv-x="561" 
d="M412 2q0 -79 -18.5 -136.5t-52.5 -95t-81.5 -55.5t-104.5 -18v125q64 0 91.5 43.5t27.5 134.5h-126v255h264v-253zM412 723h-264v256h264v-256z" />
    <glyph glyph-name="less" horiz-adv-x="1104" 
d="M1006 200l-910 377v181l910 376v-202l-654 -263l654 -265v-204z" />
    <glyph glyph-name="equal" horiz-adv-x="1104" 
d="M1006 788h-910v200h910v-200zM1006 346h-910v198h910v-198z" />
    <glyph glyph-name="greater" horiz-adv-x="1104" 
d="M1006 577l-910 -377v202l656 263l-656 265v204l910 -376v-181z" />
    <glyph glyph-name="question" horiz-adv-x="1093" 
d="M78 958q7 95 44 172t98 132t143 84.5t180 29.5q96 0 179 -24t145 -70t102.5 -121t40.5 -169q0 -102 -44.5 -173.5t-109.5 -126.5q-50 -46 -86 -78t-59.5 -63.5t-35 -69.5t-12.5 -95h-234q0 81 13 136.5t38 98t62.5 79t86.5 81.5q42 34 66.5 60t37.5 48.5t17 43.5t4 48
q0 44 -15 80.5t-42.5 63t-66.5 40.5t-87 14q-99 0 -153.5 -54.5t-70.5 -166.5h-241zM682 0h-262v240h262v-240z" />
    <glyph glyph-name="at" horiz-adv-x="1763" 
d="M1365 -206q-94 -41 -192.5 -59t-214.5 -18q-207 0 -370.5 53.5t-277 154.5t-173 246.5t-59.5 329.5q0 127 29.5 241.5t83.5 213t131.5 178.5t173.5 136.5t207.5 87.5t234.5 31q169 0 307 -52t235.5 -143t150.5 -215t53 -267q0 -145 -37.5 -260t-104 -194.5t-158 -121.5
t-199.5 -42q-36 0 -67 10.5t-54.5 29.5t-38 45t-17.5 57q-58 -68 -128.5 -105t-149.5 -37q-69 0 -127 23.5t-99.5 69t-64.5 111.5t-23 150q0 124 36.5 230.5t99 184t145.5 121.5t176 44q83 0 140.5 -28t104.5 -78l20 81h168l-130 -572q-9 -42 -14.5 -72t-5.5 -53
q0 -29 13 -45.5t44 -16.5q65 0 123.5 32t102.5 92t70 147t26 196q0 115 -45 213t-124.5 169.5t-188.5 112t-239 40.5q-104 0 -196 -26.5t-171 -75t-142.5 -116t-107.5 -150.5t-68 -178.5t-24 -198.5q0 -152 50 -271t143.5 -201.5t228 -125.5t305.5 -43q104 0 192.5 17
t162.5 49zM1083 790q-35 37 -86 62t-124 25q-54 0 -103.5 -34t-88 -91t-61.5 -134t-23 -164q0 -104 41 -157t123 -53q45 0 85 18t73.5 51.5t58.5 81t39 106.5z" />
    <glyph glyph-name="bracketleft" horiz-adv-x="606" 
d="M577 -377h-454v1730h454v-187h-200v-1355h200v-188z" />
    <glyph glyph-name="backslash" horiz-adv-x="595" 
d="M595 0h-204l-391 1353h202z" />
    <glyph glyph-name="bracketright" horiz-adv-x="606" 
d="M482 -377h-452v188h199v1355h-199v187h452v-1730z" />
    <glyph glyph-name="asciicircum" horiz-adv-x="956" 
d="M892 747h-216l-198 395l-200 -395h-213l328 606h170z" />
    <glyph glyph-name="underscore" horiz-adv-x="1043" 
d="M1055 -297h-1066v129h1066v-129z" />
    <glyph glyph-name="braceleft" horiz-adv-x="699" 
d="M660 -397h-59q-40 0 -75.5 2t-67.5 9t-59.5 20t-52.5 36q-27 22 -47.5 48.5t-35 63t-22.5 87.5t-10 122q-1 52 -1.5 102t-5 94t-15 81t-31 64t-53.5 42.5t-82 16.5v197q68 0 105 26t55.5 70t22.5 102t4 122t1 129.5t13 125.5q16 68 50 110t80.5 64.5t104 30.5t122.5 8h59
v-191h-25q-50 0 -80.5 -7t-46.5 -34.5t-21 -83.5t-5 -153q0 -100 -12.5 -170.5t-38 -119.5t-65.5 -79.5t-96 -48.5q55 -17 94 -47t65 -76.5t38.5 -112t14.5 -155.5q2 -104 5 -164t17.5 -91t44.5 -40t86 -9h25v-191z" />
    <glyph glyph-name="bar" horiz-adv-x="520" 
d="M365 -397h-210v1758h210v-1758z" />
    <glyph glyph-name="braceright" horiz-adv-x="699" 
d="M40 1376h58q42 0 80.5 -2.5t72 -10t63.5 -22t56 -37.5q29 -26 47.5 -55.5t30.5 -70.5t17.5 -98t5.5 -137q0 -82 2 -147t19 -110.5t55 -71t109 -26.5v-197q-72 -1 -110 -26.5t-55 -72.5t-18.5 -112.5t-1.5 -145.5q0 -142 -24 -227t-71 -130t-117 -59.5t-161 -14.5h-58v191
h25q47 0 75.5 6.5t44.5 28.5t22 64t8 114q0 115 9.5 196.5t34 138.5t66 92t104.5 55q-55 18 -94.5 48t-65 76t-38 111.5t-13.5 155.5q-3 102 -6 162t-17.5 91.5t-44.5 41.5t-85 10h-25v191z" />
    <glyph glyph-name="asciitilde" horiz-adv-x="1104" 
d="M1024 618q-99 -108 -254 -108q-50 0 -110.5 15.5t-132.5 47.5q-69 31 -117.5 46.5t-90.5 15.5q-60 0 -118.5 -30t-119.5 -93v206q100 108 256 108q52 0 109 -15.5t129 -47.5q71 -31 121.5 -46.5t89.5 -15.5q60 0 119 29.5t119 93.5v-206z" />
    <glyph glyph-name="ellipsis" horiz-adv-x="1684" 
d="M412 0h-264v255h264v-255zM973 0h-264v255h264v-255zM1535 0h-264v255h264v-255z" />
    <glyph glyph-name="endash" horiz-adv-x="1024" 
d="M958 404h-892v193h892v-193z" />
    <glyph glyph-name="emdash" horiz-adv-x="1486" 
d="M1486 404h-1486v193h1486v-193z" />
    <glyph glyph-name="divide" horiz-adv-x="1104" 
d="M665 882h-227v222h227v-222zM1006 567h-910v200h910v-200zM665 231h-227v220h227v-220z" />
    <glyph glyph-name="minus" horiz-adv-x="1104" 
d="M1006 567h-910v200h910v-200z" />
    <glyph glyph-name="multiply" horiz-adv-x="1104" 
d="M975 384l-142 -140l-281 283l-283 -283l-141 140l284 283l-284 282l141 142l283 -284l281 284l142 -142l-283 -282z" />
    <glyph glyph-name="candrabindu" unicode="&#xc01;" horiz-adv-x="558" 
d="M502 -19q-110 0 -196.5 35t-146.5 96t-91.5 143.5t-31.5 177.5q0 89 32.5 168t93.5 138t147 93t193 34v-215q-62 0 -108.5 -17.5t-78.5 -47t-48 -69t-16 -84.5q0 -43 15.5 -79.5t46.5 -63.5t78.5 -42t110.5 -15v-252zM0 1000z" />
    <glyph glyph-name="anuswar" unicode="&#xc02;" horiz-adv-x="986" 
d="M910 433q0 -96 -33 -178.5t-90.5 -143t-137 -95.5t-172.5 -35q-94 0 -173.5 35t-137 95.5t-90 143t-32.5 178.5q0 89 33.5 168t92 138t137.5 93t170 34q90 0 168.5 -34t137.5 -93t93 -137.5t34 -168.5zM695 433q0 45 -17.5 84.5t-47.5 69.5t-69.5 47t-83.5 17
q-45 0 -85 -17.5t-69.5 -47.5t-47 -69.5t-17.5 -83.5q0 -43 16.5 -79.5t46 -63.5t69.5 -42t87 -15q45 0 84.5 14.5t69.5 41t47 63t17 81.5zM0 1000z" />
    <glyph glyph-name="visarga" unicode="&#xc03;" horiz-adv-x="424" 
d="M402 156q0 -39 -15 -74t-41 -61.5t-61 -42t-74 -15.5t-74 15.5t-61.5 42t-42 61.5t-15.5 74t15.5 74t42 61t61.5 41.5t74 15.5t74 -15.5t61 -41.5t41 -61t15 -74zM276 158q0 24 -19 44.5t-46 20.5q-28 0 -47.5 -20.5t-19.5 -44.5q0 -27 19.5 -47t47.5 -20q27 0 46 20
t19 47zM402 656q0 -39 -15 -74t-41 -62t-61 -42.5t-74 -15.5t-74 15.5t-61.5 41.5t-42 61.5t-15.5 75.5q0 39 15.5 74t42 61t61.5 41t74 15t74 -15t61 -41.5t41 -61t15 -73.5zM276 656q0 26 -19 46t-46 20q-28 0 -47.5 -20t-19.5 -46t19.5 -45.5t47.5 -19.5q27 0 46 19.5
t19 45.5zM0 1000z" />
    <glyph glyph-name="vowelA" unicode="&#xc05;" horiz-adv-x="1458" 
d="M1364 606q0 -138 -47.5 -253t-133.5 -197.5t-206 -128.5t-265 -46q-140 0 -261 47t-210 130.5t-139.5 198t-50.5 249.5q0 79 25 150.5t69 125.5t104 85.5t130 31.5q59 0 111 -22.5t90.5 -61t61 -90.5t22.5 -111t-22.5 -111t-61 -90.5t-90.5 -61t-111 -22.5q-22 0 -43 3.5
t-39 9.5q89 -209 415 -209q100 0 181 24.5t138 72t87.5 117t30.5 159.5q0 38 -7.5 70.5t-22.5 56.5t-38 37.5t-54 13.5q-29 0 -49 -20t-20 -49q0 -15 8 -27.5t21.5 -22.5t32 -15.5t39.5 -5.5v-215h-361v215h53q-3 15 -5.5 34.5t-2.5 36.5q0 59 22.5 110.5t61 90t90 61
t110.5 22.5q71 0 132.5 -31.5t107 -85t71.5 -125t26 -151.5zM449 714q0 29 -20.5 49.5t-49.5 20.5q-32 0 -58.5 -20t-37.5 -52q10 -31 37 -49.5t59 -18.5q29 0 49.5 20.5t20.5 49.5z" />
    <glyph glyph-name="vowelAa" unicode="&#xc06;" horiz-adv-x="1508" 
d="M1406 715q0 -31 -9.5 -64.5t-26.5 -64.5t-40.5 -58t-50.5 -45q38 -50 38 -104q0 -75 -28.5 -133.5t-75.5 -102.5t-108.5 -75t-128.5 -50.5t-133.5 -28t-124.5 -8.5q-136 0 -257 45.5t-212 128t-144 197.5t-53 254q0 78 24.5 149.5t68 125.5t102.5 86t128 32
q59 0 111 -22.5t90.5 -61t61 -90.5t22.5 -111t-22.5 -111t-61 -90.5t-90.5 -61t-111 -22.5q-43 0 -80 12q24 -50 65 -89t96 -65.5t121 -40t141 -13.5q73 0 142 10t123 27.5t86.5 41.5t32.5 52q0 20 -31 36h-327v215h117q-22 44 -22 100q0 59 22 111t60.5 90.5t90.5 60.5
t111 22t110.5 -22t90 -60.5t60.5 -90t22 -111.5zM1193 714q0 29 -20.5 49.5t-49.5 20.5q-27 0 -48.5 -20.5t-21.5 -49.5q0 -63 54 -95q86 17 86 95zM445 714q0 29 -18 49.5t-47 20.5q-32 0 -58.5 -20t-37.5 -52q8 -32 36 -50t60 -18q29 0 47 20.5t18 49.5z" />
    <glyph glyph-name="vowelI" unicode="&#xc07;" horiz-adv-x="1414" 
d="M1316 596q0 -116 -46 -219t-136 -191q26 -48 42 -116.5t19 -144.5h-217q0 50 -3.5 84t-13.5 57q-39 -26 -71.5 -42.5t-64.5 -26.5t-66 -14t-76 -4q-63 0 -116.5 19.5t-92.5 56t-61 88.5t-22 116q0 54 21.5 101.5t58.5 82.5t86 55.5t104 20.5q197 0 346 -155
q20 23 37.5 52.5t30 61t20 62t7.5 56.5q0 84 -39 136t-115 52q-35 0 -64 -10t-49.5 -32.5t-32 -59.5t-11.5 -91h-215q0 53 -11.5 89.5t-32.5 59.5t-50.5 33.5t-64.5 10.5q-32 0 -59.5 -11.5t-47.5 -31.5t-31 -47.5t-11 -60.5q0 -62 65 -127l-153 -152q-128 130 -128 277
q0 77 28.5 144t77.5 117t115.5 78.5t143.5 28.5q81 0 146.5 -27.5t116.5 -81.5q20 25 49.5 45t65 34t75 22t78.5 8q83 0 151 -30t116 -83.5t74.5 -127.5t26.5 -162zM683 204q42 0 87 9.5t80 27.5q-37 34 -86.5 50.5t-102.5 16.5q-22 0 -38.5 -14t-16.5 -35q0 -12 7 -22.5
t18.5 -17.5t25 -11t26.5 -4z" />
    <glyph glyph-name="vowelIi" unicode="&#xc08;" horiz-adv-x="1782" 
d="M1210 763q42 62 98.5 99.5t120.5 37.5q50 0 94.5 -19.5t77.5 -53t52.5 -78t19.5 -95.5q0 -35 -15 -68t-32 -62q31 -33 51 -71t20 -83q0 -46 -17.5 -87t-48 -72t-71.5 -49t-87 -18t-87 18t-72 48.5t-49 71.5t-18 88q0 22 4 41h-71q-16 -89 -61 -167t-110.5 -136.5
t-147.5 -92.5t-172 -34q-91 0 -173 34t-147 92.5t-110 136.5t-61 167h-141v183h141q9 52 30.5 102t53 93.5t72 80t87.5 63.5q-12 15 -30 36.5t-31 36.5l131 131q42 -50 65 -76t30 -31q37 -31 83 -31q57 0 154 97q26 26 66 73t96 117l149 -132q-62 -78 -112.5 -137t-85.5 -94
q185 -113 224 -329h249q26 0 43.5 17t17.5 43q0 25 -18.5 44t-42.5 19q-14 0 -31.5 -15t-34.5 -38zM957 594q-15 41 -42.5 76t-62.5 60.5t-76.5 39.5t-86.5 14t-87 -14t-77 -39.5t-62.5 -60.5t-42.5 -76h537zM418 411q15 -40 41.5 -72.5t61.5 -56t78 -36.5t90 -13t89.5 13
t78 36.5t61.5 56t41 72.5h-541zM1518 368q0 20 -14 34t-34 14q-21 0 -35.5 -14t-14.5 -34q0 -21 14.5 -35.5t35.5 -14.5q20 0 34 14.5t14 35.5z" />
    <glyph glyph-name="vowelU" unicode="&#xc09;" horiz-adv-x="1414" 
d="M1343 235q0 -53 -25.5 -99.5t-68 -81t-96.5 -54t-111 -19.5q-204 0 -310 155q-22 -35 -52 -64t-66 -49t-76 -31t-81 -11q-89 0 -163.5 35t-128.5 96.5t-84 145.5t-30 183q0 118 44 218.5t122 174t185.5 117t235.5 48.5v186h183v-187q89 -4 183.5 -29t198.5 -71l-105 -197
q-188 83 -375 83q-152 0 -252.5 -38t-152.5 -98h999v-183h-1051q0 -122 45 -177t146 -55q80 0 119.5 33.5t39.5 120.5h214q0 -35 5.5 -61.5t17.5 -46.5t30 -35.5t43 -28.5q-1 5 -1 10v10q0 43 16.5 81.5t44.5 66.5t66 44.5t82 16.5q43 0 81 -16.5t66.5 -45t45 -66.5
t16.5 -81zM1170 239q0 17 -11.5 28.5t-27.5 11.5q-17 0 -28.5 -11.5t-11.5 -28.5t6 -32.5t17 -28.5q29 2 42.5 20.5t13.5 40.5z" />
    <glyph glyph-name="vowelUu" unicode="&#xc0a;" horiz-adv-x="1862" 
d="M1350 235q0 -57 -22.5 -104t-62 -80t-95 -51.5t-121.5 -18.5q-205 0 -310 156q-21 -35 -51 -64t-65.5 -49.5t-76 -31.5t-82.5 -11q-93 0 -168 36.5t-128 99t-81.5 146t-28.5 178.5q0 108 37.5 201.5t102.5 165t153.5 118t190.5 60.5v199h183v-185h27h9.5h3.5h3h10v185
h183v-199q59 -8 120.5 -31t127.5 -60l-106 -187q-77 44 -167 60t-194 16q-82 0 -148.5 -11.5t-118.5 -29.5t-89 -40.5t-60 -44.5h1197q26 0 44.5 23t18.5 53q0 25 -17.5 39.5t-43.5 14.5q-14 0 -31 -15t-34 -36l-153 98q42 61 98 98.5t120 37.5q49 0 92 -18.5t75 -51
t51 -75.5t19 -92q0 -65 -37 -125q67 -65 67 -160q0 -46 -17.5 -86.5t-48 -71t-71.5 -48t-87 -17.5q-45 0 -85.5 15t-71 43.5t-48.5 70t-18 94.5q0 6 0.5 13t1.5 13h-1074v-34q0 -208 191 -208q159 0 159 174h214q0 -140 96 -192q-1 5 -1 10v10q0 43 16.5 81t45 66.5t66.5 45
t81 16.5q40 0 77.5 -14.5t67 -41.5t47 -65.5t17.5 -87.5zM1615 450q0 20 -14 34t-34 14q-21 0 -35.5 -14t-14.5 -34q0 -21 14.5 -35.5t35.5 -14.5q20 0 34 14.5t14 35.5zM1178 236q0 17 -11.5 28.5t-27.5 11.5q-17 0 -28.5 -11.5t-11.5 -28.5t6 -32.5t17 -28.5
q29 2 42.5 20.5t13.5 40.5z" />
    <glyph glyph-name="vowelRi" unicode="&#xc0b;" horiz-adv-x="2550" 
d="M1951 1004q106 -18 196.5 -66.5t156.5 -120.5t103.5 -163t37.5 -193q0 -103 -29.5 -190.5t-83.5 -152t-129.5 -101t-167.5 -36.5q-79 0 -149.5 34.5t-124.5 94.5q-60 -63 -130 -96t-150 -33q-162 0 -271 125q-116 -125 -274 -125q-152 0 -260 117q-96 -117 -254 -117
q-74 0 -138.5 27.5t-112 76t-74.5 113.5t-27 140q0 37 7 66.5t21 54.5t35 46t48 42q44 35 189 87q38 14 57 32.5t19 57.5q0 60 -59 60q-24 0 -46 -22.5t-22 -59.5h-215q0 63 23.5 117t62.5 94t90 63t107 23q54 0 103.5 -22.5t87 -60.5t60 -87.5t22.5 -104.5
q0 -74 -24.5 -124t-59 -83t-73 -51t-65.5 -28q-13 -5 -26.5 -10.5t-36.5 -14.5h1q-41 -18 -66 -35.5t-25 -39.5q0 -105 137 -105q64 0 104.5 41.5t40.5 117.5h215q0 -159 154 -159q185 0 185 228q0 67 -23.5 123.5t-66.5 99.5t-104 70.5t-136 36.5l49 212q106 -18 197 -66
t157.5 -119.5t104 -162.5t37.5 -194q0 -7 -1.5 -23.5t-3 -34t-3 -32.5t-1.5 -19q4 -24 18 -46t34 -38t46 -25.5t56 -9.5q94 0 144.5 59.5t50.5 168.5q0 67 -23.5 123.5t-66.5 100t-103.5 71t-135.5 35.5l47 212q106 -17 196.5 -65.5t157 -120t104.5 -163t38 -193.5
q0 -6 -1.5 -22.5t-3 -34.5t-3 -33.5t-1.5 -19.5q20 -118 154 -118q94 0 144.5 59.5t50.5 168.5q0 66 -23.5 122.5t-66 100t-103 71.5t-134.5 38z" />
    <glyph glyph-name="vowelLri" unicode="&#xc0c;" horiz-adv-x="1544" 
d="M1440 654q0 -97 -26 -184.5t-72 -162t-110 -135t-141 -103t-163 -65.5t-177 -23q-112 0 -206 24.5t-162.5 70t-106.5 109.5t-38 144q0 60 22.5 108t63.5 81.5t99 52t130 18.5q21 0 57 -4t74.5 -8.5t72 -8t49.5 -3.5q48 0 76.5 32t28.5 81q0 22 -9 41.5t-24 33.5t-34 22.5
t-38 8.5q-23 0 -43 -6.5t-34.5 -22.5t-23 -43t-8.5 -67h-215q0 39 -8 66t-22.5 43t-34.5 23t-44 7q-21 0 -40 -8.5t-34 -23t-23.5 -33.5t-8.5 -41q0 -38 31 -84q-26 -26 -65.5 -62t-87.5 -78q-92 113 -92 224q0 65 26 123.5t69.5 102.5t101.5 69.5t123 25.5q122 0 216 -91
q92 91 217 91q66 0 124.5 -26t102 -70t68.5 -102t25 -123t-25.5 -124.5t-69 -104.5t-101.5 -72t-124 -27q-20 0 -56 3.5t-74.5 8t-72.5 8.5t-50 4q-101 0 -101 -45q0 -27 22.5 -48t62.5 -35.5t95 -22.5t119 -8q102 0 190 34.5t152.5 94t101.5 139.5t37 171q0 105 -95 139
v210q76 -9 133 -41.5t94.5 -80t56.5 -106.5t19 -121z" />
    <glyph glyph-name="vowelE" unicode="&#xc0e;" horiz-adv-x="1290" 
d="M1198 565q0 -135 -30.5 -243.5t-88 -184t-140 -116t-186.5 -40.5q-72 0 -127.5 26t-93.5 77q-83 -84 -199 -84q-59 0 -110.5 22.5t-90 61t-61 90.5t-22.5 111q0 58 22.5 110t61 90.5t90 61t110.5 22.5q199 0 277 -229q10 -30 21.5 -50.5t28 -33t39 -18t54.5 -5.5
q231 0 231 332q0 130 -45 240t-128 189.5t-202 124t-266 44.5v215q120 4 230 -22t205 -77.5t172.5 -125.5t132.5 -166t85 -198.5t30 -223.5zM333 215q32 0 56.5 20t29.5 52q-27 68 -86 68q-13 0 -25.5 -5.5t-22.5 -15.5t-16 -22.5t-6 -26.5q0 -30 20.5 -50t49.5 -20z" />
    <glyph glyph-name="vowelEe" unicode="&#xc0f;" horiz-adv-x="1296" 
d="M1198 565q0 -136 -30.5 -244t-88.5 -183.5t-140.5 -116t-185.5 -40.5q-72 0 -127.5 26t-93.5 77q-83 -84 -199 -84q-59 0 -111 22.5t-90.5 61t-61 90.5t-22.5 111t22.5 110.5t61 90t90.5 61t111 22.5q213 0 278 -231q30 -105 142 -105q230 0 230 332q0 130 -38 240
t-108.5 189.5t-170.5 124t-224 44.5v215h32q101 0 194 -28.5t173.5 -80.5t146 -126t112.5 -164t72.5 -195t25.5 -219zM389 906q-85 0 -151 33t-111.5 86t-69 119t-23.5 132q0 68 24.5 129.5t70.5 108.5t111.5 75t148.5 28v-215q-39 0 -65.5 -12t-43 -30.5t-24 -40.5
t-7.5 -43q0 -71 32.5 -113.5t107.5 -42.5v-214zM333 215q31 0 60 19.5t36 52.5q-14 34 -40.5 51t-55.5 17q-14 0 -26.5 -6t-22 -15.5t-15.5 -22.5t-6 -26q0 -29 20 -49.5t50 -20.5z" />
    <glyph glyph-name="vowelAi" unicode="&#xc10;" horiz-adv-x="1414" 
d="M1316 481q-1 -105 -38 -196.5t-101 -159t-151 -106t-187 -38.5q-79 0 -153 28.5t-144 83.5q-85 -93 -207 -93q-59 0 -110.5 22.5t-90 61t-61 90.5t-22.5 111q0 58 22.5 110t61 90.5t90 61t110.5 22.5q104 0 173 -63.5t102 -197.5q53 -75 229 -75q58 0 106.5 17.5t83 50.5
t54 79t19.5 103q0 76 -18 132.5t-45.5 94t-61 56t-63.5 18.5q-25 0 -52.5 -8.5t-50 -25.5t-37.5 -43.5t-15 -62.5h-215q0 39 -11.5 65.5t-32 43t-48.5 24t-61 7.5q-60 0 -93 -32.5t-33 -107.5h-214q0 83 24.5 149t69.5 111.5t107.5 70t138.5 24.5q88 0 155.5 -28t116.5 -75
q56 46 118.5 74.5t131.5 28.5q65 0 120 -22t100 -60t79 -89t57 -108.5t35 -118.5t12 -120zM335 215q15 0 31 5t29.5 14.5t23 22.5t12.5 30q-14 34 -40.5 51t-55.5 17q-13 0 -25.5 -5.5t-22.5 -15.5t-16 -22.5t-6 -26.5q0 -30 20.5 -50t49.5 -20z" />
    <glyph glyph-name="vowelO" unicode="&#xc12;" horiz-adv-x="1416" 
d="M1316 385q0 -84 -28 -157.5t-77 -128.5t-116 -86.5t-146 -31.5q-175 0 -265 120q-43 -60 -109 -90t-163 -30q-86 0 -153.5 27.5t-113.5 76t-70 113.5t-24 140q0 70 23 115.5t63 77t94.5 54.5t118.5 49q38 13 57 32.5t19 57.5q0 60 -59 60q-24 0 -41 -27.5t-17 -64.5h-214
q0 63 21.5 118.5t59 97.5t86.5 66.5t105 24.5q55 0 104.5 -22.5t87 -60.5t59.5 -87.5t22 -104.5q0 -75 -24.5 -125t-59.5 -81.5t-73 -48t-65 -23.5q-52 -14 -82.5 -28.5t-46 -28.5t-20 -27t-4.5 -24q0 -51 37.5 -78t106.5 -27q34 0 64.5 11t53 32.5t36 52t13.5 69.5h215
q0 -84 43 -124.5t115 -40.5q71 0 112 40.5t41 111.5q0 78 -88 150l161 153q141 -140 141 -303z" />
    <glyph glyph-name="vowelOo" unicode="&#xc13;" horiz-adv-x="1414" 
d="M1316 385q0 -84 -28 -157.5t-77 -128.5t-116 -86.5t-146 -31.5q-175 0 -265 120q-43 -60 -109 -90t-163 -30q-86 0 -153.5 27.5t-113.5 76t-70 113.5t-24 140q0 37 7 66t20.5 54t34.5 46.5t48 42.5q23 17 69.5 38.5t119.5 48.5q38 13 57 32.5t19 57.5q0 60 -59 60
q-24 0 -41 -27.5t-17 -64.5h-214q0 49 12.5 93.5t35 82t53 65.5t67.5 44q-1 8 -1.5 17t-0.5 17q0 57 21.5 108t59 88.5t88 59.5t109.5 22q115 0 220 -105l-152 -152q-42 42 -68 42q-27 0 -45.5 -18.5t-18.5 -44.5q0 -20 7 -40q34 -17 63 -43t50 -58t33 -69.5t12 -76.5
q0 -75 -24.5 -125.5t-59.5 -82.5t-73 -49.5t-65 -24.5q-72 -20 -112.5 -47.5t-40.5 -56.5q0 -51 37.5 -78t106.5 -27q34 0 64.5 9.5t53 29t36 48.5t13.5 68h215q0 -83 43 -119t115 -36q71 0 112 40.5t41 111.5q0 78 -88 150l161 153q141 -140 141 -303z" />
    <glyph glyph-name="vowelAu" unicode="&#xc14;" horiz-adv-x="1584" 
d="M1318 385q0 -84 -28 -157.5t-77 -128.5t-116 -86.5t-146 -31.5q-175 0 -265 120q-42 -60 -108.5 -90t-163.5 -30q-86 0 -153.5 27.5t-113.5 76t-70 113.5t-24 140q0 37 7 66.5t20.5 54t34.5 46t48 42.5q23 17 69.5 38.5t119.5 48.5q38 13 57 32.5t19 57.5q0 60 -59 60
q-24 0 -41 -27.5t-17 -64.5h-214q0 42 6.5 71.5t18.5 50.5h-2v185h440q13 0 20 11.5t7 25.5q0 11 -8 24t-19 13h-538v185h1193q55 0 103 -22t83.5 -60t55.5 -88t20 -105t-20 -104.5t-55.5 -87t-83.5 -59.5t-103 -22q-56 0 -104.5 22t-84 59t-55.5 86.5t-20 105.5q0 49 18 90
h-200q1 -9 1 -21v-17q0 -35 -10 -68.5t-29 -62.5t-46.5 -50.5t-62.5 -31.5q11 -23 16 -46.5t5 -51.5q0 -75 -24.5 -125t-60 -82.5t-73.5 -50.5t-65 -28q-12 -5 -26 -10.5t-37 -14.5h1q-40 -18 -65.5 -35.5t-25.5 -39.5q0 -51 37.5 -78t106.5 -27q34 0 64.5 9.5t53.5 29
t36 48.5t13 68h215q0 -83 43 -119t115 -36q71 0 112 40.5t41 111.5q0 78 -88 150l161 153q141 -140 141 -303zM1296 984q0 15 -5.5 29.5t-14.5 26t-22 18.5t-28 7h-44q-26 -7 -37.5 -27t-11.5 -54q0 -33 24.5 -57t57.5 -24t57 24t24 57z" />
    <glyph glyph-name="ka" unicode="&#xc15;" horiz-adv-x="1116" 
d="M748 651q0 57 -50.5 95t-152.5 38q-70 0 -116 -6t-73 -18.5t-38 -31.5t-11 -44q0 -27 13.5 -42.5t36.5 -23t53 -9.5t63 -2h72q130 0 220 -17.5t146 -53.5t81.5 -91t25.5 -130q0 -78 -34 -140t-96 -105t-149 -66t-194 -23q-50 0 -106 9.5t-111.5 29t-106.5 49t-90 70
t-62 92.5t-23 116h227q0 -28 23 -52t61 -42t87 -28t101 -10q259 0 259 100q0 21 -13 35.5t-43 24t-80 13.5t-123 4q-126 0 -212 14.5t-139.5 49t-77 90t-23.5 138.5q0 100 47 168.5t136 106.5q-5 7 -16 20.5t-23 27.5t-22 26t-14 16l153 105l108 -126q15 -17 37 -23t46 -6
q106 0 353 325l150 -133q-26 -33 -48 -61l-38.5 -49t-26.5 -34t-12 -15q-24 -28 -46 -52.5t-42 -44.5q71 -48 99 -119t28 -165h-214z" />
    <glyph glyph-name="kha" unicode="&#xc16;" horiz-adv-x="1536" 
d="M1442 473q0 -108 -34 -198.5t-95 -155.5t-146.5 -101.5t-188.5 -36.5q-172 0 -317 118q-133 -118 -315 -118q-57 0 -107 19t-86.5 53.5t-57.5 81.5t-21 103q0 55 19.5 99t53 75t77.5 48t93 17q86 0 158.5 -23.5t141.5 -68.5q24 55 24 121q0 81 -31 142q-35 -63 -90 -94
t-120 -31q-49 0 -92 18t-75.5 50t-51.5 75.5t-19 94.5q0 52 20 95.5t56 75t85 49.5t107 18q87 0 164.5 -39.5t135.5 -107t92 -157t34 -189.5q0 -57 -16.5 -117.5t-46.5 -120.5q70 -35 185 -35q118 0 183.5 61t65.5 179q0 66 -21 122.5t-56.5 98.5t-82.5 66t-98 24v215
q95 0 181 -39.5t151 -109.5t103 -166.5t38 -210.5zM346 196q39 0 77 9t67 26q-75 50 -170 50q-16 0 -31.5 -13.5t-15.5 -29.5q0 -42 73 -42zM771 -165q0 -23 -8.5 -43.5t-23.5 -35.5t-35.5 -23.5t-43.5 -8.5t-43 9t-35 24t-24 35t-9 43q0 84 111 194q111 -110 111 -194z
M486 780q-17 12 -37 18t-32 6q-25 0 -42 -12.5t-17 -30.5q0 -19 14 -30.5t33 -11.5q13 0 26.5 5t25 13.5t19.5 19.5t10 23z" />
    <glyph glyph-name="ga" unicode="&#xc17;" horiz-adv-x="1146" 
d="M1045 471q0 -230 -132 -483l-196 108q113 208 113 375q0 60 -23.5 116t-62.5 100t-90.5 70.5t-108.5 26.5t-108.5 -26.5t-90.5 -70.5t-62 -100t-23 -116q0 -167 112 -375l-195 -108q-132 253 -132 483q0 67 18 133.5t51.5 127t80.5 111.5t104 87q-7 7 -14.5 16.5
t-15.5 19.5l-69 83l153 105l111 -127q14 -16 35 -22t45 -6q35 0 81.5 25t95.5 85l176 214l149 -132q-43 -57 -72 -95t-48.5 -63t-32.5 -40.5t-24.5 -27t-24 -22.5t-31.5 -27q52 -35 94.5 -85t73 -109t47 -123t16.5 -128z" />
    <glyph glyph-name="gha" unicode="&#xc18;" horiz-adv-x="2130" 
d="M2028 483q0 -104 -36 -195.5t-99 -159.5t-149 -107.5t-186 -39.5q-64 0 -114 7.5t-92 26t-79 49.5t-74 77q-143 -160 -347 -160q-54 0 -94 5t-74 17t-64.5 33.5t-66.5 54.5q-42 -44 -94 -67.5t-111 -23.5t-111 22.5t-90.5 61t-61 90.5t-22.5 111t22.5 110.5t61 90
t90.5 61t111 22.5q49 0 92.5 -16.5t79.5 -49.5t62 -81.5t39 -112.5q76 -76 231 -76q58 0 106.5 18t83 51t53.5 79t19 102q0 61 -14 116t-46 96t-85 65t-131 24v215q118 0 209 -41.5t153.5 -112t95 -164.5t32.5 -198q0 -7 -2 -22t-4.5 -32t-4.5 -33.5t-2 -25.5
q0 -31 19.5 -56.5t53 -43.5t77.5 -27.5t93 -9.5q57 0 104 17t81 49t52.5 78.5t18.5 105.5q0 63 -17.5 117.5t-54 95.5t-92.5 64.5t-134 23.5v215q116 0 210.5 -41.5t161.5 -112t103.5 -164.5t36.5 -198zM862 1168l-242 -285q-31 -36 -63 -59.5t-65 -37t-66 -19t-66 -5.5
q-20 0 -45 5.5t-50.5 16t-49.5 27t-43 37.5l-120 137l130 129l82 -92q21 -23 49.5 -34.5t46.5 -11.5q35 0 73.5 17.5t80.5 68.5l199 240zM348 215q15 0 31 5t29 14.5t22.5 22.5t12.5 30q-13 34 -39.5 51t-55.5 17q-27 0 -48.5 -20.5t-21.5 -49.5q0 -30 20 -50t50 -20z
M649 -128q0 -43 -29.5 -72.5t-72.5 -29.5q-20 0 -38.5 8t-32.5 22t-22 32.5t-8 39.5q0 76 101 177q102 -102 102 -177z" />
    <glyph glyph-name="nga" unicode="&#xc19;" horiz-adv-x="1414" 
d="M1316 385q0 -84 -28 -157.5t-77 -128.5t-116 -86.5t-146 -31.5q-175 0 -265 120q-43 -60 -109 -90t-163 -30q-86 0 -153.5 27.5t-113.5 76t-70 113.5t-24 140q0 37 7 66.5t20.5 54t34.5 46t48 42.5q23 17 69.5 38.5t119.5 48.5q38 13 57 32.5t19 57.5q0 60 -59 60
q-12 0 -25 -5.5t-23.5 -16t-17.5 -25.5t-7 -33h-214q0 63 24 116.5t64 93.5t91.5 62.5t107.5 22.5q44 0 85 -14.5t75.5 -40.5t60 -61.5t39.5 -76.5h106v193h190v-193h131v-190h-431q-16 -43 -43.5 -73.5t-57.5 -51.5t-58 -33.5t-46 -19.5q-12 -5 -26 -10.5t-37 -14.5h1
q-40 -18 -65.5 -35.5t-25.5 -39.5q0 -51 37.5 -78t106.5 -27q34 0 64.5 11t53 32.5t36 52t13.5 69.5h215q0 -84 43 -124.5t115 -40.5q71 0 112 40.5t41 111.5q0 78 -88 150l161 153q141 -140 141 -303z" />
    <glyph glyph-name="ca" unicode="&#xc1a;" horiz-adv-x="1414" 
d="M1315 405q0 -88 -26.5 -165t-75 -134.5t-116 -91t-149.5 -33.5q-95 0 -159.5 27.5t-106.5 89.5q-81 -117 -266 -117q-85 0 -152.5 33t-115 86.5t-73 121.5t-25.5 138q0 46 9 76t29 63h-90v203h453v-203q-101 0 -144 -36t-43 -103q0 -56 41.5 -91.5t110.5 -35.5
q33 0 61.5 8.5t50.5 28.5t34.5 53.5t12.5 84.5h215q0 -50 11.5 -84t32.5 -54t50 -28.5t64 -8.5q36 0 64 13.5t48 37t30.5 54.5t10.5 67q0 105 -30 177.5t-87 117.5t-140.5 64.5t-189.5 19.5q-46 0 -92.5 15t-80.5 54l-135 154l130 129l96 -108q14 -17 36.5 -23t45.5 -6
q53 0 140 81t213 244l150 -133q-48 -63 -81 -105.5t-56 -70t-38 -44l-25 -27.5q84 -29 150 -78t112.5 -117t71 -154.5t24.5 -189.5z" />
    <glyph glyph-name="cha" unicode="&#xc1b;" horiz-adv-x="1414" 
d="M792 -165q0 -23 -8.5 -43.5t-23.5 -35.5t-35 -23.5t-44 -8.5q-22 0 -42 9t-35.5 24t-24.5 35t-9 43q0 92 112 193q110 -109 110 -193zM1315 405q0 -88 -26.5 -165t-75 -134.5t-116 -91t-149.5 -33.5q-95 0 -159.5 27.5t-106.5 89.5q-81 -117 -266 -117q-85 0 -152.5 33
t-115 86.5t-73 121.5t-25.5 138q0 46 9 76t29 63h-90v203h453v-203q-101 0 -144 -36t-43 -103q0 -56 41.5 -91.5t110.5 -35.5q33 0 61.5 8.5t50.5 28.5t34.5 53.5t12.5 84.5h215q0 -50 11.5 -84t32.5 -54t50 -28.5t64 -8.5q36 0 64 13.5t48 37t30.5 54.5t10.5 67
q0 105 -30 177.5t-87 117.5t-140.5 64.5t-189.5 19.5q-46 0 -92.5 15t-80.5 54l-135 154l130 129l96 -108q14 -17 36.5 -23t45.5 -6q53 0 140 81t213 244l150 -133q-48 -63 -81 -105.5t-56 -70t-38 -44l-25 -27.5q84 -29 150 -78t112.5 -117t71 -154.5t24.5 -189.5z" />
    <glyph glyph-name="ja" unicode="&#xc1c;" horiz-adv-x="1414" 
d="M1141 728q-2 -57 -31 -106t-77 -85t-110.5 -57t-129.5 -21q-70 0 -127 18.5t-104 45.5q-17 -17 -37.5 -31t-40.5 -24.5t-37.5 -18t-28.5 -11.5q-17 -6 -42.5 -15.5t-50.5 -22.5t-42.5 -28.5t-17.5 -33.5q0 -51 37.5 -78t106.5 -27q34 0 64.5 8t53 25.5t36 45t13.5 66.5
h215q0 -42 11 -69.5t32 -44.5t50 -24t65 -7q35 0 63.5 10t48.5 27.5t30.5 41.5t10.5 53q0 39 -19 67t-43 47l159 156q52 -49 84.5 -119t32.5 -151q0 -84 -28 -154.5t-77 -121.5t-116 -79.5t-146 -28.5q-175 0 -265 120q-43 -60 -109 -90t-163 -30q-86 0 -153.5 27.5
t-113.5 76t-70 113.5t-24 140t25.5 123.5t84.5 85.5q34 21 126 57q82 39 110.5 63t28.5 57q0 60 -59 60q-12 0 -24 -7.5t-22 -20t-16 -29.5t-6 -35h-214q0 63 23 118.5t62 97.5t90 66.5t107 24.5q55 0 104.5 -22.5t87 -60.5t59.5 -87.5t22 -104.5v-18q36 -24 77 -40t76 -16
q78 0 112 17.5t34 48.5q0 35 -19 51.5t-64 16.5v215q67 0 119.5 -18.5t89.5 -54t56.5 -85.5t19.5 -113z" />
    <glyph glyph-name="jha" unicode="&#xc1d;" horiz-adv-x="2550" 
d="M2449 483q0 -108 -35 -200t-97.5 -159t-149 -105t-190.5 -38q-58 0 -105.5 8.5t-88.5 28t-77 51t-70 77.5q-39 -47 -76 -78.5t-77.5 -50.5t-87.5 -27.5t-106 -8.5q-57 0 -105.5 9t-90.5 29t-80 52t-75 79q-27 -37 -68 -68t-90 -53.5t-103 -35t-107 -12.5q-105 0 -196 41
t-158.5 111.5t-106 164.5t-38.5 201q0 66 18 130.5t51 122t79.5 104.5t103.5 78q-17 19 -33.5 39t-27.5 34l131 130l94 -108q15 -17 37.5 -23.5t45.5 -6.5q55 0 142 81t211 244l150 -133l-108 -142q-20 -26 -34 -43t-27 -31t-27.5 -27t-34.5 -30q53 -34 95 -79.5t71.5 -99.5
t45 -115t15.5 -125q0 -10 -1.5 -27t-4 -35t-4 -33.5t-1.5 -21.5q16 -32 41 -59.5t55.5 -47.5t65 -31t69.5 -11q58 0 106 17t82.5 49.5t53.5 78.5t19 105q0 61 -17 116t-53 96t-92 65t-134 24v215q128 0 224 -43t159.5 -114.5t95 -164.5t31.5 -194q0 -9 -0.5 -22t-1.5 -26.5
t-2 -26t-2 -21.5q29 -75 86.5 -114.5t132.5 -39.5q121 0 189.5 65t68.5 185q0 62 -16 116.5t-50.5 95.5t-90 65t-133.5 24v215q120 0 213.5 -41.5t158 -112t98.5 -164t34 -198.5zM854 499q0 59 -22.5 111t-61 90.5t-90.5 61t-110 22.5q-59 0 -111 -22.5t-90.5 -61t-61 -90.5
t-22.5 -111q0 -57 22 -105.5t60.5 -84t90.5 -56t112 -20.5t111.5 20.5t90 56.5t60.5 84.5t22 104.5zM1731 -128q0 -43 -29.5 -72.5t-72.5 -29.5q-20 0 -38.5 8t-32.5 22t-22 32.5t-8 39.5q0 76 101 177q102 -102 102 -177z" />
    <glyph glyph-name="nya" unicode="&#xc1e;" horiz-adv-x="1768" 
d="M1652 616h-330v-20q0 -116 -46 -219t-136 -191q25 -47 42.5 -116t17.5 -145h-215q0 50 -4 84t-15 56q-32 -21 -60.5 -35.5t-51.5 -22.5h1q-36 -14 -77 -21t-89 -7q-59 0 -112 22t-93 60t-63.5 89t-23.5 109q0 55 22 102.5t59 82.5t86 55t103 20q197 0 346 -155
q20 24 37.5 53t30 60t19.5 62t7 57q0 85 -38.5 136.5t-114.5 51.5q-35 0 -64 -9t-49.5 -29.5t-32 -53.5t-11.5 -81h-215q0 86 -44 129.5t-115 43.5q-33 0 -60 -11.5t-47 -32t-31 -48t-11 -59.5q0 -63 64 -127l-152 -152q-129 129 -129 277q0 76 28.5 143.5t78 117t116 78.5
t143.5 29q81 0 146.5 -27.5t116.5 -81.5q20 25 49.5 45t64.5 34t74.5 22t79.5 8q117 0 195.5 -45.5t126.5 -147.5h84v193h190v-193h102v-190zM689 204q42 0 87 9.5t80 27.5q-37 34 -86.5 50.5t-102.5 16.5q-22 0 -38.5 -14t-16.5 -35q0 -12 7 -22.5t18.5 -17.5t25 -11
t26.5 -4z" />
    <glyph glyph-name="tta" unicode="&#xc1f;" horiz-adv-x="1474" 
d="M1372 461q0 -104 -31.5 -191.5t-86.5 -152t-130 -100.5t-162 -36q-162 0 -245 107q-38 -56 -99 -81.5t-147 -25.5q-89 0 -167.5 39t-137 106.5t-92 159.5t-33.5 197q0 400 248 495v246h189v-241q42 -15 77 -42t60.5 -62.5t40 -77.5t14.5 -87q0 -59 -22.5 -110.5
t-61.5 -90.5t-91 -61.5t-110 -22.5q-72 0 -127 39v-12q0 -47 17.5 -88t46.5 -71t68 -47t81 -17q28 0 53 10t43 29t28.5 46.5t10.5 63.5h215q0 -79 35 -114t106 -35q40 0 75.5 17t62 47t42 72t15.5 92q0 70 -21 129.5t-55 103t-77.5 67.5t-89.5 24v214q100 0 184 -40
t145 -112t95 -170.5t34 -215.5zM455 714q0 31 -18 50.5t-47 19.5q-32 0 -59 -20t-38 -53q8 -31 36.5 -49t60.5 -18q29 0 47 19.5t18 50.5z" />
    <glyph glyph-name="ttha" unicode="&#xc20;" horiz-adv-x="1140" 
d="M1045 499q0 -110 -38 -204.5t-105 -164.5t-158.5 -109.5t-198.5 -39.5q-111 0 -203 39.5t-157.5 109.5t-102 164.5t-36.5 204.5q0 68 17.5 132t50 120.5t79 103t105.5 79.5q-8 9 -22.5 25.5t-29.5 34t-27.5 33t-18.5 22.5l154 103l108 -124q15 -17 37 -23t46 -6
q33 0 81 26.5t95 83.5l177 215l149 -132l-133 -171q-25 -32 -49 -56t-49 -47q109 -73 169 -181t60 -238zM830 499q0 59 -22.5 111t-61 90.5t-90.5 61t-111 22.5t-110.5 -22.5t-90 -61t-61 -90.5t-22.5 -111q0 -58 21.5 -106.5t60 -84t90.5 -55.5t112 -20t112 19.5t90.5 54.5
t60.5 84t22 108zM653 499q0 -22 -8.5 -41.5t-23.5 -34t-34.5 -23t-41.5 -8.5t-41.5 8.5t-34 23t-23 34t-8.5 41.5t8.5 41.5t23 34.5t34 23.5t41.5 8.5t41.5 -8.5t34.5 -23.5t23.5 -34.5t8.5 -41.5z" />
    <glyph glyph-name="dda" unicode="&#xc21;" horiz-adv-x="1444" 
d="M1353 285q0 -71 -29 -127.5t-76.5 -95.5t-109 -60t-126.5 -21q-103 0 -184.5 39t-134.5 116q-43 -74 -113.5 -115t-162.5 -41q-79 0 -146 28t-116 80t-77 127t-28 169q0 88 26.5 172.5t75.5 158t118 132.5t155 97q-6 7 -18 22t-25.5 31.5t-25.5 31t-17 20.5l153 103
l108 -124q15 -17 37 -23.5t46 -6.5q35 0 81 25t95 85l177 215l149 -133l-129 -166q-23 -30 -45 -53.5t-45 -43.5q100 -50 200 -150l-151 -151q-156 157 -332 157q-84 0 -159.5 -33t-133 -87t-91.5 -124.5t-34 -145.5q0 -69 39 -109.5t110 -51.5q83 1 122.5 44t39.5 131h215
q0 -71 30 -123t80 -84q-5 10 -8.5 25t-5 29.5t-2 26t-0.5 14.5q0 43 17.5 81.5t48 66.5t72.5 44.5t91 16.5q50 0 93.5 -18t76 -48.5t51 -70t18.5 -82.5zM1164 274q0 26 -14 43t-35 17q-17 0 -33.5 -15.5t-16.5 -44.5q0 -32 11.5 -56t27.5 -37q27 10 43.5 35.5t16.5 57.5z
" />
    <glyph glyph-name="ddha" unicode="&#xc22;" horiz-adv-x="1443" 
d="M1353 285q0 -71 -29 -127.5t-76.5 -95.5t-109 -60t-126.5 -21q-103 0 -184.5 39t-134.5 116q-43 -74 -113.5 -115t-162.5 -41q-79 0 -146 28t-116 80t-77 127t-28 169q0 88 26.5 172.5t75.5 158t118 132.5t155 97q-6 7 -18 22t-25.5 31.5t-25.5 31t-17 20.5l153 105
l108 -126q15 -17 37 -23.5t46 -6.5q35 0 81 25t95 85l177 215l149 -133l-129 -166q-23 -30 -45 -53.5t-45 -43.5q100 -50 200 -150l-151 -151q-156 157 -332 157q-84 0 -159.5 -33t-133 -87t-91.5 -124.5t-34 -145.5q0 -69 39 -109.5t110 -51.5q83 1 122.5 44t39.5 131h215
q0 -71 30 -123t80 -84q-5 10 -8.5 25t-5 29.5t-2 26t-0.5 14.5q0 43 17.5 81.5t48 66.5t72.5 44.5t91 16.5q50 0 93.5 -18t76 -48.5t51 -70t18.5 -82.5zM1164 274q0 26 -14 43t-35 17q-17 0 -33.5 -15.5t-16.5 -44.5q0 -32 11.5 -56t27.5 -37q27 10 43.5 35.5t16.5 57.5z
M799 -128q0 -43 -29.5 -72.5t-72.5 -29.5q-20 0 -38.5 8t-32.5 22t-22 32.5t-8 39.5q0 76 101 177q102 -102 102 -177z" />
    <glyph glyph-name="nna" unicode="&#xc23;" horiz-adv-x="1414" 
d="M1316 473q0 -107 -23.5 -197t-68 -155.5t-107.5 -102.5t-142 -37q-59 0 -109.5 23.5t-87.5 63.5t-58.5 94t-21.5 115q0 57 21.5 107.5t59 88t88.5 59t109 21.5q68 0 127 -35q-4 57 -19.5 106t-42 84.5t-62.5 55.5t-80 20q-69 0 -111 -37t-42 -122h-215q0 76 -37 117.5
t-100 41.5q-129 0 -129 -108q0 -36 22 -60t57 -24h60v-215h-61q-35 0 -56.5 -23.5t-21.5 -60.5q0 -15 6.5 -29.5t17 -25t25 -17t30.5 -6.5q39 0 58.5 26t19.5 64h215q0 -71 -22 -130t-61 -102.5t-92.5 -67.5t-117.5 -24q-62 0 -115 25t-93 67.5t-62.5 99t-22.5 120.5
q0 55 21.5 101.5t57.5 88.5q-16 18 -30 41.5t-25 50t-17.5 52.5t-6.5 49q0 72 25 131t70.5 102t108.5 66.5t139 23.5q141 0 244 -114q108 114 261 114q91 0 168 -40t132 -110.5t86 -167t31 -208.5zM976 216q40 0 67 21.5t36 63.5q-21 19 -47.5 28.5t-52.5 9.5t-45.5 -18
t-19.5 -44t18 -43.5t44 -17.5z" />
    <glyph glyph-name="ta" unicode="&#xc24;" horiz-adv-x="1407" 
d="M375 594q0 20 -14.5 34.5t-34.5 14.5q-13 0 -26 -5t-24.5 -13t-19 -19.5t-10.5 -24.5q7 -21 29.5 -29t50.5 -8q20 0 34.5 14.5t14.5 35.5zM1316 579q0 -143 -43 -254t-125 -187.5t-200.5 -116.5t-269.5 -40q-137 0 -252 36.5t-198.5 103t-130 160t-46.5 207.5
q0 64 17 126t51.5 110.5t86 78t120.5 29.5q48 0 92 -18.5t77 -51t52.5 -76t19.5 -92.5q0 -50 -19 -93.5t-52 -75.5t-76.5 -50t-91.5 -18h-18.5t-18.5 2q95 -126 387 -126q140 0 236.5 31.5t150.5 92.5q-55 1 -103 17t-84 46t-56.5 74t-20.5 100q0 63 28.5 112.5t84.5 77.5
h-264q-50 0 -95.5 14.5t-79.5 53.5l-133 155l131 131l94 -109q15 -18 37.5 -24t45.5 -6q37 0 85.5 25t93.5 81l174 219l148 -132q-35 -48 -73.5 -97.5t-84.5 -104.5q69 -3 128 -37.5t102.5 -91t68 -129.5t24.5 -153zM1041 544q23 0 45.5 10.5t34.5 33.5q-7 23 -31 39t-49 16
q-20 0 -35 -14.5t-15 -34.5q0 -21 15 -35.5t35 -14.5z" />
    <glyph glyph-name="tha" unicode="&#xc25;" horiz-adv-x="1414" 
d="M791 570q0 -22 -8.5 -41.5t-23.5 -34t-34.5 -23t-41.5 -8.5t-41.5 8.5t-34 23t-23 34t-8.5 41.5t8.5 41.5t23 34.5t34 23.5t41.5 8.5t41.5 -8.5t34.5 -23.5t23.5 -34.5t8.5 -41.5zM788 -128q0 -43 -29.5 -72.5t-72.5 -29.5q-20 0 -38.5 8t-32.5 22t-22 32.5t-8 39.5
q0 76 101 177q102 -102 102 -177zM1102 385q0 94 -29.5 168t-84 125.5t-132 78.5t-173.5 27q-95 0 -172 -27.5t-131.5 -79t-84.5 -125.5t-30 -167q0 -72 40.5 -112t111.5 -40q36 0 65.5 10.5t50 29.5t32 46t11.5 59h215q0 -41 11.5 -68.5t32.5 -44.5t50 -24.5t64 -7.5
q72 0 112.5 40t40.5 112zM1316 385q0 -84 -27.5 -157.5t-76.5 -128t-116.5 -86.5t-146.5 -32q-172 0 -265 123q-22 -28 -52.5 -51t-65.5 -39t-73.5 -24.5t-75.5 -8.5q-78 0 -145 32t-116 86.5t-77 128t-28 157.5q0 93 22.5 177.5t69 156.5t116.5 129.5t166 95.5
q-7 9 -17.5 21.5t-21 26t-20 24.5t-14.5 17l132 131l116 -135q16 -18 38 -24t45 -6q37 0 85 23.5t95 83.5l172 218l151 -133q-43 -55 -66 -84.5t-35 -45.5t-18 -23.5t-15.5 -18t-27 -29.5t-53.5 -58q89 -40 154 -98t107.5 -128.5t63 -152t20.5 -168.5z" />
    <glyph glyph-name="da" unicode="&#xc26;" horiz-adv-x="1414" 
d="M1102 385q0 94 -29.5 168t-84 125.5t-132 78.5t-173.5 27q-95 0 -172 -27.5t-131.5 -79t-84.5 -125.5t-30 -167q0 -72 40.5 -112t111.5 -40q36 0 65.5 10.5t50 29.5t32 46t11.5 59h215q0 -41 11.5 -68.5t32.5 -44.5t50 -24.5t64 -7.5q72 0 112.5 40t40.5 112zM1316 385
q0 -84 -27.5 -157.5t-76.5 -128t-116.5 -86.5t-146.5 -32q-172 0 -265 123q-22 -28 -52.5 -51t-65.5 -39t-73.5 -24.5t-75.5 -8.5q-78 0 -145 32t-116 86.5t-77 128t-28 157.5q0 93 22.5 177.5t69 156.5t116.5 129.5t166 95.5q-7 9 -17.5 21.5t-21 26t-20 24.5t-14.5 17
l132 131l116 -135q16 -18 38 -24t45 -6q37 0 85 23.5t95 83.5l172 218l151 -133q-43 -55 -66 -84.5t-35 -45.5t-18 -23.5t-15.5 -18t-27 -29.5t-53.5 -58q89 -40 154 -98t107.5 -128.5t63 -152t20.5 -168.5z" />
    <glyph glyph-name="dha" unicode="&#xc27;" horiz-adv-x="1414" 
d="M783 -128q0 -43 -29.5 -72.5t-72.5 -29.5q-20 0 -38.5 8t-32.5 22t-22 32.5t-8 39.5q0 76 101 177q102 -102 102 -177zM1102 385q0 94 -29.5 168t-84 125.5t-132 78.5t-173.5 27q-95 0 -172 -27.5t-131.5 -79t-84.5 -125.5t-30 -167q0 -72 40.5 -112t111.5 -40
q36 0 65.5 10.5t50 29.5t32 46t11.5 59h215q0 -41 11.5 -68.5t32.5 -44.5t50 -24.5t64 -7.5q72 0 112.5 40t40.5 112zM1316 385q0 -84 -27.5 -157.5t-76.5 -128t-116.5 -86.5t-146.5 -32q-172 0 -265 123q-22 -28 -52.5 -51t-65.5 -39t-73.5 -24.5t-75.5 -8.5q-78 0 -145 32
t-116 86.5t-77 128t-28 157.5q0 93 22.5 177.5t69 156.5t116.5 129.5t166 95.5q-7 9 -17.5 21.5t-21 26t-20 24.5t-14.5 17l132 131l116 -135q16 -18 38 -24t45 -6q37 0 85 23.5t95 83.5l172 218l151 -133q-43 -55 -66 -84.5t-35 -45.5t-18 -23.5t-15.5 -18t-27 -29.5
t-53.5 -58q89 -40 154 -98t107.5 -128.5t63 -152t20.5 -168.5z" />
    <glyph glyph-name="na" unicode="&#xc28;" horiz-adv-x="1414" 
d="M1316 429q0 -98 -27.5 -180t-78.5 -141.5t-124.5 -93t-165.5 -33.5q-89 0 -148.5 21.5t-101 57.5t-69.5 83t-53 99q-13 25 -27.5 51.5t-34 48t-45 35t-59.5 13.5q-35 0 -57 -11.5t-34 -29t-16.5 -36.5t-4.5 -34q0 -13 7.5 -33t22.5 -41.5t38.5 -41t55.5 -31.5l-130 -181
q-53 31 -92 73.5t-65 87.5t-39 89t-13 78q0 56 16.5 115.5t55 108t101 80t154.5 31.5q77 0 134.5 -23t98.5 -58t67.5 -75.5t42.5 -74.5q15 -33 33.5 -62t41.5 -50.5t52.5 -34t67.5 -12.5q85 0 133.5 49.5t48.5 155.5q0 93 -30 160.5t-83 110.5t-127.5 63.5t-162.5 20.5h-184
q-64 0 -107 17t-78 46.5t-67 68.5t-74 84l148 133l68 -74q13 -14 23.5 -25t22.5 -19t27 -12t37 -4q36 0 84 23.5t95 83.5l172 219l151 -134q-15 -20 -31 -40t-35.5 -44t-43.5 -53t-56 -66q106 -15 192 -62t147 -119.5t93.5 -168.5t32.5 -209z" />
    <glyph glyph-name="pa" unicode="&#xc2a;" horiz-adv-x="1414" 
d="M813 1168l-220 -261q-34 -40 -70 -67.5t-72 -45t-71.5 -25t-68.5 -7.5q-48 0 -92.5 15t-79.5 55l-131 153l130 128l94 -108q14 -16 35 -22.5t44 -6.5q38 0 84.5 24.5t93.5 83.5l175 218zM1315 474q0 -108 -34 -199t-96.5 -156t-150.5 -101.5t-196 -36.5q-79 0 -153 28.5
t-144 83.5q-87 -93 -207 -93q-59 0 -111 22.5t-90.5 61t-61 90.5t-22.5 111t22.5 110.5t61 90t90.5 61t111 22.5q46 0 83.5 -11t71 -39.5t65.5 -77t68 -123.5q8 -18 29 -33.5t50.5 -27t64.5 -18t72 -6.5q52 0 99.5 19.5t83.5 53t57.5 77t21.5 91.5q0 73 -26 130.5t-69 97.5
t-99 61t-117 21v215q103 0 198 -37t168 -105.5t116.5 -165.5t43.5 -217zM334 215q31 0 55 19.5t31 52.5q-27 68 -86 68q-13 0 -25.5 -5.5t-22.5 -15.5t-16 -22.5t-6 -26.5q0 -30 20.5 -50t49.5 -20z" />
    <glyph glyph-name="pha" unicode="&#xc2b;" horiz-adv-x="1414" 
d="M813 1168l-220 -261q-34 -40 -70 -67.5t-72 -45t-71.5 -25t-68.5 -7.5q-48 0 -92.5 15t-79.5 55l-131 153l130 128l94 -108q14 -16 35 -22.5t44 -6.5q38 0 84.5 24.5t93.5 83.5l175 218zM1315 474q0 -108 -34 -199t-96.5 -156t-150.5 -101.5t-196 -36.5q-79 0 -153 28.5
t-144 83.5q-87 -93 -207 -93q-59 0 -111 22.5t-90.5 61t-61 90.5t-22.5 111t22.5 110.5t61 90t90.5 61t111 22.5q46 0 83.5 -11t71 -39.5t65.5 -77t68 -123.5q8 -18 29 -33.5t50.5 -27t64.5 -18t72 -6.5q52 0 99.5 19.5t83.5 53t57.5 77t21.5 91.5q0 73 -26 130.5t-69 97.5
t-99 61t-117 21v215q103 0 198 -37t168 -105.5t116.5 -165.5t43.5 -217zM334 215q31 0 55 19.5t31 52.5q-27 68 -86 68q-13 0 -25.5 -5.5t-22.5 -15.5t-16 -22.5t-6 -26.5q0 -30 20.5 -50t49.5 -20zM649 -128q0 -43 -29.5 -72.5t-72.5 -29.5q-20 0 -38.5 8t-32.5 22
t-22 32.5t-8 39.5q0 76 101 177q102 -102 102 -177z" />
    <glyph glyph-name="ba" unicode="&#xc2c;" horiz-adv-x="1414" 
d="M907 1000q64 -8 119.5 -33.5t101 -65t80.5 -90t59 -108t36.5 -119t12.5 -123.5q0 -96 -25.5 -183t-75 -153t-121 -104.5t-163.5 -38.5q-80 0 -142.5 31t-104.5 88q-43 -60 -109 -90t-163 -30q-86 0 -153.5 27.5t-113.5 76t-70 113.5t-24 140q0 31 10.5 63t29 60.5
t42.5 52t51 37.5q-19 13 -35.5 33.5t-28.5 45.5t-18.5 51.5t-6.5 52.5q0 56 21.5 104.5t59 84t86.5 56t105 20.5q55 0 104.5 -21t87 -57t59.5 -84t22 -103q0 -57 -28 -101.5t-69.5 -80t-138.5 -92.5q-83 -50 -111 -73.5t-28 -48.5q0 -51 37.5 -78t106.5 -27q34 0 64.5 9.5
t53 29t36 48.5t13.5 68h215q0 -80 37.5 -117.5t103.5 -37.5q39 0 70.5 17t53.5 47t34 72t12 92q0 64 -16 121t-46 100.5t-74 71.5t-101 35zM426 734q0 60 -59 60q-24 0 -41 -18t-17 -42q0 -34 16 -51.5t39 -28.5q26 12 44 32.5t18 47.5z" />
    <glyph glyph-name="bha" unicode="&#xc2d;" horiz-adv-x="1414" 
d="M478 1006l141 137q29 -29 51 -55t43 -46t43.5 -31.5t51.5 -11.5q32 0 67.5 25.5t82.5 84.5l172 215l150 -133q-51 -66 -103 -133.5t-105 -124.5q59 -29 104.5 -78t76.5 -111.5t47 -135t16 -147.5q0 -96 -25.5 -183t-75 -153t-121 -104.5t-163.5 -38.5q-80 0 -142.5 31
t-104.5 88q-43 -60 -109 -90t-163 -30q-86 0 -153.5 27.5t-113.5 76t-70 113.5t-24 140q0 62 24 105.5t60 75.5t121 78q72 44 96 68.5t24 58.5q0 60 -59 60q-24 0 -41 -27.5t-17 -64.5h-214q0 63 21.5 118.5t59 97.5t86.5 66.5t105 24.5q54 0 103.5 -21.5t87 -58.5t60 -86.5
t22.5 -104.5q0 -71 -24 -119t-60 -81t-121 -77q-72 -39 -96 -60.5t-24 -52.5q0 -51 37.5 -78t106.5 -27q34 0 64.5 9.5t53 29t36 48.5t13.5 68h215q0 -80 37.5 -117.5t103.5 -37.5q39 0 70.5 17t53.5 47t34 72t12 92q0 63 -12.5 120t-40 102.5t-72.5 76t-110 41.5
q-23 -4 -56 -4q-59 0 -99.5 13t-76.5 46zM789 -128q0 -43 -29.5 -72.5t-72.5 -29.5q-20 0 -38.5 8t-32.5 22t-22 32.5t-8 39.5q0 76 101 177q102 -102 102 -177z" />
    <glyph glyph-name="ma" unicode="&#xc2e;" horiz-adv-x="2130" 
d="M2026 483q0 -108 -34.5 -200t-96.5 -159t-148 -105t-189 -38q-133 0 -220 44l1 -1q-75 37 -142 117q-140 -160 -345 -160q-52 0 -90 4.5t-70.5 16.5t-65 33.5t-72.5 55.5q-23 -26 -45.5 -43.5t-47.5 -28t-52.5 -15t-60.5 -4.5q-59 0 -111 22.5t-90.5 61t-61 90.5
t-22.5 111q0 58 22.5 109.5t61.5 90.5t90.5 61.5t110.5 22.5q66 0 107.5 -21.5t71 -56.5t53.5 -79.5t54 -90.5q28 -43 82.5 -65.5t135.5 -22.5q58 0 106.5 18t83 51t53.5 79t19 102q0 63 -22 118t-60 95.5t-90.5 64t-113.5 23.5h-298q-45 0 -91 15t-82 56l-135 152l130 130
l95 -108q15 -17 37.5 -23.5t45.5 -6.5q113 0 352 326l151 -134q-48 -60 -88.5 -108t-73.5 -86q97 -8 181 -52.5t145.5 -114.5t96.5 -159.5t35 -187.5q0 -30 -3 -60t-9 -58q64 -132 241 -132q57 0 103.5 19t80 52.5t51.5 79t18 99.5q0 61 -13.5 115.5t-46 96t-85 65.5
t-130.5 24v215q118 0 209.5 -41.5t154 -112.5t94.5 -164.5t32 -197.5zM348 215q16 0 32 5.5t29 15t22.5 22.5t12.5 29q-14 34 -40.5 51t-55.5 17q-27 0 -48.5 -20.5t-21.5 -49.5q0 -30 20 -50t50 -20z" />
    <glyph glyph-name="ya" unicode="&#xc2f;" horiz-adv-x="2544" 
d="M2448 483q0 -111 -34 -203.5t-96 -158.5t-149 -103t-192 -37q-111 0 -199 43t-142 112q-57 -79 -142.5 -117t-204.5 -38q-132 0 -221 40.5t-139 125.5q-66 -78 -159 -122t-200 -44q-108 0 -199.5 39.5t-158 109t-104 164t-37.5 205.5q0 103 39 194.5t107 159t158.5 107
t194.5 39.5q103 0 194 -39t158.5 -107t107 -159t39.5 -195q0 -8 -2 -23.5t-4.5 -33.5t-4.5 -34.5t-2 -25.5q7 -31 30.5 -58t56.5 -47.5t71.5 -32t74.5 -11.5q57 0 104 18t80 50.5t51 78.5t18 103q0 61 -21 116t-59 96t-90 65t-115 24q-47 0 -92.5 16t-80.5 55l-135 152
l130 130l96 -109q16 -17 37.5 -23t44.5 -6q38 0 84.5 24t93.5 83l174 218l151 -133q-71 -89 -130 -157t-107 -113q54 -34 97.5 -82.5t73.5 -105.5t46.5 -121t16.5 -129q0 -8 -1.5 -22.5t-3 -29.5t-3 -28t-1.5 -18q56 -152 229 -152q58 0 105 18t80.5 51t52 79t18.5 102
q0 63 -17 118t-53 95.5t-92.5 64t-135.5 23.5v215q115 0 209.5 -41t162 -111.5t104.5 -164.5t37 -199zM854 499q0 59 -22.5 111t-61 90.5t-90.5 61t-110 22.5q-59 0 -111 -22.5t-90.5 -61t-61 -90.5t-22.5 -111q0 -56 22 -104.5t60 -84.5t90.5 -56.5t112.5 -20.5
q59 0 111 20t90.5 55.5t60.5 84t22 106.5z" />
    <glyph glyph-name="ra" unicode="&#xc30;" horiz-adv-x="1140" 
d="M1045 499q0 -112 -36.5 -207t-102.5 -164t-158 -108t-203 -39q-109 0 -200.5 38.5t-158 107.5t-103.5 164t-37 208q0 67 18 132t51 122t79 103.5t102 77.5q-15 18 -32 38.5t-28 33.5l132 131l94 -108q16 -18 38 -24t45 -6q115 0 352 325l154 -133q-69 -88 -128.5 -154.5
t-107.5 -113.5q54 -35 96.5 -81.5t72.5 -101t45.5 -116t15.5 -125.5zM830 499q0 59 -22.5 111t-61 90.5t-90.5 61t-111 22.5t-110.5 -22.5t-90 -61t-61 -90.5t-22.5 -111q0 -58 21.5 -106.5t60 -84t90.5 -55.5t112 -20t112 19.5t90.5 54.5t60.5 84t22 108z" />
    <glyph glyph-name="rra" unicode="&#xc31;" horiz-adv-x="1482" 
d="M1382 461q0 -104 -28.5 -192t-81 -152t-127 -100t-165.5 -36q-190 0 -278 113q-47 -54 -109.5 -83.5t-140.5 -29.5q-90 0 -165 37t-129.5 102t-85 152.5t-30.5 188.5q0 122 26.5 221.5t73.5 170t111.5 108.5t141.5 38q60 0 110.5 -22.5t87 -61t57 -90.5t20.5 -111
q0 -17 -1.5 -36t-4.5 -34h96q-5 16 -6 33.5t-1 37.5q0 57 23 108.5t61.5 90.5t90 62t108.5 23q85 0 150 -38.5t108.5 -109t65.5 -170t22 -220.5zM389 439q-71 0 -126 34v-20q0 -47 14 -87.5t39 -70t59.5 -46t76.5 -16.5q29 0 55 8.5t46 25.5t32 43t12 62h214q0 -79 42 -109
t127 -30q39 0 73.5 15t60 44.5t40 71.5t14.5 96q0 70 -7 129t-23 102.5t-41 68t-61 24.5q-29 0 -49 -20t-20 -49t24.5 -50t67.5 -21v-205h-670zM456 714q0 29 -20.5 49.5t-49.5 20.5q-13 0 -27.5 -6t-26.5 -15.5t-20 -21.5t-8 -24q0 -20 8.5 -34t20.5 -22.5t26.5 -12.5
t26.5 -4q29 0 49.5 20.5t20.5 49.5z" />
    <glyph glyph-name="la" unicode="&#xc32;" horiz-adv-x="1410" 
d="M1316 566q0 -129 -50 -237t-134.5 -185t-194.5 -120t-230 -43q-151 0 -272 43.5t-206.5 124.5t-131.5 196.5t-46 260.5q0 79 25 150.5t69.5 125.5t105.5 85.5t133 31.5q59 0 110.5 -22.5t90 -61.5t61 -91t22.5 -110q0 -59 -22.5 -111t-61 -90.5t-90 -61t-110.5 -22.5
q-58 0 -105 22q22 -49 65.5 -89.5t101.5 -69t125 -44t136 -15.5q79 0 151 25.5t126 70t86 105.5t32 132q0 41 -9.5 78t-30 66t-52.5 49t-78 27v215q95 -9 167 -44.5t120 -92.5t72.5 -133t24.5 -165zM454 714q0 29 -20.5 49.5t-49.5 20.5q-33 0 -57 -16.5t-40 -53.5
q4 -15 13.5 -27.5t23 -22t29 -15t31.5 -5.5q29 0 49.5 20.5t20.5 49.5z" />
    <glyph glyph-name="lla" unicode="&#xc33;" horiz-adv-x="1258" 
d="M1282 1193q-54 -81 -103 -140.5t-100 -105.5q91 -70 91 -215q0 -66 -23.5 -128t-65.5 -114t-100 -92t-127 -62q12 -36 12 -79q0 -62 -18 -112.5t-52 -87t-81.5 -56.5t-105.5 -20q-57 0 -104.5 20t-81.5 56t-52.5 87t-18.5 113q0 23 3.5 43.5t9.5 38.5q-67 29 -124.5 72.5
t-100 98t-66.5 118t-24 133.5q0 49 19 92t51 75.5t75.5 51.5t92.5 19t92 -19t75.5 -51.5t51.5 -76t19 -91.5q0 -63 -32 -117.5t-87 -92.5q37 -20 88 -34.5t114 -14.5q71 0 134.5 16t111 45.5t75 70t27.5 88.5q0 7 -3 17t-8.5 19t-12.5 16.5t-16 9.5h-132q-47 0 -93.5 14
t-82.5 55l-136 154l130 130l94 -108q16 -18 37.5 -24t46.5 -6q36 0 85.5 26.5t93.5 80.5l174 218zM330 761q0 17 -12.5 29.5t-29.5 12.5q-26 0 -39.5 -15.5t-13.5 -36.5q0 -23 11 -42.5t22 -31.5q32 7 47 31t15 53zM657 253q0 20 -15 35t-35 15t-35 -15t-15 -35
q0 -21 15 -35.5t35 -14.5t35 14.5t15 35.5z" />
    <glyph glyph-name="va" unicode="&#xc35;" horiz-adv-x="1414" 
d="M1316 483q0 -111 -34 -203.5t-96.5 -158.5t-150.5 -103t-196 -37q-50 0 -88 5t-72 17t-66.5 33.5t-70.5 54.5q-23 -26 -45.5 -43.5t-47.5 -28t-53 -15t-61 -4.5q-59 0 -110.5 22.5t-90 61t-61 90.5t-22.5 111q0 58 22.5 109.5t61.5 90.5t90.5 61.5t109.5 22.5
q57 0 106 -21.5t85 -60.5q28 -31 45 -62t45 -87q31 -49 56.5 -67t65 -28t101.5 -10q57 0 105 19t83 52t55 79t20 100q0 63 -22 117.5t-60.5 95.5t-90.5 64.5t-113 23.5h-299q-45 0 -90 15t-82 56l-136 152l131 130l95 -108q15 -17 37 -23.5t45 -6.5q36 0 85.5 26.5
t93.5 80.5l174 218l150 -133q-94 -118 -161 -194q97 -8 181 -52.5t145 -114.5t96 -159.5t35 -187.5zM335 215q16 0 32 5.5t29.5 15t22.5 22.5t12 29q-14 34 -40.5 51t-55.5 17q-13 0 -25.5 -5.5t-22.5 -15.5t-16 -22.5t-6 -26.5q0 -30 20.5 -50t49.5 -20z" />
    <glyph glyph-name="sha" unicode="&#xc36;" horiz-adv-x="1128" 
d="M1044 724q0 -161 -143 -241q36 -75 36 -163q0 -70 -24.5 -131.5t-67.5 -107.5t-101.5 -73t-126.5 -27q-70 0 -128.5 24.5t-101 67t-66.5 101t-24 127.5q0 64 28.5 118.5t86.5 96.5q-134 -21 -224 -138l-155 156q172 190 421 190q177 0 307 -81q36 14 52.5 34t16.5 47
q0 60 -108 60h-334q-45 0 -90 15t-82 56l-136 152l131 130l95 -108q15 -17 37 -23.5t45 -6.5q36 0 85.5 26t93.5 81l173 218l151 -133q-90 -116 -159 -192q69 -2 126 -22t98.5 -55.5t64.5 -86t23 -111.5zM722 320q0 60 -27 94q-46 -12 -75.5 -22t-43.5 -17v1
q-65 -32 -65 -84q0 -77 106 -77q21 0 40.5 8t33.5 22.5t22.5 33.5t8.5 41z" />
    <glyph glyph-name="ssa" unicode="&#xc37;" horiz-adv-x="1414" 
d="M826 1168l-220 -261q-34 -40 -70 -67.5t-72 -45t-71.5 -25t-68.5 -7.5q-59 0 -107.5 26t-86.5 62t-65 74t-44 62l140 128q22 -29 43.5 -54t42 -44t40 -29.5t37.5 -10.5q37 0 84 24.5t94 83.5l175 218zM802 999q127 0 227 -35.5t168.5 -101t104.5 -158.5t36 -208
q0 -43 -7.5 -85t-17 -82t-17.5 -79t-9 -76q0 -27 7.5 -55.5t24 -54.5t43.5 -47.5t65 -33.5l-81 -195q-61 25 -106 55.5t-76.5 64.5t-49 69.5t-22.5 70.5q-45 -31 -106.5 -49t-144.5 -18q-55 0 -98.5 6.5t-79.5 19t-67.5 30.5t-62.5 42q-38 -42 -87 -60.5t-109 -18.5
q-59 0 -110.5 22.5t-90.5 61.5t-61.5 90.5t-22.5 110.5q0 58 22.5 109.5t61.5 90.5t91 61.5t110 22.5q64 0 112 -21t83 -56t57.5 -80.5t36.5 -94.5q48 -84 215 -84q57 0 108.5 20.5t90 56t61 83.5t22.5 104q0 64 -20.5 117t-61 91t-100.5 58.5t-139 20.5v215zM337 215
q33 0 61 20t35 52q-14 34 -40.5 51t-55.5 17q-28 0 -49 -20.5t-21 -49.5q0 -30 20.5 -50t49.5 -20z" />
    <glyph glyph-name="sa" unicode="&#xc38;" horiz-adv-x="1414" 
d="M1315 429q0 -98 -27.5 -180t-79 -141.5t-125 -93t-165.5 -33.5q-88 0 -147.5 21.5t-101 57.5t-69.5 83t-53 99q-14 25 -28.5 51.5t-33.5 48t-44.5 35t-59.5 13.5q-33 0 -54.5 -11.5t-34 -29t-18 -36.5t-5.5 -34q0 -20 8 -41t23.5 -40.5t39 -36.5t53.5 -29l-130 -181
q-53 31 -92 73t-65 87.5t-39 89.5t-13 78q0 56 16.5 115.5t54.5 108t101 80t155 31.5q77 0 134 -23t98 -58t68 -75.5t43 -74.5q15 -33 33 -62t41 -50.5t52.5 -34t67.5 -12.5q86 0 134 49.5t48 155.5q0 90 -22.5 156.5t-63.5 110.5t-98 65.5t-125 21.5v217q94 0 170 -22
t134 -61t99.5 -93t68.5 -117.5t39.5 -134t12.5 -143.5zM833 1168q-75 -96 -130 -161t-90 -100q-151 -145 -282 -145q-60 0 -107.5 25.5t-84.5 61.5t-64.5 74t-47.5 63l140 128q7 -9 24 -31.5t39.5 -46.5t48.5 -42t52 -18q74 0 178 108q17 18 60.5 71t114.5 147z" />
    <glyph glyph-name="ha" unicode="&#xc39;" horiz-adv-x="2018" 
d="M1956 724q0 -57 -21 -106.5t-57 -87t-83.5 -59t-101.5 -21.5q-58 0 -106 22t-83 60.5t-54.5 91t-19.5 113.5q0 11 2 23l4 24h-209q48 -64 73 -143.5t25 -175.5q0 -111 -32.5 -200.5t-94 -152.5t-150 -97t-200.5 -34q-49 0 -86.5 4.5t-71 16.5t-66.5 33.5t-73 56.5
q-23 -26 -45.5 -44t-47.5 -28.5t-53 -15t-61 -4.5q-59 0 -111 22.5t-90.5 61t-61 90.5t-22.5 111t22.5 110.5t61 90t90.5 61t111 22.5q57 0 103 -21t84 -64q25 -28 42.5 -57.5t49.5 -85.5q37 -49 64 -67.5t65.5 -29.5t95.5 -11q54 0 102 17.5t83.5 48.5t56 73.5t20.5 92.5
q0 159 -85.5 239t-243.5 80v215h912q55 0 103 -22t83.5 -60t56 -88t20.5 -105zM843 1168q-148 -192 -220 -261q-151 -145 -282 -145q-93 0 -171 70q-29 26 -132 153l131 129q45 -54 67.5 -80.5t23.5 -27.5q34 -30 81 -30q74 0 178 108q15 16 58.5 70.5t115.5 147.5z
M1774 724q0 33 -24 57t-57 24q-16 0 -30.5 -6.5t-26 -17.5t-18 -26t-6.5 -31t6.5 -30.5t18 -26t26 -18t30.5 -6.5t31 6.5t26 18t17.5 26t6.5 30.5zM344 215q16 0 32 5.5t29 15t22.5 22.5t12.5 29q-14 34 -40.5 51t-55.5 17q-27 0 -48.5 -20.5t-21.5 -49.5q0 -30 20 -50
t50 -20z" />
    <glyph glyph-name="matraAa1" unicode="&#xc3e;" horiz-adv-x="620" 
d="M543 724q0 -54 -20.5 -103.5t-55.5 -87.5t-83.5 -60.5t-103.5 -22.5q-58 0 -106 22t-83 60.5t-54.5 91t-19.5 113.5q0 10 1 21.5t5 25.5h-1118v215h1375q55 0 103 -22.5t83.5 -60.5t56 -87.5t20.5 -104.5zM361 724q0 16 -6.5 31t-18 26t-26 17.5t-30.5 6.5q-33 0 -57 -24
t-24 -57q0 -16 6.5 -30.5t17.5 -26t25.5 -18t31.5 -6.5q16 0 30.5 6.5t26 18t18 26t6.5 30.5z" />
    <glyph glyph-name="matraI1" unicode="&#xc3f;" 
d="M-720 1165q0 -83 -27 -148t-72.5 -110t-106 -69t-126.5 -24q-88 0 -171.5 37t-164.5 113l130 131q105 -96 206 -96q25 0 49 9t43.5 25.5t32.5 40.5t17 54q-55 -55 -142 -55q-44 0 -83 16.5t-67.5 45t-45 67.5t-16.5 83q0 43 18 81.5t48 67t69.5 45.5t83.5 17
q66 0 125.5 -27.5t103.5 -73t70 -105.5t26 -125zM-968 1296q-18 10 -35.5 16t-43.5 6q-15 0 -29.5 -11.5t-14.5 -26.5t13 -25.5t29 -10.5q26 0 47.5 15.5t33.5 36.5z" />
    <glyph glyph-name="matraIi1" unicode="&#xc40;" 
d="M-720 1165q0 -83 -27 -148t-72.5 -110t-106 -69t-126.5 -24q-88 0 -171.5 37t-164.5 113l130 131q105 -96 206 -96q25 0 49 9t43.5 25.5t32.5 40.5t17 54q-55 -55 -142 -55q-44 0 -83 16.5t-67.5 45t-45 67.5t-16.5 83q0 34 11 65t31 57q-8 9 -15.5 24.5t-13.5 33
t-9.5 35.5t-3.5 33q0 45 18.5 83.5t49.5 67t71 45t83 16.5q47 0 90 -18t76 -48t53 -70t21 -85h-186q0 28 -14.5 41t-38.5 13q-11 0 -26.5 -11t-15.5 -30q0 -13 9 -27t22 -14h7q66 0 125.5 -27.5t103.5 -73t70 -105.5t26 -125zM-968 1296q-18 10 -35.5 16t-43.5 6
q-15 0 -29.5 -11.5t-14.5 -26.5t13 -25.5t29 -10.5q26 0 47.5 15.5t33.5 36.5z" />
    <glyph glyph-name="matraU1" unicode="&#xc41;" horiz-adv-x="710" 
d="M606 483q0 -108 -36 -200t-100 -159t-151.5 -105t-189.5 -38q-93 0 -173 30t-139 86.5t-92.5 137t-33.5 182.5h207q0 -50 18.5 -85t50.5 -57t73.5 -32t88.5 -10q57 0 105.5 18t83 51t54 79t19.5 102q0 63 -20.5 117.5t-61 95.5t-99.5 64.5t-137 23.5v215q122 0 220.5 -42
t168 -112.5t107 -164.5t37.5 -197z" />
    <glyph glyph-name="matraUu1" unicode="&#xc42;" horiz-adv-x="1313" 
d="M1209 724q0 -57 -21.5 -107t-58 -87t-84.5 -58t-100 -21q-60 0 -108.5 24t-82.5 64t-52.5 91.5t-18.5 106.5q0 11 2 23t5 24h-176q45 -66 68.5 -141t23.5 -160q0 -108 -35 -200t-97.5 -159t-148 -105t-187.5 -38q-91 0 -170.5 32.5t-138 89.5t-92.5 133.5t-34 165.5h174
q5 -41 30 -72.5t61.5 -53t81 -32.5t88.5 -11q57 0 104 18.5t80 51.5t51 79t18 101q0 61 -19.5 115.5t-59.5 96t-99.5 65.5t-139.5 24v215h873q55 0 103.5 -22.5t83.5 -60t55.5 -87.5t20.5 -105zM1028 725q0 16 -7 30.5t-18 26t-26 18t-31 6.5t-30.5 -6.5t-26 -17.5t-18 -26
t-6.5 -31q0 -17 6.5 -31.5t18 -25.5t26 -17.5t30.5 -6.5t31 6.5t26.5 18t18 26t6.5 30.5z" />
    <glyph glyph-name="matraRi" unicode="&#xc43;" horiz-adv-x="642" 
d="M589 -72q0 -87 -30.5 -165t-84 -137t-125 -93.5t-152.5 -34.5q-65 0 -123 23.5t-102.5 64.5t-70.5 96t-26 119q0 47 18 88.5t49 73t72.5 49.5t89.5 18t89.5 -18t73 -49.5t49.5 -73t18 -89.5q0 -20 -3 -38t-8 -35q42 42 62 96t20 105q0 358 -419 680l125 139
q478 -403 478 -819zM149 -200q0 19 -13.5 32t-31.5 13t-31 -13t-13 -32q0 -69 53 -90q17 13 26.5 36t9.5 54zM0 1000z" />
    <glyph glyph-name="matraRri" unicode="&#xc44;" horiz-adv-x="1108" 
d="M1024 521q0 -55 -20.5 -105t-55.5 -87.5t-83.5 -59.5t-103.5 -22q-56 0 -104.5 21.5t-83.5 59.5t-55 90.5t-20 115.5q0 22 7 46h-208q300 -314 300 -652q0 -87 -31 -165.5t-84 -137t-125 -93t-153 -34.5q-63 0 -121.5 23t-102.5 64t-70.5 96t-26.5 120q0 48 18 89.5
t49 72.5t72.5 49t89.5 18q47 0 89 -18t73 -49.5t49 -73.5t18 -89q0 -41 -11 -73q42 42 62 96t20 105q0 358 -404 669v198h753q56 0 104 -22.5t83.5 -60t55.5 -87t20 -104.5zM843 522q0 15 -6.5 30t-18 26t-26.5 18t-31 7t-30.5 -6.5t-26 -18t-18 -26t-6.5 -30.5
q0 -34 24.5 -57.5t56.5 -23.5q16 0 31 6.5t26 18t18 26t7 30.5zM159 -199q0 20 -14 34.5t-34 14.5t-34 -14.5t-14 -34.5q0 -74 56 -97q19 14 29.5 39t10.5 58zM0 1000z" />
    <glyph glyph-name="matraE1" unicode="&#xc46;" 
d="M-220 1040q0 -46 -17.5 -91t-48 -80.5t-73 -57.5t-92.5 -22h-265v210h265q23 0 34.5 12.5t11.5 28.5q0 17 -11.5 29.5t-34.5 12.5h-710v185h710q51 0 93 -17.5t73 -48.5t48 -72t17 -89z" />
    <glyph glyph-name="matraEe1" unicode="&#xc47;" 
d="M-220 1040q0 -47 -16.5 -92t-45 -80t-68 -57t-85.5 -22h-281v210h272q25 0 32.5 14.5t7.5 26.5q0 17 -7.5 29.5t-32.5 12.5h-717v185h468q-1 8 -4.5 23.5t-3.5 23.5q0 47 17 87t46.5 69.5t68.5 46t84 16.5h225v-185h-225q-16 0 -24 -13t-8 -29q0 -15 6 -27t11 -12h65
q45 0 84 -17.5t68.5 -48t46 -72t16.5 -89.5z" />
    <glyph glyph-name="matraAi1" unicode="&#xc48;" 
d="M-220 1040q0 -44 -18 -84.5t-49 -72t-72 -50.5t-87 -19h-270v185h270q16 0 28.5 12.5t12.5 28.5q0 17 -12.5 29.5t-28.5 12.5h-715v185h715q44 0 84.5 -18.5t72 -50t50.5 -72.5t19 -86zM-18 -500h-1116q-47 0 -88 18t-71.5 48.5t-48.5 71.5t-18 88q0 46 17.5 86.5
t47.5 71.5t71.5 49t89.5 18q45 0 85.5 -17.5t71.5 -48.5t49.5 -72t18.5 -87q0 -11 -0.5 -20.5t-2.5 -20.5h894v-185zM-1082 -274q0 22 -14.5 36.5t-36.5 14.5t-36 -14.5t-14 -36.5t14 -36t36 -14t36.5 14t14.5 36z" />
    <glyph glyph-name="matraO1" unicode="&#xc4a;" 
d="M113 1235q0 -53 -20 -99.5t-55 -81.5t-81.5 -55t-99.5 -20q-54 0 -100.5 20.5t-81.5 55.5t-55 81.5t-20 98.5q0 8 0.5 14.5t1.5 14.5q-35 -13 -50 -55t-15 -92h-185q-1 37 -8.5 70t-24.5 58t-44 39.5t-66 14.5q-73 0 -109 -45t-36 -114q0 -26 7.5 -51.5t25 -45.5t45 -32
t67.5 -12v-215q-73 2 -133.5 32t-104 79.5t-68 113t-24.5 131.5q0 71 26 134t70.5 109.5t104.5 73.5t129 27q76 0 134.5 -30t107.5 -87q30 25 68.5 48t84 40.5t97 27.5t108.5 10q65 0 121 -18t96.5 -51.5t63.5 -81t23 -107.5zM-72 1235q0 30 -21 51t-50 21q-30 0 -51 -21
t-21 -51q0 -14 6 -27t15.5 -23t22.5 -16t28 -6q29 0 50 21.5t21 50.5z" />
    <glyph glyph-name="matraOo1" unicode="&#xc4b;" 
d="M113 1235q0 -53 -20 -99.5t-55 -81.5t-81.5 -55t-99.5 -20q-54 0 -100.5 20.5t-81.5 55.5t-55 81.5t-20 98.5q0 8 0.5 14.5t1.5 14.5q-35 -13 -50 -55t-15 -92h-185q-1 37 -8.5 70t-24.5 58t-44 39.5t-66 14.5q-73 0 -109 -45t-36 -114q0 -26 7.5 -51.5t25 -45.5t45 -32
t67.5 -12v-215q-73 2 -133.5 32t-104 79.5t-68 113t-24.5 131.5q0 71 26 134t70.5 109.5t104.5 73.5t129 27q76 0 134.5 -30t107.5 -87q35 29 79.5 54.5t98.5 42.5q-5 17 -8.5 33t-3.5 30q0 45 18.5 83.5t49.5 67t71 45t83 16.5q47 0 90 -18t76 -48t53 -70t21 -85h-186
q0 28 -14.5 41t-38.5 13q-11 0 -26.5 -11t-15.5 -30q0 -11 6 -22t15 -16q63 -2 117 -20.5t93.5 -51.5t61.5 -80.5t22 -105.5zM-72 1235q0 30 -21 51t-50 21q-30 0 -51 -21t-21 -51q0 -14 6 -27t15.5 -23t22.5 -16t28 -6q29 0 50 21.5t21 50.5z" />
    <glyph glyph-name="matraAu1" unicode="&#xc4c;" horiz-adv-x="504" 
d="M437 1001q0 -53 -20.5 -99.5t-55.5 -81.5t-81.5 -55.5t-99.5 -20.5t-99.5 20t-81.5 55t-55.5 81.5t-20.5 100.5q0 38 10 72h-76q2 -9 2 -21v-17q0 -44 -17 -84t-46.5 -70.5t-69 -48.5t-84.5 -18h-341v185h341q14 0 23.5 11.5t9.5 25.5q0 11 -11 24t-22 13h-458v185h996
q52 0 99 -20.5t82 -56t55.5 -82t20.5 -98.5zM252 1001q0 14 -6 27t-15.5 23t-22.5 16t-28 6q-28 0 -50 -22t-22 -50q0 -15 6 -28t16 -22.5t23 -15.5t27 -6q30 0 51 21t21 51z" />
    <glyph glyph-name="halant" unicode="&#xc4d;" 
d="M21 1345h-468q-24 0 -35.5 -13t-11.5 -30q0 -15 11.5 -28t35.5 -13h255v-185h-260q-30 0 -42 -13.5t-12 -27.5t14.5 -25t49.5 -11h40v-215h-40q-57 0 -103 19.5t-78 53.5t-49.5 80.5t-17.5 100.5q0 21 5.5 43t14.5 41.5t20.5 35.5t23.5 26q-23 23 -36.5 56t-13.5 62
q0 44 17 85t47 72.5t72 50.5t93 19h468v-184z" />
    <glyph glyph-name="lengthMark" unicode="&#xc55;" 
d="M-131 1581q0 14 -5.5 24.5t-14 17t-17.5 10t-15 3.5q-13 0 -26.5 -11t-13.5 -32q0 -20 17.5 -33t46.5 -13l6 -184q-62 0 -109.5 16.5t-79.5 46t-48.5 70t-16.5 88.5q0 49 18.5 90t49 70.5t70.5 45.5t83 16t83.5 -12t72.5 -38.5t51.5 -69.5t19.5 -105h-172z" />
    <glyph glyph-name="aiLengthMark" unicode="&#xc56;" 
d="M-18 -580h-1116q-47 0 -88 18t-71.5 48.5t-48.5 71.5t-18 88q0 46 17.5 86.5t47.5 71.5t71.5 49t89.5 18q45 0 85.5 -17.5t71.5 -48.5t49.5 -72t18.5 -87q0 -11 -0.5 -20.5t-2.5 -20.5h894v-185zM-1085 -355q0 22 -14.5 36.5t-36.5 14.5t-36 -14.5t-14 -36.5t14 -36
t36 -14t36.5 14t14.5 36z" />
    <glyph glyph-name="vowelRri" unicode="&#xc60;" horiz-adv-x="3200" 
d="M3053 724q0 -56 -21 -105.5t-57 -87t-83.5 -59.5t-101.5 -22q-57 0 -105.5 22t-84 60.5t-55 91t-19.5 113.5q0 11 1 22.5t5 24.5h-187q110 -140 110 -323q0 -104 -30.5 -192t-85 -152t-129.5 -100t-165 -36q-79 0 -149.5 34.5t-124.5 94.5q-60 -63 -130 -96t-150 -33
q-162 0 -271 125q-116 -125 -274 -125q-152 0 -260 117q-96 -117 -254 -117q-75 0 -139 28t-111.5 76.5t-74.5 113.5t-27 139q0 78 23.5 131.5t64.5 90.5t95.5 62.5t116.5 47.5q76 27 76 54q0 60 -59 60q-24 0 -46 -22.5t-23 -59.5h-214q0 73 23.5 129t63 93t90.5 56t106 19
q54 0 103.5 -22.5t87 -60t60 -87.5t22.5 -105q0 -67 -26 -113.5t-68 -79t-95.5 -54t-108.5 -37.5q-77 -36 -77 -102q0 -105 137 -105q32 0 59 5.5t46 21.5t29.5 45.5t10.5 76.5h215q0 -79 38 -114t116 -35q185 0 185 228q0 73 -22.5 132.5t-66 102t-107.5 65.5t-147 23v215
q126 0 229 -41t176 -113.5t113 -171t40 -212.5q0 -10 -1.5 -25.5t-3 -31.5t-3 -29.5t-1.5 -19.5q0 -122 154 -122q94 0 144.5 60t50.5 168q0 74 -20.5 133.5t-61.5 101.5t-104 65t-148 23v215q122 0 223 -41t173 -113.5t112 -171t40 -212.5q0 -9 -1.5 -24.5t-3 -31.5t-3 -29
t-1.5 -18q0 -125 154 -125q95 0 145 60.5t50 167.5q0 73 -21 133t-61 102t-98.5 65t-133.5 23v215h864q55 0 103 -22.5t83.5 -60.5t56 -87.5t20.5 -104.5zM2871 724q0 16 -7 31t-18 26t-25.5 17.5t-30.5 6.5q-32 0 -57 -22t-25 -59q0 -16 6.5 -30.5t18 -26t26 -18t31.5 -6.5
q16 0 30.5 6.5t26 17.5t18 25.5t6.5 31.5z" />
    <glyph glyph-name="vowelLRri" unicode="&#xc61;" horiz-adv-x="2176" 
d="M2079 724q0 -54 -20.5 -104t-55.5 -87.5t-83.5 -60t-103.5 -22.5q-58 0 -106 22t-83 60.5t-54.5 91t-19.5 113.5q0 11 1 22t5 25h-115q19 -61 19 -130q0 -68 -16 -133t-44.5 -125.5t-68.5 -116t-87 -103.5q-49 -44 -106 -80t-119 -61.5t-128 -39.5t-133 -14
q-113 0 -207 24.5t-162 70t-106 110t-38 143.5q0 59 22.5 107t64 82t99.5 52.5t130 18.5q20 0 56 -4t74 -8.5t72 -8t50 -3.5q48 0 77 32t29 81q0 21 -9 40t-24 34t-34 23.5t-39 8.5q-22 0 -41.5 -6.5t-34.5 -22t-24 -42.5t-9 -68h-214q0 40 -8.5 67t-23.5 43t-35 22.5
t-43 6.5q-21 0 -40.5 -8.5t-33.5 -23.5t-22.5 -34t-8.5 -40q0 -40 31 -84q-26 -26 -66 -61.5t-87 -78.5q-93 112 -93 224q0 64 26 122.5t69.5 102.5t101.5 70t123 26q121 0 217 -91q92 91 216 91q67 0 125.5 -26t102 -70.5t68.5 -102.5t25 -122q0 -65 -25.5 -124t-69 -104.5
t-102 -72.5t-124.5 -27q-20 0 -55.5 3.5t-74 8t-72.5 8.5t-50 4q-101 0 -101 -45q0 -27 23 -48.5t63.5 -36t95 -22t116.5 -7.5q107 0 197 30t154.5 86.5t100.5 138t36 184.5q0 24 -2.5 47.5t-10.5 41.5t-24.5 29.5t-43.5 11.5v215h648q55 0 103 -22.5t83.5 -60.5t56 -88
t20.5 -104zM1897 724q0 16 -6.5 31t-18 26t-26 17.5t-30.5 6.5q-33 0 -57 -24t-24 -57q0 -16 6.5 -30.5t17.5 -26t25.5 -18t31.5 -6.5q16 0 30.5 6.5t26 18t18 26t6.5 30.5z" />
    <glyph glyph-name="zero" unicode="&#xc66;" horiz-adv-x="1140" 
d="M1044 499q0 -105 -38.5 -199t-106 -165t-158.5 -112.5t-196 -41.5q-106 0 -197 41t-158 111.5t-105.5 164.5t-38.5 201q0 103 39.5 194.5t107.5 159t159 107t193 39.5q103 0 194 -39.5t158.5 -107.5t107 -159t39.5 -194zM830 499q0 58 -22.5 110t-61.5 91t-91 61.5
t-110 22.5q-57 0 -108.5 -22.5t-90.5 -61.5t-62 -91t-23 -110q0 -57 22.5 -105.5t61 -84t90 -56t110.5 -20.5q58 0 110 20t91 55.5t61.5 84.5t22.5 106z" />
    <glyph glyph-name="one" unicode="&#xc67;" horiz-adv-x="1182" 
d="M1082 471q0 -285 -197 -482l-171 137q77 78 115.5 163t38.5 182q0 61 -24.5 117.5t-65.5 100t-96.5 69.5t-116.5 26q-62 0 -117.5 -26t-97 -69.5t-65.5 -100t-24 -117.5q0 -97 38.5 -182t115.5 -163l-171 -137q-197 197 -197 482q0 109 40.5 205t110.5 168t164.5 113.5
t202.5 41.5q107 0 201.5 -41.5t164.5 -113.5t110.5 -168t40.5 -205z" />
    <glyph glyph-name="two" unicode="&#xc68;" horiz-adv-x="1350" 
d="M1250 499q0 -105 -38 -199.5t-105 -165t-159 -112t-199 -41.5h-700v252h700q64 0 116.5 19t90 54t58.5 84t21 109q0 92 -48 155q-15 -39 -39.5 -70.5t-55.5 -53t-67.5 -33.5t-74.5 -12q-53 0 -99.5 20t-81 54.5t-55 81.5t-20.5 101t20.5 101t55 81.5t81 54.5t99.5 20
q103 0 194 -41t159 -110t107.5 -159.5t39.5 -189.5zM750 692q69 0 88 82q-36 18 -88 18q-20 0 -35 -15t-15 -35t15 -35t35 -15z" />
    <glyph glyph-name="three" unicode="&#xc69;" horiz-adv-x="932" 
d="M859 313q0 -76 -30 -137t-84 -104.5t-129 -67t-165 -23.5q-89 0 -163.5 21.5t-129 65t-85 110.5t-30.5 157h214q0 -56 48.5 -79t145.5 -23q194 0 194 80q0 78 -72 78h-218v215h218q33 0 52.5 22.5t19.5 57.5q0 45 -52 71.5t-142 26.5q-41 0 -76 -6t-61.5 -21t-41.5 -40
t-15 -64h-214q0 86 30 151t84 108.5t129 65t165 21.5q92 0 167 -22.5t128.5 -64t83 -99t29.5 -127.5q0 -122 -61 -186q28 -31 44.5 -79t16.5 -108z" />
    <glyph glyph-name="four" unicode="&#xc6a;" horiz-adv-x="1256" 
d="M1166 761q0 -68 -23.5 -133t-65.5 -121.5t-100 -100t-127 -67.5q14 -35 14 -82q0 -62 -19 -112.5t-53.5 -87t-81.5 -56.5t-103 -20q-59 0 -106 19.5t-81 55.5t-52 87t-18 114q0 23 3.5 43.5t9.5 38.5q-68 24 -125.5 67.5t-99.5 100t-66 121.5t-24 133q0 48 17.5 91
t51.5 76t84.5 52t117.5 19v-196q-31 0 -53 -12.5t-22 -29.5q0 -55 32 -101t84 -79t118 -51t134 -18q69 0 133.5 18.5t114.5 52t80 79t30 99.5q0 17 -22 29.5t-53 12.5v196q66 0 117 -19.5t85 -52t51.5 -75.5t17.5 -91zM659 255q0 22 -14.5 36.5t-36.5 14.5t-36 -14.5
t-14 -36.5t14 -36t36 -14t36.5 14t14.5 36z" />
    <glyph glyph-name="five" unicode="&#xc6b;" horiz-adv-x="1372" 
d="M1296 295q0 -150 -159 -307l-158 136q52 51 77 93.5t25 77.5q0 20 -9.5 45t-29.5 45h-1q-1 1 -1 3q-15 -93 -60.5 -168t-114.5 -128t-157.5 -82t-188.5 -29q-77 0 -137 9t-115 33t-109.5 66.5t-120.5 108.5l137 171q141 -142 345 -142q70 0 128 19t99.5 54t64.5 85.5
t23 113.5q0 59 -25.5 111t-69 90.5t-100.5 61t-120 22.5q-191 0 -345 -154l-137 171q198 198 482 198q96 0 183 -29.5t157 -82t117 -124t62 -156.5q26 23 34.5 46.5t8.5 51.5q0 35 -35.5 77.5t-87.5 93.5l179 135q159 -159 159 -306q0 -31 -7 -59.5t-18 -54.5t-25 -49
t-29 -43q15 -20 29 -43t25 -48.5t18 -53.5t7 -59z" />
    <glyph glyph-name="six" unicode="&#xc6c;" horiz-adv-x="1200" 
d="M1113 -19h-765q-61 0 -115.5 26t-96 70t-65.5 102t-24 122q0 63 17.5 111.5t57.5 85.5q-75 84 -75 200q0 63 24 118t65 95.5t95.5 64t116.5 23.5h206v-215h-206q-37 0 -61.5 -24.5t-24.5 -61.5q0 -39 24 -65.5t62 -26.5h316v-215h-316q-18 0 -33.5 -7.5t-27.5 -19.5
t-18.5 -28.5t-6.5 -34.5q0 -14 7.5 -26.5t19.5 -21.5t27.5 -14.5t31.5 -5.5h765v-252z" />
    <glyph glyph-name="seven" unicode="&#xc6d;" horiz-adv-x="1020" 
d="M942 347q0 -93 -32 -162t-91 -114t-142 -67.5t-184 -22.5q-107 0 -190 22t-141 64.5t-88 105t-30 142.5q0 86 29.5 139.5t77.5 85t109.5 44.5t189.5 22q123 1 171 6.5t77.5 21t29.5 50.5q0 100 -235 100q-49 0 -91.5 -6t-74 -21t-50 -40.5t-18.5 -65.5h-215
q0 87 32.5 152.5t91.5 109t141.5 65t183.5 21.5q103 0 186 -21.5t141.5 -62.5t90 -99.5t31.5 -131.5q0 -76 -23.5 -131t-76.5 -91t-139 -53t-210 -17q-69 0 -114.5 -4.5t-72 -14t-37 -24t-10.5 -34.5q0 -82 227 -82q123 0 182 28.5t59 85.5h215z" />
    <glyph glyph-name="eight" unicode="&#xc6e;" horiz-adv-x="1292" 
d="M1200 784h-243q21 -30 38 -64.5t28.5 -71.5t17.5 -75t6 -74q0 -107 -38.5 -201.5t-105.5 -165t-158 -111t-197 -40.5q-108 0 -199.5 40t-158 110t-104 164.5t-37.5 203.5q0 206 169 377l149 -156q-104 -104 -104 -221q0 -58 22 -107t60.5 -84t90.5 -55t112 -20t112 20
t90.5 55t60.5 84t22 107q0 59 -21.5 111t-62 90.5t-100 61t-134.5 22.5v215h685v-215z" />
    <glyph glyph-name="nine" unicode="&#xc6f;" horiz-adv-x="1170" 
d="M1103 784h-756q-17 0 -32.5 -7.5t-27 -19.5t-18.5 -27.5t-7 -31.5q0 -17 6.5 -33.5t18 -29t27 -20t33.5 -7.5h317v-215h-317q-38 0 -61.5 -26.5t-23.5 -65.5q0 -32 25 -50t60 -18h207v-252h-207q-60 0 -114.5 26t-96 70t-65.5 102t-24 122q0 113 75 199q-41 38 -58 86
t-17 112q0 63 23.5 118t64 95.5t95 64t117.5 23.5h756v-215z" />
    <glyph glyph-name="matraAa2" horiz-adv-x="580" 
d="M502 724q0 -54 -20.5 -104t-55.5 -87.5t-83.5 -60t-103.5 -22.5q-59 0 -107.5 21t-83 59t-53.5 90.5t-19 116.5q0 20 6 47h-1236v215h1493q55 0 103 -22t83.5 -60t56 -88t20.5 -105zM320 724q0 16 -6.5 31t-18 26t-26 17.5t-30.5 6.5t-30.5 -6.5t-26 -17.5t-18 -26
t-6.5 -31t6.5 -30.5t18 -26t26 -18t30.5 -6.5t30.5 6.5t26 18t18 26t6.5 30.5z" />
    <glyph glyph-name="matraAa3" horiz-adv-x="610" 
d="M543 724q0 -56 -21 -105.5t-56.5 -87t-83.5 -59.5t-102 -22q-57 0 -105.5 22t-83.5 60t-54.5 90.5t-19.5 114.5q0 10 1 21.5t5 25.5h-580v215h837q55 0 103 -22.5t83.5 -60.5t56 -87.5t20.5 -104.5zM361 724q0 16 -6.5 31t-18 26t-26 17.5t-30.5 6.5q-33 0 -57 -24
t-24 -57q0 -16 6.5 -30.5t17.5 -26t25.5 -18t31.5 -6.5q16 0 30.5 6.5t26 18t18 26t6.5 30.5z" />
    <glyph glyph-name="matraAa4" horiz-adv-x="600" 
d="M532 724q0 -54 -20.5 -104t-55.5 -87.5t-83.5 -60t-103.5 -22.5q-58 0 -106 22t-83 60.5t-54.5 91t-19.5 113.5q0 20 6 47h-636v215h893q55 0 103 -22t83.5 -60t56 -88t20.5 -105zM350 724q0 33 -24 57t-57 24q-16 0 -30.5 -6.5t-26 -17.5t-18 -26t-6.5 -31t6.5 -30.5
t18 -26t26 -18t30.5 -6.5t31 6.5t26 18t17.5 26t6.5 30.5z" />
    <glyph glyph-name="matraAa5" horiz-adv-x="448" 
d="M382 885q0 -54 -20.5 -104t-55.5 -87.5t-83.5 -60t-103.5 -22.5q-58 0 -106 22t-83 60.5t-54.5 91t-19.5 113.5q0 20 6 47h-636v215h893q55 0 103 -22t83.5 -60t56 -88t20.5 -105zM200 885q0 33 -24 57t-57 24q-16 0 -30.5 -6.5t-26 -17.5t-18 -26t-6.5 -31t6.5 -30.5
t18 -26t26 -18t30.5 -6.5t31 6.5t26 18t17.5 26t6.5 30.5z" />
    <glyph glyph-name="matraAa6" horiz-adv-x="608" 
d="M542 874q0 -56 -20.5 -106t-56.5 -87.5t-84 -59.5t-102 -22q-60 0 -109 21.5t-83 60t-52.5 91t-18.5 115.5q0 19 6 46h-515v215h772q55 0 103.5 -22.5t83.5 -60t55.5 -87t20.5 -104.5zM360 874q0 16 -7 30.5t-18 26t-25.5 18t-30.5 6.5t-30.5 -6.5t-26 -18t-18 -26
t-6.5 -30.5q0 -17 6.5 -32t18 -26t26 -17.5t30.5 -6.5q15 0 30 6.5t26 17.5t18 26t7 32z" />
    <glyph glyph-name="matraAa7" horiz-adv-x="540" 
d="M476 716q0 -56 -20.5 -106t-56.5 -87.5t-84 -59.5t-102 -22q-60 0 -109 21.5t-83 60t-52.5 91t-18.5 115.5q0 19 6 46h-515v215h772q55 0 103.5 -22.5t83.5 -60t55.5 -87t20.5 -104.5zM294 716q0 16 -7 30.5t-18 26t-25.5 18t-30.5 6.5t-30.5 -6.5t-26 -18t-18 -26
t-6.5 -30.5q0 -17 6.5 -32t18 -26t26 -17.5t30.5 -6.5q15 0 30 6.5t26 17.5t18 26t7 32z" />
    <glyph glyph-name="matraAa8" horiz-adv-x="630" 
d="M562 724q0 -57 -21 -106.5t-57 -87t-83.5 -59t-101.5 -21.5q-57 0 -105 21.5t-83 59.5t-55 91t-20 115q0 20 7 47h-572v215h828q55 0 103 -22t83.5 -60t56 -88t20.5 -105zM380 724q0 33 -24 57t-57 24q-16 0 -30.5 -6.5t-26 -17.5t-18 -26t-6.5 -31t6.5 -30.5t18 -26
t26 -18t30.5 -6.5t31 6.5t26 18t17.5 26t6.5 30.5z" />
    <glyph glyph-name="matraAa9" horiz-adv-x="398" 
d="M328 724q0 -57 -21 -106.5t-57 -87t-83.5 -59t-101.5 -21.5q-57 0 -105 22t-83 59.5t-55 87.5t-20 105q0 18 3 36.5t8 34.5h-1122v204h1374q55 0 103 -22t83.5 -60t56 -88t20.5 -105zM146 724q0 33 -24 57t-57 24q-16 0 -30.5 -6.5t-26 -17.5t-18 -26t-6.5 -31t6.5 -30.5
t18 -26t26 -18t30.5 -6.5t31 6.5t26 18t17.5 26t6.5 30.5z" />
    <glyph glyph-name="matraI2" 
d="M-1324 1165q0 -83 -27 -148t-72.5 -110t-106 -69t-126.5 -24q-88 0 -171.5 37t-164.5 113l130 131q105 -96 206 -96q25 0 49 9t43.5 25.5t32.5 40.5t17 54q-55 -55 -142 -55q-44 0 -83 16.5t-67.5 45t-45 67.5t-16.5 83q0 43 18 81.5t48 67t69.5 45.5t83.5 17
q66 0 125.5 -27.5t103.5 -73t70 -105.5t26 -125zM-1572 1296q-18 10 -35.5 16t-43.5 6q-15 0 -29.5 -11.5t-14.5 -26.5t13 -25.5t29 -10.5q26 0 47.5 15.5t33.5 36.5z" />
    <glyph glyph-name="matraIi2" 
d="M-1324 1165q0 -83 -27 -148t-72.5 -110t-106 -69t-126.5 -24q-88 0 -171.5 37t-164.5 113l130 131q105 -96 206 -96q25 0 49 9t43.5 25.5t32.5 40.5t17 54q-55 -55 -142 -55q-44 0 -83 16.5t-67.5 45t-45 67.5t-16.5 83q0 34 11 65t31 57q-8 9 -15.5 24.5t-13.5 33
t-9.5 35.5t-3.5 33q0 45 18.5 83.5t49.5 67t71 45t83 16.5q47 0 90 -18t76 -48t53 -70t21 -85h-186q0 28 -14.5 41t-38.5 13q-11 0 -26.5 -11t-15.5 -30q0 -13 9 -27t22 -14h7q66 0 125.5 -27.5t103.5 -73t70 -105.5t26 -125zM-1572 1296q-18 10 -35.5 16t-43.5 6
q-15 0 -29.5 -11.5t-14.5 -26.5t13 -25.5t29 -10.5q26 0 47.5 15.5t33.5 36.5z" />
    <glyph glyph-name="matraI3" 
d="M-354 1165q0 -83 -27 -151.5t-72.5 -117.5t-106 -76.5t-126.5 -27.5h-29v207h29q25 0 49 9t43.5 25.5t32.5 40.5t17 54q-55 -55 -142 -55q-44 0 -83 16.5t-67.5 45t-45 67.5t-16.5 83q0 43 18 81.5t48 67t69.5 45.5t83.5 17q66 0 125.5 -27.5t103.5 -73t70 -105.5
t26 -125zM-602 1296q-18 10 -35.5 16t-43.5 6q-15 0 -29.5 -11.5t-14.5 -26.5t13 -25.5t29 -10.5q26 0 47.5 15.5t33.5 36.5z" />
    <glyph glyph-name="matraI4" 
d="M-211 1165q0 -83 -27 -151.5t-72.5 -117.5t-106 -76.5t-126.5 -27.5h-29v207h29q25 0 49 9t43.5 25.5t32.5 40.5t17 54q-55 -55 -142 -55q-44 0 -83 16.5t-67.5 45t-45 67.5t-16.5 83q0 43 18 81.5t48 67t69.5 45.5t83.5 17q66 0 125.5 -27.5t103.5 -73t70 -105.5
t26 -125zM-459 1296q-18 10 -35.5 16t-43.5 6q-15 0 -29.5 -11.5t-14.5 -26.5t13 -25.5t29 -10.5q26 0 47.5 15.5t33.5 36.5z" />
    <glyph glyph-name="matraI5" 
d="M13 1165q0 -83 -27 -151.5t-72.5 -117.5t-106 -76.5t-126.5 -27.5h-29v207h29q25 0 49 9t43.5 25.5t32.5 40.5t17 54q-55 -55 -142 -55q-44 0 -83 16.5t-67.5 45t-45 67.5t-16.5 83q0 43 18 81.5t48 67t69.5 45.5t83.5 17q66 0 125.5 -27.5t103.5 -73t70 -105.5t26 -125z
M-235 1296q-18 10 -35.5 16t-43.5 6q-15 0 -29.5 -11.5t-14.5 -26.5t13 -25.5t29 -10.5q26 0 47.5 15.5t33.5 36.5z" />
    <glyph glyph-name="matraI6" 
d="M-245 1165q0 -83 -27 -151.5t-72.5 -117.5t-106 -76.5t-126.5 -27.5h-29v207h29q25 0 49 9t43.5 25.5t32.5 40.5t17 54q-55 -55 -142 -55q-44 0 -83 16.5t-67.5 45t-45 67.5t-16.5 83q0 43 18 81.5t48 67t69.5 45.5t83.5 17q66 0 125.5 -27.5t103.5 -73t70 -105.5
t26 -125zM-493 1296q-18 10 -35.5 16t-43.5 6q-15 0 -29.5 -11.5t-14.5 -26.5t13 -25.5t29 -10.5q26 0 47.5 15.5t33.5 36.5z" />
    <glyph glyph-name="matraI7" 
d="M-123 1165q0 -83 -27 -151.5t-72.5 -117.5t-106 -76.5t-126.5 -27.5h-29v207h29q25 0 49 9t43.5 25.5t32.5 40.5t17 54q-55 -55 -142 -55q-44 0 -83 16.5t-67.5 45t-45 67.5t-16.5 83q0 43 18 81.5t48 67t69.5 45.5t83.5 17q66 0 125.5 -27.5t103.5 -73t70 -105.5
t26 -125zM-371 1296q-18 10 -35.5 16t-43.5 6q-15 0 -29.5 -11.5t-14.5 -26.5t13 -25.5t29 -10.5q26 0 47.5 15.5t33.5 36.5z" />
    <glyph glyph-name="matraI8" 
d="M-39 1165q0 -83 -27 -151.5t-72.5 -117.5t-106 -76.5t-126.5 -27.5h-29v207h29q25 0 49 9t43.5 25.5t32.5 40.5t17 54q-55 -55 -142 -55q-44 0 -83 16.5t-67.5 45t-45 67.5t-16.5 83q0 43 18 81.5t48 67t69.5 45.5t83.5 17q66 0 125.5 -27.5t103.5 -73t70 -105.5t26 -125
zM-287 1296q-18 10 -35.5 16t-43.5 6q-15 0 -29.5 -11.5t-14.5 -26.5t13 -25.5t29 -10.5q26 0 47.5 15.5t33.5 36.5z" />
    <glyph glyph-name="matraIi3" 
d="M-354 1165q0 -83 -27 -151t-72.5 -117t-106 -76t-126.5 -27h-29v205h29q25 0 49 9t43.5 25.5t32.5 40.5t17 54q-55 -55 -142 -55q-44 0 -83 16.5t-67.5 45t-45 67.5t-16.5 83q0 33 10.5 63.5t30.5 56.5q-8 9 -16 24.5t-14 33.5t-10 36.5t-4 33.5q0 45 18.5 83.5t49.5 67
t71 45t83 16.5q47 0 90 -18t76 -48t53 -70t21 -85h-186q0 28 -14.5 41t-38.5 13q-11 0 -26.5 -11t-15.5 -30q0 -13 9 -27t22 -14h10q66 0 125.5 -27.5t103.5 -73t70 -105.5t26 -125zM-602 1296q-18 10 -35.5 16t-43.5 6q-15 0 -29.5 -11.5t-14.5 -26.5t13 -25.5t29 -10.5
q26 0 47.5 15.5t33.5 36.5z" />
    <glyph glyph-name="matraIi4" 
d="M-211 1165q0 -83 -27 -151t-72.5 -117t-106 -76t-126.5 -27h-29v205h29q25 0 49 9t43.5 25.5t32.5 40.5t17 54q-55 -55 -142 -55q-44 0 -83 16.5t-67.5 45t-45 67.5t-16.5 83q0 33 10.5 63.5t30.5 56.5q-8 9 -16 24.5t-14 33.5t-10 36.5t-4 33.5q0 45 18.5 83.5t49.5 67
t71 45t83 16.5q47 0 90 -18t76 -48t53 -70t21 -85h-186q0 28 -14.5 41t-38.5 13q-11 0 -26.5 -11t-15.5 -30q0 -13 9 -27t22 -14h10q66 0 125.5 -27.5t103.5 -73t70 -105.5t26 -125zM-459 1296q-18 10 -35.5 16t-43.5 6q-15 0 -29.5 -11.5t-14.5 -26.5t13 -25.5t29 -10.5
q26 0 47.5 15.5t33.5 36.5z" />
    <glyph glyph-name="matraIi5" 
d="M13 1165q0 -83 -27 -151t-72.5 -117t-106 -76t-126.5 -27h-29v205h29q25 0 49 9t43.5 25.5t32.5 40.5t17 54q-55 -55 -142 -55q-44 0 -83 16.5t-67.5 45t-45 67.5t-16.5 83q0 33 10.5 63.5t30.5 56.5q-8 9 -16 24.5t-14 33.5t-10 36.5t-4 33.5q0 45 18.5 83.5t49.5 67
t71 45t83 16.5q47 0 90 -18t76 -48t53 -70t21 -85h-186q0 28 -14.5 41t-38.5 13q-11 0 -26.5 -11t-15.5 -30q0 -13 9 -27t22 -14h10q66 0 125.5 -27.5t103.5 -73t70 -105.5t26 -125zM-235 1296q-18 10 -35.5 16t-43.5 6q-15 0 -29.5 -11.5t-14.5 -26.5t13 -25.5t29 -10.5
q26 0 47.5 15.5t33.5 36.5z" />
    <glyph glyph-name="matraIi6" 
d="M-245 1165q0 -83 -27 -151t-72.5 -117t-106 -76t-126.5 -27h-29v205h29q25 0 49 9t43.5 25.5t32.5 40.5t17 54q-55 -55 -142 -55q-44 0 -83 16.5t-67.5 45t-45 67.5t-16.5 83q0 33 10.5 63.5t30.5 56.5q-8 9 -16 24.5t-14 33.5t-10 36.5t-4 33.5q0 45 18.5 83.5t49.5 67
t71 45t83 16.5q47 0 90 -18t76 -48t53 -70t21 -85h-186q0 28 -14.5 41t-38.5 13q-11 0 -26.5 -11t-15.5 -30q0 -13 9 -27t22 -14h10q66 0 125.5 -27.5t103.5 -73t70 -105.5t26 -125zM-493 1296q-18 10 -35.5 16t-43.5 6q-15 0 -29.5 -11.5t-14.5 -26.5t13 -25.5t29 -10.5
q26 0 47.5 15.5t33.5 36.5z" />
    <glyph glyph-name="matraIi7" 
d="M-123 1165q0 -83 -27 -151t-72.5 -117t-106 -76t-126.5 -27h-29v205h29q25 0 49 9t43.5 25.5t32.5 40.5t17 54q-55 -55 -142 -55q-44 0 -83 16.5t-67.5 45t-45 67.5t-16.5 83q0 33 10.5 63.5t30.5 56.5q-8 9 -16 24.5t-14 33.5t-10 36.5t-4 33.5q0 45 18.5 83.5t49.5 67
t71 45t83 16.5q47 0 90 -18t76 -48t53 -70t21 -85h-186q0 28 -14.5 41t-38.5 13q-11 0 -26.5 -11t-15.5 -30q0 -13 9 -27t22 -14h10q66 0 125.5 -27.5t103.5 -73t70 -105.5t26 -125zM-371 1296q-18 10 -35.5 16t-43.5 6q-15 0 -29.5 -11.5t-14.5 -26.5t13 -25.5t29 -10.5
q26 0 47.5 15.5t33.5 36.5z" />
    <glyph glyph-name="matraIi8" 
d="M-39 1165q0 -83 -27 -151t-72.5 -117t-106 -76t-126.5 -27h-29v205h29q25 0 49 9t43.5 25.5t32.5 40.5t17 54q-55 -55 -142 -55q-44 0 -83 16.5t-67.5 45t-45 67.5t-16.5 83q0 33 10.5 63.5t30.5 56.5q-8 9 -16 24.5t-14 33.5t-10 36.5t-4 33.5q0 45 18.5 83.5t49.5 67
t71 45t83 16.5q47 0 90 -18t76 -48t53 -70t21 -85h-186q0 28 -14.5 41t-38.5 13q-11 0 -26.5 -11t-15.5 -30q0 -13 9 -27t22 -14h10q66 0 125.5 -27.5t103.5 -73t70 -105.5t26 -125zM-287 1296q-18 10 -35.5 16t-43.5 6q-15 0 -29.5 -11.5t-14.5 -26.5t13 -25.5t29 -10.5
q26 0 47.5 15.5t33.5 36.5z" />
    <glyph glyph-name="matraIAlt1" 
d="M-320 940q0 -14 -3 -38.5t-11 -63.5l-172 43q0 19 0.5 37t0.5 22q0 42 -15.5 79.5t-42.5 66t-63 45.5t-77 17q-31 0 -58 -6t-46.5 -17t-31 -27t-11.5 -36q0 -25 21 -44.5t61 -28.5l-60 -159q-50 7 -88.5 28.5t-65 52.5t-40 70t-13.5 81q0 58 27 107.5t72.5 86t105.5 57
t127 20.5q79 0 149 -31.5t122 -85t82 -125t30 -151.5z" />
    <glyph glyph-name="matraIAlt2" 
d="M-254 941q0 -14 -3 -38.5t-11 -63.5l-172 43q0 19 0.5 37t0.5 22q0 42 -15.5 79.5t-42.5 66t-63 45.5t-77 17q-31 0 -58 -6t-46.5 -17t-31 -27t-11.5 -36q0 -25 21 -44.5t61 -28.5l-60 -159q-50 7 -88.5 28.5t-65 52.5t-40 70t-13.5 81q0 58 27 107.5t72.5 86t105.5 57
t127 20.5q79 0 149 -31.5t122 -85t82 -125t30 -151.5z" />
    <glyph glyph-name="matraIAlt3" 
d="M-1647 937q0 -14 -3 -38.5t-11 -63.5l-172 43q0 19 0.5 37t0.5 22q0 42 -15.5 79.5t-42.5 66t-63 45.5t-77 17q-31 0 -58 -6t-46.5 -17t-31 -27t-11.5 -36q0 -25 21 -44.5t61 -28.5l-60 -159q-50 7 -88.5 28.5t-65 52.5t-40 70t-13.5 81q0 58 27 107.5t72.5 86t105.5 57
t127 20.5q79 0 149 -31.5t122 -85t82 -125t30 -151.5z" />
    <glyph glyph-name="matraIiAlt1" 
d="M-361 938q0 -11 -3 -35.5t-11 -66.5l-172 44q0 17 0.5 35.5t0.5 22.5q0 42 -16 80t-43.5 66.5t-63.5 45.5t-75 17q-31 0 -58 -7.5t-46.5 -20.5t-31 -30.5t-11.5 -37.5q0 -8 5 -19t15 -21t25.5 -17.5t35.5 -7.5l-59 -158q-55 12 -94 33.5t-64 51t-37 64.5t-12 74
q0 37 13 74.5t36 71t54.5 60.5t69.5 43q-3 13 -4 28.5t-1 34.5q0 51 19 94.5t52.5 75t78.5 49.5t96 18t99 -17t85 -51t59.5 -84.5t22.5 -116.5h-185q0 19 -8 35t-20 26.5t-26 16.5t-27 6q-61 0 -61 -52q0 -30 44 -39q72 -15 131 -50t100.5 -86t64 -115t22.5 -135z" />
    <glyph glyph-name="matraIiAlt2" 
d="M-246 939q0 -11 -3 -35.5t-11 -66.5l-172 44q0 17 0.5 35.5t0.5 22.5q0 42 -16 80t-43.5 66.5t-63.5 45.5t-75 17q-31 0 -58 -7.5t-46.5 -20.5t-31 -30.5t-11.5 -37.5q0 -8 5 -19t15 -21t25.5 -17.5t35.5 -7.5l-59 -158q-55 12 -94 33.5t-64 51t-37 64.5t-12 74
q0 37 13 74.5t36 71t54.5 60.5t69.5 43q-3 13 -4 28.5t-1 34.5q0 51 19 94.5t52.5 75t78.5 49.5t96 18t99 -17t85 -51t59.5 -84.5t22.5 -116.5h-185q0 19 -8 35t-20 26.5t-26 16.5t-27 6q-61 0 -61 -52q0 -30 44 -39q72 -15 131 -50t100.5 -86t64 -115t22.5 -135z" />
    <glyph glyph-name="matraIiAlt3" 
d="M-1688 928q0 -11 -3 -35.5t-11 -66.5l-172 44q0 17 0.5 35.5t0.5 22.5q0 42 -16 80t-43.5 66.5t-63.5 45.5t-75 17q-31 0 -58 -7.5t-46.5 -20.5t-31 -30.5t-11.5 -37.5q0 -8 5 -19t15 -21t25.5 -17.5t35.5 -7.5l-59 -158q-55 12 -94 33.5t-64 51t-37 64.5t-12 74
q0 37 13 74.5t36 71t54.5 60.5t69.5 43q-3 13 -4 28.5t-1 34.5q0 51 19 94.5t52.5 75t78.5 49.5t96 18t99 -17t85 -51t59.5 -84.5t22.5 -116.5h-185q0 19 -8 35t-20 26.5t-26 16.5t-27 6q-61 0 -61 -52q0 -30 44 -39q72 -15 131 -50t100.5 -86t64 -115t22.5 -135z" />
    <glyph glyph-name="matraU2" horiz-adv-x="702" 
d="M603 483q0 -108 -36 -200t-100 -159t-151.5 -105t-189.5 -38q-93 0 -173 30t-139 86.5t-92.5 137t-33.5 182.5h207q0 -50 18.5 -85t50.5 -57t73.5 -32t88.5 -10q57 0 105.5 18t83 51t54 79t19.5 102q0 63 -20.5 117.5t-61 95.5t-99.5 64.5t-137 23.5v215q122 0 220.5 -42
t168 -112.5t107 -164.5t37.5 -197z" />
    <glyph glyph-name="matraU3" horiz-adv-x="720" 
d="M616 483q0 -108 -36 -200t-100 -159t-151.5 -105t-189.5 -38q-93 0 -173 30t-139 86.5t-92.5 137t-33.5 182.5h207q0 -50 18.5 -85t50.5 -57t73.5 -32t88.5 -10q57 0 105.5 18t83 51t54 79t19.5 102q0 63 -20.5 117.5t-61 95.5t-99.5 64.5t-137 23.5v215q122 0 220.5 -42
t168 -112.5t107 -164.5t37.5 -197z" />
    <glyph glyph-name="matraU4" horiz-adv-x="696" 
d="M595 483q0 -108 -36 -200t-100 -159t-151.5 -105t-189.5 -38q-93 0 -173 30t-139 86.5t-92.5 137t-33.5 182.5h207q0 -50 18.5 -85t50.5 -57t73.5 -32t88.5 -10q57 0 105.5 18t83 51t54 79t19.5 102q0 63 -20.5 117.5t-61 95.5t-99.5 64.5t-137 23.5v215q122 0 220.5 -42
t168 -112.5t107 -164.5t37.5 -197z" />
    <glyph glyph-name="matraU5" horiz-adv-x="684" 
d="M597 483q0 -108 -36 -200t-100 -159t-151.5 -105t-189.5 -38q-93 0 -173 30t-139 86.5t-92.5 137t-33.5 182.5h207q0 -50 18.5 -85t50.5 -57t73.5 -32t88.5 -10q57 0 105.5 18t83 51t54 79t19.5 102q0 63 -20.5 117.5t-61 95.5t-99.5 64.5t-137 23.5v215q122 0 220.5 -42
t168 -112.5t107 -164.5t37.5 -197z" />
    <glyph glyph-name="matraUu2" horiz-adv-x="1344" 
d="M1206 724q0 -57 -21.5 -107t-58 -87t-84.5 -58t-100 -21q-60 0 -108.5 24t-82.5 64t-52.5 91.5t-18.5 106.5q0 11 2 23t5 24h-176q45 -66 68.5 -141t23.5 -160q0 -108 -35 -200t-97.5 -159t-148 -105t-187.5 -38q-91 0 -170.5 32.5t-138 89.5t-92.5 133.5t-34 165.5h174
q5 -41 30 -72.5t61.5 -53t81 -32.5t88.5 -11q57 0 104 18.5t80 51.5t51 79t18 101q0 61 -19.5 115.5t-59.5 96t-99.5 65.5t-139.5 24v215h873q55 0 103.5 -22.5t83.5 -60t55.5 -87.5t20.5 -105zM1025 725q0 16 -7 30.5t-18 26t-26 18t-31 6.5t-30.5 -6.5t-26 -17.5t-18 -26
t-6.5 -31q0 -17 6.5 -31.5t18 -25.5t26 -17.5t30.5 -6.5t31 6.5t26.5 18t18 26t6.5 30.5z" />
    <glyph glyph-name="matraUu3" horiz-adv-x="1360" 
d="M1219 724q0 -57 -21.5 -107t-58 -87t-84.5 -58t-100 -21q-60 0 -108.5 24t-82.5 64t-52.5 91.5t-18.5 106.5q0 11 2 23t5 24h-176q45 -66 68.5 -141t23.5 -160q0 -108 -35 -200t-97.5 -159t-148 -105t-187.5 -38q-91 0 -170.5 32.5t-138 89.5t-92.5 133.5t-34 165.5h174
q5 -41 30 -72.5t61.5 -53t81 -32.5t88.5 -11q57 0 104 18.5t80 51.5t51 79t18 101q0 61 -19.5 115.5t-59.5 96t-99.5 65.5t-139.5 24v215h873q55 0 103.5 -22.5t83.5 -60t55.5 -87.5t20.5 -105zM1038 725q0 16 -7 30.5t-18 26t-26 18t-31 6.5t-30.5 -6.5t-26 -17.5t-18 -26
t-6.5 -31q0 -17 6.5 -31.5t18 -25.5t26 -17.5t30.5 -6.5t31 6.5t26.5 18t18 26t6.5 30.5z" />
    <glyph glyph-name="matraUu4" horiz-adv-x="1338" 
d="M1199 724q0 -57 -21.5 -107t-58 -87t-84.5 -58t-100 -21q-60 0 -108.5 24t-82.5 64t-52.5 91.5t-18.5 106.5q0 11 2 23t5 24h-176q45 -66 68.5 -141t23.5 -160q0 -108 -35 -200t-97.5 -159t-148 -105t-187.5 -38q-91 0 -170.5 32.5t-138 89.5t-92.5 133.5t-34 165.5h174
q5 -41 30 -72.5t61.5 -53t81 -32.5t88.5 -11q57 0 104 18.5t80 51.5t51 79t18 101q0 61 -19.5 115.5t-59.5 96t-99.5 65.5t-139.5 24v215h873q55 0 103.5 -22.5t83.5 -60t55.5 -87.5t20.5 -105zM1018 725q0 16 -7 30.5t-18 26t-26 18t-31 6.5t-30.5 -6.5t-26 -17.5t-18 -26
t-6.5 -31q0 -17 6.5 -31.5t18 -25.5t26 -17.5t30.5 -6.5t31 6.5t26.5 18t18 26t6.5 30.5z" />
    <glyph glyph-name="matraUu5" horiz-adv-x="1314" 
d="M1204 724q0 -57 -21.5 -107t-58 -87t-84.5 -58t-100 -21q-60 0 -108.5 24t-82.5 64t-52.5 91.5t-18.5 106.5q0 11 2 23t5 24h-176q45 -66 68.5 -141t23.5 -160q0 -108 -35 -200t-97.5 -159t-148 -105t-187.5 -38q-91 0 -170.5 32.5t-138 89.5t-92.5 133.5t-34 165.5h174
q5 -41 30 -72.5t61.5 -53t81 -32.5t88.5 -11q57 0 104 18.5t80 51.5t51 79t18 101q0 61 -19.5 115.5t-59.5 96t-99.5 65.5t-139.5 24v215h873q55 0 103.5 -22.5t83.5 -60t55.5 -87.5t20.5 -105zM1023 725q0 16 -7 30.5t-18 26t-26 18t-31 6.5t-30.5 -6.5t-26 -17.5t-18 -26
t-6.5 -31q0 -17 6.5 -31.5t18 -25.5t26 -17.5t30.5 -6.5t31 6.5t26.5 18t18 26t6.5 30.5z" />
    <glyph glyph-name="matraU6" horiz-adv-x="690" 
d="M568 483q0 -108 -34 -199.5t-96 -159t-148 -105.5t-189 -38q-56 0 -107.5 18.5t-97 50.5t-84 75t-66.5 93l153 125q46 -56 92.5 -83t109.5 -27q57 0 104 17.5t80 50.5t51 79t18 103q0 61 -20 116t-60 96t-99.5 65t-138.5 24v215q121 0 219.5 -41.5t168 -112t107 -164.5
t37.5 -198z" />
    <glyph glyph-name="matraU7" horiz-adv-x="870" 
d="M777 483q0 -107 -34 -199t-96 -159.5t-148 -105.5t-189 -38q-88 0 -155.5 21t-121 59.5t-96 92t-79.5 118t-71.5 138.5t-71.5 153l193 66q30 -57 54 -108.5t47.5 -95.5t50 -79.5t61.5 -60.5t81 -38.5t108 -13.5q57 0 103.5 18t79.5 50.5t51.5 78.5t18.5 103q0 61 -20 116
t-60 96t-99.5 65t-138.5 24v215q121 0 219.5 -41.5t168 -112t107 -164.5t37.5 -198z" />
    <glyph glyph-name="matraU8" horiz-adv-x="846" 
d="M751 483q0 -107 -34 -199t-96 -159.5t-148 -105.5t-189 -38q-88 0 -155.5 21t-121 59.5t-96 92t-79.5 118t-71.5 138.5t-71.5 153l193 66q30 -57 54 -108.5t47.5 -95.5t50 -79.5t61.5 -60.5t81 -38.5t108 -13.5q57 0 103.5 18t79.5 50.5t51.5 78.5t18.5 103q0 61 -20 116
t-60 96t-99.5 65t-138.5 24v215q121 0 219.5 -41.5t168 -112t107 -164.5t37.5 -198z" />
    <glyph glyph-name="matraUu7" horiz-adv-x="1450" 
d="M1345 724q0 -55 -20 -104.5t-55.5 -87t-83.5 -59.5t-104 -22q-57 0 -105.5 22t-83.5 60.5t-54.5 90.5t-19.5 113q0 11 2 23t5 24h-131q92 -131 92 -301q0 -107 -34 -199t-96 -159.5t-148 -105.5t-189 -38q-87 0 -157 22.5t-127 62.5t-102.5 94.5t-84.5 119t-72 137
t-65 146.5l196 65q37 -80 71 -151.5t78.5 -125.5t107 -86t155.5 -32q57 0 103.5 18t79.5 50.5t51.5 78.5t18.5 103q0 61 -20 116t-60 96t-99.5 65t-138.5 24v215h827q55 0 103.5 -22.5t83.5 -60t55.5 -87.5t20.5 -105zM1164 725q0 16 -7 30.5t-18 26t-26 18t-31 6.5
t-30.5 -6.5t-26 -17.5t-18 -26t-6.5 -31q0 -17 6.5 -31.5t18 -25.5t26 -17.5t30.5 -6.5t31 6.5t26.5 18t18 26t6.5 30.5z" />
    <glyph glyph-name="matraUu8" horiz-adv-x="1422" 
d="M1319 724q0 -55 -20 -104.5t-55.5 -87t-83.5 -59.5t-104 -22q-57 0 -105.5 22t-83.5 60.5t-54.5 90.5t-19.5 113q0 11 2 23t5 24h-131q92 -131 92 -301q0 -107 -34 -199t-96 -159.5t-148 -105.5t-189 -38q-87 0 -157 22.5t-127 62.5t-102.5 94.5t-84.5 119t-72 137
t-65 146.5l196 65q37 -80 71 -151.5t78.5 -125.5t107 -86t155.5 -32q57 0 103.5 18t79.5 50.5t51.5 78.5t18.5 103q0 61 -20 116t-60 96t-99.5 65t-138.5 24v215h827q55 0 103.5 -22.5t83.5 -60t55.5 -87.5t20.5 -105zM1138 725q0 16 -7 30.5t-18 26t-26 18t-31 6.5
t-30.5 -6.5t-26 -17.5t-18 -26t-6.5 -31q0 -17 6.5 -31.5t18 -25.5t26 -17.5t30.5 -6.5t31 6.5t26.5 18t18 26t6.5 30.5z" />
    <glyph glyph-name="matraU9" horiz-adv-x="446" 
d="M94 530q-25 0 -57 8.5t-63 21t-57.5 27.5t-41.5 28v196q20 -18 49.5 -35.5t60 -31t60 -21.5t49.5 -8q18 0 38 5.5t37.5 14.5t28.5 21.5t11 26.5q0 19 -19 34.5t-50 15.5v185q61 0 108.5 -20t79.5 -52.5t48.5 -75t16.5 -87.5q0 -53 -21.5 -99.5t-61 -80.5t-94.5 -53.5
t-122 -19.5z" />
    <glyph glyph-name="matraUu9" horiz-adv-x="810" 
d="M739 866q0 -31 -12 -58.5t-33 -48.5t-48.5 -33t-58.5 -12q-26 0 -51 9t-45.5 24.5t-34.5 37.5t-18 48h-63q5 -25 5 -51q0 -53 -25 -99t-65.5 -80t-92 -53.5t-103.5 -19.5q-25 0 -57 8.5t-63 21t-57.5 27.5t-41.5 28v196q20 -18 49.5 -35.5t60 -31t60 -21.5t49.5 -8
q18 0 36 5t33 14t24 21.5t9 26.5q0 7 -1.5 16t-8 16.5t-20.5 13t-39 5.5v185h460q30 0 57.5 -12t48.5 -33t33.5 -48.5t12.5 -58.5z" />
    <glyph glyph-name="matraU10" horiz-adv-x="714" 
d="M636 334q0 -149 -52 -274t-142.5 -216t-213.5 -142t-265 -51q-118 0 -233 38t-224.5 104.5t-211.5 155.5t-194 191l188 107q87 -89 171 -153.5t167 -107t166.5 -63t170.5 -20.5q99 0 183 32t145.5 89.5t96 136.5t34.5 173q0 92 -34.5 174t-97.5 143.5t-152.5 97
t-198.5 35.5v215q145 6 272 -44.5t221.5 -142t149 -215t54.5 -263.5z" />
    <glyph glyph-name="matraUu10" horiz-adv-x="1274" 
d="M1199 724q0 -56 -20 -105.5t-55.5 -86.5t-83.5 -59t-103 -22q-58 0 -106.5 22t-83 60.5t-54 91t-19.5 112.5q0 11 2 23l4 24h-208q174 -185 174 -450q0 -149 -52 -274t-143 -216t-214 -142t-265 -51q-117 0 -231 35t-223 99t-214 154.5t-204 200.5l188 110
q68 -78 151 -142t173 -109.5t182 -70.5t178 -25q99 0 183 32t145.5 89.5t96 136.5t34.5 173q0 93 -34.5 175t-98 143t-152.5 96.5t-197 35.5v215h988q55 0 102.5 -22t83 -60t56 -88t20.5 -105zM1018 725q0 33 -24 57t-57 24q-16 0 -30.5 -6.5t-26 -17.5t-18 -26t-6.5 -31
t6.5 -30.5t18 -26t26 -18t30.5 -6.5t31 6.5t26 18t17.5 26t6.5 30.5z" />
    <glyph glyph-name="matraU11" horiz-adv-x="1002" 
d="M910 483q0 -108 -35 -199.5t-97 -159t-148 -105.5t-188 -38q-108 0 -188.5 37t-142 99t-108.5 143.5t-88.5 171t-82 180.5t-88.5 172l129 120q44 -50 81.5 -119.5t74.5 -144t76.5 -147.5t88 -131t109 -93.5t139.5 -35.5q58 0 105 18.5t80 51.5t50.5 79t17.5 101
q0 61 -20 115.5t-59.5 96t-99.5 65.5t-139 24v215q121 0 219.5 -41.5t168 -112t107.5 -164.5t38 -198z" />
    <glyph glyph-name="matraUu11" horiz-adv-x="1588" 
d="M1326 725q0 16 -7 31t-18 26t-25.5 17.5t-30.5 6.5t-31 -6.5t-26 -18t-18 -26t-7 -30.5t6.5 -30.5t18 -26t26 -18t31.5 -6.5q16 0 30.5 6.5t26 17.5t18 25.5t6.5 31.5zM442 -19q-108 0 -187 37t-139 99t-105 143.5t-84.5 170.5t-79 180t-87.5 172l113 121
q44 -50 81.5 -119.5t74.5 -144t76.5 -147.5t88 -131t109 -93.5t139.5 -35.5q58 0 106.5 18.5t83 51.5t54 79t19.5 101q0 61 -20 115.5t-59.5 96t-99.5 65.5t-139 24v215h858q55 0 103 -22.5t83 -60t55.5 -87.5t20.5 -105t-20 -104.5t-55.5 -87t-83.5 -59.5t-103 -22
q-58 0 -106.5 22t-83.5 60.5t-54.5 91t-19.5 112.5q0 22 7 47h-161q46 -66 69.5 -141t23.5 -160q0 -108 -36.5 -199.5t-100.5 -159t-151.5 -105.5t-189.5 -38z" />
    <glyph glyph-name="matraE2" 
d="M-399 1040q0 -46 -17.5 -91t-48 -80.5t-73 -57.5t-92.5 -22h-265v210h265q23 0 34.5 12.5t11.5 28.5q0 17 -11.5 29.5t-34.5 12.5h-710v185h710q51 0 93 -17.5t73 -48.5t48 -72t17 -89z" />
    <glyph glyph-name="matraE3" 
d="M-77 1040q0 -46 -17.5 -91t-48 -80.5t-73 -57.5t-92.5 -22h-265v210h265q23 0 34.5 12.5t11.5 28.5q0 17 -11.5 29.5t-34.5 12.5h-710v185h710q51 0 93 -17.5t73 -48.5t48 -72t17 -89z" />
    <glyph glyph-name="matraE4" 
d="M-185 1132q0 -46 -17.5 -91t-48 -80.5t-73 -57.5t-92.5 -22h-265v210h265q23 0 34.5 12.5t11.5 28.5q0 17 -11.5 29.5t-34.5 12.5h-710v185h710q51 0 93 -17.5t73 -48.5t48 -72t17 -89z" />
    <glyph glyph-name="matraE5" 
d="M-1549 1040q0 -46 -17.5 -91t-48 -80.5t-73 -57.5t-92.5 -22h-265v210h265q23 0 34.5 12.5t11.5 28.5q0 17 -11.5 29.5t-34.5 12.5h-710v185h710q51 0 93 -17.5t73 -48.5t48 -72t17 -89z" />
    <glyph glyph-name="matraE6" horiz-adv-x="186" 
d="M91 1133q0 -46 -17.5 -91t-48 -80.5t-73 -57.5t-92.5 -22h-265v210h265q23 0 34.5 12.5t11.5 28.5q0 17 -11.5 29.5t-34.5 12.5h-710v185h710q51 0 93 -17.5t73 -48.5t48 -72t17 -89z" />
    <glyph glyph-name="matraE7" 
d="M11 1040q0 -46 -17.5 -91t-48 -80.5t-73 -57.5t-92.5 -22h-265v210h265q23 0 34.5 12.5t11.5 28.5q0 17 -11.5 29.5t-34.5 12.5h-710v185h710q51 0 93 -17.5t73 -48.5t48 -72t17 -89z" />
    <glyph glyph-name="matraE8" 
d="M-148 1040q0 -46 -17.5 -91t-48 -80.5t-73 -57.5t-92.5 -22h-265v210h265q23 0 34.5 12.5t11.5 28.5q0 17 -11.5 29.5t-34.5 12.5h-710v185h710q51 0 93 -17.5t73 -48.5t48 -72t17 -89z" />
    <glyph glyph-name="matraE9" 
d="M-1140 1040q0 -46 -17.5 -91t-48 -80.5t-73 -57.5t-92.5 -22h-265v210h265q23 0 34.5 12.5t11.5 28.5q0 17 -11.5 29.5t-34.5 12.5h-710v185h710q51 0 93 -17.5t73 -48.5t48 -72t17 -89z" />
    <glyph glyph-name="matraE10" 
d="M-813 1040q0 -46 -17.5 -91t-48 -80.5t-73 -57.5t-92.5 -22h-265v210h265q23 0 34.5 12.5t11.5 28.5q0 17 -11.5 29.5t-34.5 12.5h-710v185h710q51 0 93 -17.5t73 -48.5t48 -72t17 -89z" />
    <glyph glyph-name="matraE11" horiz-adv-x="134" 
d="M95 1040q0 -46 -17.5 -91t-48 -80.5t-73 -57.5t-92.5 -22h-265v210h265q23 0 34.5 12.5t11.5 28.5q0 17 -11.5 29.5t-34.5 12.5h-710v185h710q51 0 93 -17.5t73 -48.5t48 -72t17 -89z" />
    <glyph glyph-name="matraE12" horiz-adv-x="120" 
d="M81 1040q0 -46 -17.5 -91t-48 -80.5t-73 -57.5t-92.5 -22h-265v210h265q23 0 34.5 12.5t11.5 28.5q0 17 -11.5 29.5t-34.5 12.5h-710v185h710q51 0 93 -17.5t73 -48.5t48 -72t17 -89z" />
    <glyph glyph-name="matraE13" horiz-adv-x="80" 
d="M41 1040q0 -46 -17.5 -91t-48 -80.5t-73 -57.5t-92.5 -22h-265v210h265q23 0 34.5 12.5t11.5 28.5q0 17 -11.5 29.5t-34.5 12.5h-710v185h710q51 0 93 -17.5t73 -48.5t48 -72t17 -89z" />
    <glyph glyph-name="matraE14" 
d="M-111 1040q0 -43 -17.5 -87.5t-48 -81t-71 -59.5t-86.5 -23h-273v210h273q16 0 27.5 12.5t11.5 28.5q0 17 -11.5 29.5t-27.5 12.5h-501v185h501q44 0 84.5 -19t71 -50.5t49 -72.5t18.5 -85z" />
    <glyph glyph-name="matraE15" 
d="M-1409 1040q0 -43 -17.5 -87.5t-48 -81t-71 -59.5t-86.5 -23h-273v210h273q16 0 27.5 12.5t11.5 28.5q0 17 -11.5 29.5t-27.5 12.5h-501v185h501q44 0 84.5 -19t71 -50.5t49 -72.5t18.5 -85z" />
    <glyph glyph-name="matraE16" 
d="M-772 1040q0 -44 -18 -84.5t-49 -72t-72 -50.5t-87 -19h-177v185h177q16 0 28.5 12.5t12.5 28.5q0 17 -12.5 29.5t-28.5 12.5h-392v185h392q44 0 84.5 -18.5t72 -50t50.5 -72.5t19 -86z" />
    <glyph glyph-name="matraE17" 
d="M-243 1040q0 -43 -17.5 -87.5t-48 -81t-71 -59.5t-86.5 -23h-273v210h273q16 0 27.5 12.5t11.5 28.5q0 17 -11.5 29.5t-27.5 12.5h-501v185h501q44 0 84.5 -19t71 -50.5t49 -72.5t18.5 -85z" />
    <glyph glyph-name="matraE18" 
d="M-1342 1040q0 -43 -18 -83.5t-48.5 -72t-72 -51t-88.5 -19.5h-176v185h176q17 0 29.5 12.5t12.5 28.5q0 17 -12.5 29.5t-29.5 12.5h-391v185h391q45 0 86 -19t72.5 -50.5t50 -72.5t18.5 -85z" />
    <glyph glyph-name="matraEe2" 
d="M-399 1040q0 -47 -16.5 -92t-45 -80t-68 -57t-85.5 -22h-281v210h272q25 0 32.5 14.5t7.5 26.5q0 17 -7.5 29.5t-32.5 12.5h-717v185h468q-1 8 -4.5 23.5t-3.5 23.5q0 47 17 87t46.5 69.5t68.5 46t84 16.5h225v-185h-225q-16 0 -24 -13t-8 -29q0 -15 6 -27t11 -12h65
q45 0 84 -17.5t68.5 -48t46 -72t16.5 -89.5z" />
    <glyph glyph-name="matraEe3" 
d="M-77 1040q0 -47 -16.5 -92t-45 -80t-68 -57t-85.5 -22h-281v210h272q25 0 32.5 14.5t7.5 26.5q0 17 -7.5 29.5t-32.5 12.5h-717v185h468q-1 8 -4.5 23.5t-3.5 23.5q0 47 17 87t46.5 69.5t68.5 46t84 16.5h225v-185h-225q-16 0 -24 -13t-8 -29q0 -15 6 -27t11 -12h65
q45 0 84 -17.5t68.5 -48t46 -72t16.5 -89.5z" />
    <glyph glyph-name="matraEe4" 
d="M-185 1132q0 -47 -16.5 -92t-45 -80t-68 -57t-85.5 -22h-281v210h272q25 0 32.5 14.5t7.5 26.5q0 17 -7.5 29.5t-32.5 12.5h-717v185h468q-1 8 -4.5 23.5t-3.5 23.5q0 47 17 87t46.5 69.5t68.5 46t84 16.5h225v-185h-225q-16 0 -24 -13t-8 -29q0 -15 6 -27t11 -12h65
q45 0 84 -17.5t68.5 -48t46 -72t16.5 -89.5z" />
    <glyph glyph-name="matraEe5" 
d="M-1549 1040q0 -47 -16.5 -92t-45 -80t-68 -57t-85.5 -22h-281v210h272q25 0 32.5 14.5t7.5 26.5q0 17 -7.5 29.5t-32.5 12.5h-717v185h468q-1 8 -4.5 23.5t-3.5 23.5q0 47 17 87t46.5 69.5t68.5 46t84 16.5h225v-185h-225q-16 0 -24 -13t-8 -29q0 -15 6 -27t11 -12h65
q45 0 84 -17.5t68.5 -48t46 -72t16.5 -89.5z" />
    <glyph glyph-name="matraEe6" horiz-adv-x="186" 
d="M92 1132q0 -47 -16.5 -92t-45 -80t-68 -57t-85.5 -22h-281v210h272q25 0 32.5 14.5t7.5 26.5q0 17 -7.5 29.5t-32.5 12.5h-717v185h468q-1 8 -4.5 23.5t-3.5 23.5q0 47 17 87t46.5 69.5t68.5 46t84 16.5h225v-185h-225q-16 0 -24 -13t-8 -29q0 -15 6 -27t11 -12h65
q45 0 84 -17.5t68.5 -48t46 -72t16.5 -89.5z" />
    <glyph glyph-name="matraEe7" 
d="M11 1040q0 -47 -16.5 -92t-45 -80t-68 -57t-85.5 -22h-281v210h272q25 0 32.5 14.5t7.5 26.5q0 17 -7.5 29.5t-32.5 12.5h-717v185h468q-1 8 -4.5 23.5t-3.5 23.5q0 47 17 87t46.5 69.5t68.5 46t84 16.5h225v-185h-225q-16 0 -24 -13t-8 -29q0 -15 6 -27t11 -12h65
q45 0 84 -17.5t68.5 -48t46 -72t16.5 -89.5z" />
    <glyph glyph-name="matraEe8" 
d="M-148 1040q0 -47 -16.5 -92t-45 -80t-68 -57t-85.5 -22h-281v210h272q25 0 32.5 14.5t7.5 26.5q0 17 -7.5 29.5t-32.5 12.5h-717v185h468q-1 8 -4.5 23.5t-3.5 23.5q0 47 17 87t46.5 69.5t68.5 46t84 16.5h225v-185h-225q-16 0 -24 -13t-8 -29q0 -15 6 -27t11 -12h65
q45 0 84 -17.5t68.5 -48t46 -72t16.5 -89.5z" />
    <glyph glyph-name="matraEe9" 
d="M-1140 1040q0 -47 -16.5 -92t-45 -80t-68 -57t-85.5 -22h-281v210h272q25 0 32.5 14.5t7.5 26.5q0 17 -7.5 29.5t-32.5 12.5h-717v185h468q-1 8 -4.5 23.5t-3.5 23.5q0 47 17 87t46.5 69.5t68.5 46t84 16.5h225v-185h-225q-16 0 -24 -13t-8 -29q0 -15 6 -27t11 -12h65
q45 0 84 -17.5t68.5 -48t46 -72t16.5 -89.5z" />
    <glyph glyph-name="matraEe10" 
d="M-813 1040q0 -47 -16.5 -92t-45 -80t-68 -57t-85.5 -22h-281v210h272q25 0 32.5 14.5t7.5 26.5q0 17 -7.5 29.5t-32.5 12.5h-717v185h468q-1 8 -4.5 23.5t-3.5 23.5q0 47 17 87t46.5 69.5t68.5 46t84 16.5h225v-185h-225q-16 0 -24 -13t-8 -29q0 -15 6 -27t11 -12h65
q45 0 84 -17.5t68.5 -48t46 -72t16.5 -89.5z" />
    <glyph glyph-name="matraEe11" horiz-adv-x="134" 
d="M95 1040q0 -47 -16.5 -92t-45 -80t-68 -57t-85.5 -22h-281v210h272q25 0 32.5 14.5t7.5 26.5q0 17 -7.5 29.5t-32.5 12.5h-717v185h468q-1 8 -4.5 23.5t-3.5 23.5q0 47 17 87t46.5 69.5t68.5 46t84 16.5h225v-185h-225q-16 0 -24 -13t-8 -29q0 -15 6 -27t11 -12h65
q45 0 84 -17.5t68.5 -48t46 -72t16.5 -89.5z" />
    <glyph glyph-name="matraEe12" horiz-adv-x="120" 
d="M81 1040q0 -47 -16.5 -92t-45 -80t-68 -57t-85.5 -22h-281v210h272q25 0 32.5 14.5t7.5 26.5q0 17 -7.5 29.5t-32.5 12.5h-717v185h468q-1 8 -4.5 23.5t-3.5 23.5q0 47 17 87t46.5 69.5t68.5 46t84 16.5h225v-185h-225q-16 0 -24 -13t-8 -29q0 -15 6 -27t11 -12h65
q45 0 84 -17.5t68.5 -48t46 -72t16.5 -89.5z" />
    <glyph glyph-name="matraEe13" horiz-adv-x="98" 
d="M41 1040q0 -47 -16.5 -92t-45 -80t-68 -57t-85.5 -22h-281v210h272q25 0 32.5 14.5t7.5 26.5q0 17 -7.5 29.5t-32.5 12.5h-717v185h468q-1 8 -4.5 23.5t-3.5 23.5q0 47 17 87t46.5 69.5t68.5 46t84 16.5h225v-185h-225q-16 0 -24 -13t-8 -29q0 -15 6 -27t11 -12h65
q45 0 84 -17.5t68.5 -48t46 -72t16.5 -89.5z" />
    <glyph glyph-name="matraEe14" 
d="M-111 1040q0 -44 -17.5 -88t-47.5 -79t-70.5 -57t-86.5 -22h-274v205h274q13 0 26 14.5t13 26.5q0 17 -11.5 29.5t-27.5 12.5h-502v185h245q-1 7 -1.5 19t-0.5 20q0 47 16.5 88.5t45.5 72t68.5 48.5t85.5 18h225v-185h-225q-16 0 -23.5 -13t-7.5 -29q0 -8 0.5 -21
t1.5 -18h72q43 0 83.5 -18.5t71 -49.5t49 -72t18.5 -87z" />
    <glyph glyph-name="matraEe15" 
d="M-1409 1040q0 -44 -17.5 -88t-47.5 -79t-70.5 -57t-86.5 -22h-274v205h274q13 0 26 14.5t13 26.5q0 17 -11.5 29.5t-27.5 12.5h-502v185h245q-1 7 -1.5 19t-0.5 20q0 47 16.5 88.5t45.5 72t68.5 48.5t85.5 18h225v-185h-225q-16 0 -23.5 -13t-7.5 -29q0 -8 0.5 -21
t1.5 -18h72q43 0 83.5 -18.5t71 -49.5t49 -72t18.5 -87z" />
    <glyph glyph-name="matraEe16" 
d="M-772 1040q0 -46 -18.5 -87t-49 -72t-71 -49t-83.5 -18h-181v185h181q12 0 25 14.5t13 26.5q0 17 -11 29.5t-27 12.5h-396v185h139q-2 8 -2 19.5v19.5q0 46 16.5 87.5t45 72.5t68 49t86.5 18h225v-185h-225q-16 0 -24 -13t-8 -29v-20.5t2 -18.5h73q43 0 83.5 -18.5
t71 -49.5t49 -72.5t18.5 -86.5z" />
    <glyph glyph-name="matraEe17" 
d="M-243 1040q0 -44 -17.5 -88t-47.5 -79t-70.5 -57t-86.5 -22h-274v205h274q13 0 26 14.5t13 26.5q0 17 -11.5 29.5t-27.5 12.5h-502v185h245q-1 7 -1.5 19t-0.5 20q0 47 16.5 88.5t45.5 72t68.5 48.5t85.5 18h225v-185h-225q-16 0 -23.5 -13t-7.5 -29q0 -8 0.5 -21
t1.5 -18h72q43 0 83.5 -18.5t71 -49.5t49 -72t18.5 -87z" />
    <glyph glyph-name="matraEe18" 
d="M-1342 1040q0 -44 -17.5 -84.5t-47.5 -72t-70.5 -50.5t-86.5 -19h-181v185h181q13 0 25.5 14.5t12.5 26.5q0 17 -10.5 29.5t-27.5 12.5h-396v185h138q-2 8 -2 19.5v19.5q0 46 16.5 87.5t45.5 72.5t68.5 49t86.5 18h225v-185h-225q-17 0 -24.5 -13t-7.5 -29v-20.5t2 -18.5
h73q44 0 84 -18.5t71 -50t49 -72.5t18 -86z" />
    <glyph glyph-name="matraAiBelow1" 
d="M-42 -500h-759q-47 0 -88 18t-71.5 48.5t-48.5 71.5t-18 88q0 46 17.5 86.5t47.5 71.5t71.5 49t89.5 18q45 0 85.5 -17.5t71.5 -48.5t49.5 -72t18.5 -87q0 -20 -3 -41h537v-185zM-751 -275q0 22 -14.5 36.5t-36.5 14.5t-36 -14.5t-14 -36.5t14 -36t36 -14t36.5 14
t14.5 36z" />
    <glyph glyph-name="matraAiBelow2" 
d="M-42 -862h-759q-47 0 -88 18t-71.5 48.5t-48.5 71.5t-18 88q0 46 17.5 86.5t47.5 71.5t71.5 49t89.5 18q45 0 85.5 -17.5t71.5 -48.5t49.5 -72t18.5 -87q0 -20 -3 -41h537v-185zM-751 -637q0 22 -14.5 36.5t-36.5 14.5t-36 -14.5t-14 -36.5t14 -36t36 -14t36.5 14
t14.5 36z" />
    <glyph glyph-name="matraAiBelow3" 
d="M-42 -1382h-759q-47 0 -88 18t-71.5 48.5t-48.5 71.5t-18 88q0 46 17.5 86.5t47.5 71.5t71.5 49t89.5 18q45 0 85.5 -17.5t71.5 -48.5t49.5 -72t18.5 -87q0 -20 -3 -41h537v-185zM-751 -1157q0 22 -14.5 36.5t-36.5 14.5t-36 -14.5t-14 -36.5t14 -36t36 -14t36.5 14
t14.5 36z" />
    <glyph glyph-name="matraAiBelow4" 
d="M-42 -1626h-759q-47 0 -88 18t-71.5 48.5t-48.5 71.5t-18 88q0 46 17.5 86.5t47.5 71.5t71.5 49t89.5 18q45 0 85.5 -17.5t71.5 -48.5t49.5 -72t18.5 -87q0 -20 -3 -41h537v-185zM-751 -1401q0 22 -14.5 36.5t-36.5 14.5t-36 -14.5t-14 -36.5t14 -36t36 -14t36.5 14
t14.5 36z" />
    <glyph glyph-name="matraAiBelow5" 
d="M-146 -570h-1105q-46 0 -87 18t-71.5 49t-48.5 72t-18 87t17.5 86.5t48 71.5t71.5 49t88 18q45 0 86 -17.5t72 -48.5t49.5 -72t18.5 -87q0 -20 -3 -41h882v-185zM-1199 -345q0 22 -14.5 36.5t-36.5 14.5t-36 -14.5t-14 -36.5t14 -36t36 -14t36.5 14t14.5 36z" />
    <glyph glyph-name="matraAiBelow6" 
d="M-146 -932h-1105q-46 0 -87 18t-71.5 49t-48.5 72t-18 87t17.5 86.5t48 71.5t71.5 49t88 18q45 0 86 -17.5t72 -48.5t49.5 -72t18.5 -87q0 -20 -3 -41h882v-185zM-1199 -707q0 22 -14.5 36.5t-36.5 14.5t-36 -14.5t-14 -36.5t14 -36t36 -14t36.5 14t14.5 36z" />
    <glyph glyph-name="matraAiBelow7" 
d="M-146 -1452h-1105q-46 0 -87 18t-71.5 49t-48.5 72t-18 87t17.5 86.5t48 71.5t71.5 49t88 18q45 0 86 -17.5t72 -48.5t49.5 -72t18.5 -87q0 -20 -3 -41h882v-185zM-1199 -1227q0 22 -14.5 36.5t-36.5 14.5t-36 -14.5t-14 -36.5t14 -36t36 -14t36.5 14t14.5 36z" />
    <glyph glyph-name="matraAiBelow8" 
d="M-147.555 -1662.25h-1101.63q-45.8594 0 -86.7344 16.6816t-71.2812 45.4111q-30.4072 28.7295 -48.3525 66.7266t-17.9453 80.6279t17.4473 80.1641q17.4463 37.5342 47.8535 66.2637q30.4062 28.7295 71.2812 45.4111t87.7314 16.6816q44.8633 0 85.7383 -16.2178
q40.874 -16.2188 71.7803 -44.9482q30.9053 -28.7295 49.3486 -66.7266t18.4434 -80.6279q0 -18.5352 -2.99121 -37.9971h879.309v-171.45zM-1197.34 -1453.73q0 20.3887 -14.4561 33.8271q-14.4551 13.4375 -36.3887 13.4375q-21.9326 0 -35.8896 -13.4375
q-13.958 -13.4385 -13.958 -33.8271t13.958 -33.3633q13.957 -12.9746 35.8896 -12.9746q21.9336 0 36.3887 12.9746q14.4561 12.9746 14.4561 33.3633z" />
    <glyph glyph-name="matraAiBelow9" 
d="M-754 -570h-1116q-46 0 -87 18t-72 48.5t-49 71.5t-18 88q0 46 17.5 86.5t48 71.5t71.5 49t89 18q45 0 86 -17.5t72 -48t49.5 -71.5t18.5 -88q0 -22 -4 -41h894v-185zM-1819 -345q0 22 -14.5 36.5t-36.5 14.5t-36 -14.5t-14 -36.5t14 -36t36 -14t36.5 14t14.5 36z" />
    <glyph glyph-name="matraAiBelow10" 
d="M-754 -932h-1116q-46 0 -87 18t-72 48.5t-49 71.5t-18 88q0 46 17.5 86.5t48 71.5t71.5 49t89 18q45 0 86 -17.5t72 -48t49.5 -71.5t18.5 -88q0 -22 -4 -41h894v-185zM-1819 -707q0 22 -14.5 36.5t-36.5 14.5t-36 -14.5t-14 -36.5t14 -36t36 -14t36.5 14t14.5 36z" />
    <glyph glyph-name="matraAiBelow11" 
d="M-754 -1452h-1116q-46 0 -87 18t-72 48.5t-49 71.5t-18 88q0 46 17.5 86.5t48 71.5t71.5 49t89 18q45 0 86 -17.5t72 -48t49.5 -71.5t18.5 -88q0 -22 -4 -41h894v-185zM-1819 -1227q0 22 -14.5 36.5t-36.5 14.5t-36 -14.5t-14 -36.5t14 -36t36 -14t36.5 14t14.5 36z" />
    <glyph glyph-name="matraAiBelow12" 
d="M-753.85 -1663.25h-1114.3q-45.9297 0 -86.8672 16.6816t-71.8906 44.9473q-30.9521 28.2666 -48.9248 66.2637t-17.9727 81.5547q0 42.6309 17.4736 80.1641q17.4727 37.5342 47.9268 66.2637q30.4531 28.7295 71.3906 45.4111t88.8643 16.6816
q44.9316 0 85.8691 -16.2178q40.9375 -16.2188 71.8896 -44.4844q30.9521 -28.2666 49.4248 -66.2637q18.4717 -37.9971 18.4717 -81.5547q0 -20.3887 -3.99414 -37.9971h892.636v-171.45zM-1817.22 -1454.73q0 20.3887 -14.4775 33.8271q-14.4775 13.4375 -36.4443 13.4375
t-35.9453 -13.4375q-13.9785 -13.4385 -13.9785 -33.8271t13.9785 -33.3633t35.9453 -12.9746t36.4443 12.9746t14.4775 33.3633z" />
    <glyph glyph-name="matraAiBelow13" 
d="M-18 -942h-1116q-47 0 -88 18t-71.5 48.5t-48.5 71.5t-18 88q0 46 17.5 86.5t47.5 71.5t71.5 49t89.5 18q45 0 85.5 -17.5t71.5 -48.5t49.5 -72t18.5 -87q0 -11 -0.5 -20.5t-2.5 -20.5h894v-185zM-1085 -717q0 22 -14.5 36.5t-36.5 14.5t-36 -14.5t-14 -36.5t14 -36
t36 -14t36.5 14t14.5 36z" />
    <glyph glyph-name="matraAiBelow14" 
d="M-18 -1462h-1116q-47 0 -88 18t-71.5 48.5t-48.5 71.5t-18 88q0 46 17.5 86.5t47.5 71.5t71.5 49t89.5 18q45 0 85.5 -17.5t71.5 -48.5t49.5 -72t18.5 -87q0 -11 -0.5 -20.5t-2.5 -20.5h894v-185zM-1085 -1237q0 22 -14.5 36.5t-36.5 14.5t-36 -14.5t-14 -36.5t14 -36
t36 -14t36.5 14t14.5 36z" />
    <glyph glyph-name="matraAiBelow15" 
d="M-18 -1706h-1116q-47 0 -88 18t-71.5 48.5t-48.5 71.5t-18 88q0 46 17.5 86.5t47.5 71.5t71.5 49t89.5 18q45 0 85.5 -17.5t71.5 -48.5t49.5 -72t18.5 -87q0 -11 -0.5 -20.5t-2.5 -20.5h894v-185zM-1085 -1481q0 22 -14.5 36.5t-36.5 14.5t-36 -14.5t-14 -36.5t14 -36
t36 -14t36.5 14t14.5 36z" />
    <glyph glyph-name="matraAiBelow16" 
d="M-1149 -500h-1116q-47 0 -88 18t-71.5 48.5t-48.5 71.5t-18 88q0 46 17.5 86.5t47.5 71.5t71.5 49t89.5 18q45 0 86 -18t72 -48.5t49.5 -71.5t18.5 -87q0 -22 -4 -41h894v-185zM-2216 -275q0 22 -14.5 36.5t-36.5 14.5t-36 -14.5t-14 -36.5t14 -36t36 -14t36.5 14
t14.5 36z" />
    <glyph glyph-name="matraAiBelow17" 
d="M-1149 -862h-1116q-47 0 -88 18t-71.5 48.5t-48.5 71.5t-18 88q0 46 17.5 86.5t47.5 71.5t71.5 49t89.5 18q45 0 86 -18t72 -48.5t49.5 -71.5t18.5 -87q0 -22 -4 -41h894v-185zM-2216 -637q0 22 -14.5 36.5t-36.5 14.5t-36 -14.5t-14 -36.5t14 -36t36 -14t36.5 14
t14.5 36z" />
    <glyph glyph-name="matraAiBelow18" 
d="M-1149 -1382h-1116q-47 0 -88 18t-71.5 48.5t-48.5 71.5t-18 88q0 46 17.5 86.5t47.5 71.5t71.5 49t89.5 18q45 0 86 -18t72 -48.5t49.5 -71.5t18.5 -87q0 -22 -4 -41h894v-185zM-2216 -1157q0 22 -14.5 36.5t-36.5 14.5t-36 -14.5t-14 -36.5t14 -36t36 -14t36.5 14
t14.5 36z" />
    <glyph glyph-name="matraAiBelow19" 
d="M-1149 -1626h-1116q-47 0 -88 18t-71.5 48.5t-48.5 71.5t-18 88q0 46 17.5 86.5t47.5 71.5t71.5 49t89.5 18q45 0 86 -18t72 -48.5t49.5 -71.5t18.5 -87q0 -22 -4 -41h894v-185zM-2216 -1401q0 22 -14.5 36.5t-36.5 14.5t-36 -14.5t-14 -36.5t14 -36t36 -14t36.5 14
t14.5 36z" />
    <glyph glyph-name="matraAiBelow20" 
d="M-110 -500h-772q-47 0 -88 18t-71.5 48.5t-48.5 71.5t-18 88q0 46 17.5 86.5t47.5 71.5t71.5 49t89.5 18q45 0 85.5 -17.5t71.5 -48.5t49.5 -72t18.5 -87q0 -20 -3 -41h550v-185zM-832 -275q0 22 -14.5 36.5t-36.5 14.5t-36 -14.5t-14 -36.5t14 -36t36 -14t36.5 14
t14.5 36z" />
    <glyph glyph-name="matraAiBelow21" 
d="M-110 -862h-772q-47 0 -88 18t-71.5 48.5t-48.5 71.5t-18 88q0 46 17.5 86.5t47.5 71.5t71.5 49t89.5 18q45 0 85.5 -17.5t71.5 -48.5t49.5 -72t18.5 -87q0 -20 -3 -41h550v-185zM-832 -637q0 22 -14.5 36.5t-36.5 14.5t-36 -14.5t-14 -36.5t14 -36t36 -14t36.5 14
t14.5 36z" />
    <glyph glyph-name="matraAiBelow22" 
d="M-110 -1382h-772q-47 0 -88 18t-71.5 48.5t-48.5 71.5t-18 88q0 46 17.5 86.5t47.5 71.5t71.5 49t89.5 18q45 0 85.5 -17.5t71.5 -48.5t49.5 -72t18.5 -87q0 -20 -3 -41h550v-185zM-832 -1157q0 22 -14.5 36.5t-36.5 14.5t-36 -14.5t-14 -36.5t14 -36t36 -14t36.5 14
t14.5 36z" />
    <glyph glyph-name="matraAiBelow23" 
d="M-110 -1626h-772q-47 0 -88 18t-71.5 48.5t-48.5 71.5t-18 88q0 46 17.5 86.5t47.5 71.5t71.5 49t89.5 18q45 0 85.5 -17.5t71.5 -48.5t49.5 -72t18.5 -87q0 -20 -3 -41h550v-185zM-832 -1401q0 22 -14.5 36.5t-36.5 14.5t-36 -14.5t-14 -36.5t14 -36t36 -14t36.5 14
t14.5 36z" />
    <glyph glyph-name="matraAiBelow24" 
d="M-613 -580h-1116q-47 0 -88 18t-71.5 48.5t-48.5 71.5t-18 88q0 46 17.5 86.5t47.5 71.5t71.5 49t89.5 18q45 0 85.5 -17.5t71.5 -48.5t49.5 -72t18.5 -87q0 -11 -0.5 -20.5t-2.5 -20.5h894v-185zM-1680 -355q0 22 -14.5 36.5t-36.5 14.5t-36 -14.5t-14 -36.5t14 -36
t36 -14t36.5 14t14.5 36z" />
    <glyph glyph-name="matraAiBelow25" 
d="M-613 -942h-1116q-47 0 -88 18t-71.5 48.5t-48.5 71.5t-18 88q0 46 17.5 86.5t47.5 71.5t71.5 49t89.5 18q45 0 85.5 -17.5t71.5 -48.5t49.5 -72t18.5 -87q0 -11 -0.5 -20.5t-2.5 -20.5h894v-185zM-1680 -717q0 22 -14.5 36.5t-36.5 14.5t-36 -14.5t-14 -36.5t14 -36
t36 -14t36.5 14t14.5 36z" />
    <glyph glyph-name="matraAiBelow26" 
d="M-613 -1462h-1116q-47 0 -88 18t-71.5 48.5t-48.5 71.5t-18 88q0 46 17.5 86.5t47.5 71.5t71.5 49t89.5 18q45 0 85.5 -17.5t71.5 -48.5t49.5 -72t18.5 -87q0 -11 -0.5 -20.5t-2.5 -20.5h894v-185zM-1680 -1237q0 22 -14.5 36.5t-36.5 14.5t-36 -14.5t-14 -36.5t14 -36
t36 -14t36.5 14t14.5 36z" />
    <glyph glyph-name="matraAiBelow27" 
d="M-613 -1706h-1116q-47 0 -88 18t-71.5 48.5t-48.5 71.5t-18 88q0 46 17.5 86.5t47.5 71.5t71.5 49t89.5 18q45 0 85.5 -17.5t71.5 -48.5t49.5 -72t18.5 -87q0 -11 -0.5 -20.5t-2.5 -20.5h894v-185zM-1680 -1481q0 22 -14.5 36.5t-36.5 14.5t-36 -14.5t-14 -36.5t14 -36
t36 -14t36.5 14t14.5 36z" />
    <glyph glyph-name="matraAiBelow28" 
d="M-149 -538h-829q-46 0 -87 18t-72 49t-49 72t-18 87t17.5 87.5t48 72t72 48.5t88.5 18q45 0 86 -18t72 -49t49.5 -72t18.5 -87q0 -22 -4 -41h607v-185zM-930 -312q0 22 -14.5 36.5t-36.5 14.5t-36 -14.5t-14 -36.5t14 -36t36 -14t36.5 14t14.5 36z" />
    <glyph glyph-name="matraAiBelow29" 
d="M-149 -910h-829q-46 0 -87 18t-72 49t-49 72t-18 87t17.5 87.5t48 72t72 48.5t88.5 18q45 0 86 -18t72 -49t49.5 -72t18.5 -87q0 -22 -4 -41h607v-185zM-930 -684q0 22 -14.5 36.5t-36.5 14.5t-36 -14.5t-14 -36.5t14 -36t36 -14t36.5 14t14.5 36z" />
    <glyph glyph-name="matraAiBelow30" 
d="M-149 -1430h-829q-46 0 -87 18t-72 49t-49 72t-18 87t17.5 87.5t48 72t72 48.5t88.5 18q45 0 86 -18t72 -49t49.5 -72t18.5 -87q0 -22 -4 -41h607v-185zM-930 -1204q0 22 -14.5 36.5t-36.5 14.5t-36 -14.5t-14 -36.5t14 -36t36 -14t36.5 14t14.5 36z" />
    <glyph glyph-name="matraAiBelow31" 
d="M-149 -1624h-829q-46 0 -87 18t-72 49t-49 72t-18 87t17.5 87.5t48 72t72 48.5t88.5 18q45 0 86 -18t72 -49t49.5 -72t18.5 -87q0 -22 -4 -41h607v-185zM-930 -1398q0 22 -14.5 36.5t-36.5 14.5t-36 -14.5t-14 -36.5t14 -36t36 -14t36.5 14t14.5 36z" />
    <glyph glyph-name="matraO2" horiz-adv-x="286" 
d="M227 1198q0 -52 -20 -98.5t-55 -81.5t-81.5 -55.5t-100.5 -20.5q-53 0 -100 20.5t-82 55t-55 81t-20 99.5q0 8 0.5 14.5t1.5 14.5q-54 -45 -54 -129h-185q0 92 -42 139h1q-42 43 -101 43q-32 0 -57.5 -13t-43.5 -34t-27.5 -48t-9.5 -55q0 -57 43.5 -92.5t120.5 -40.5
v-216q-79 1 -143.5 30.5t-110 78t-70 111t-24.5 129.5q0 69 24.5 130t67.5 106.5t102 72t128 26.5t130 -32t112 -94q126 117 360 117q67 0 120.5 -18t91.5 -51.5t58.5 -81t20.5 -107.5zM42 1198q0 15 -6 28t-16 22.5t-23 15.5t-27 6q-29 0 -50.5 -21.5t-21.5 -50.5
q0 -28 21.5 -50t50.5 -22t50.5 22t21.5 50z" />
    <glyph glyph-name="matraO3" horiz-adv-x="324" 
d="M263 1198q0 -53 -20.5 -100t-55.5 -81.5t-81.5 -54.5t-99.5 -20t-99.5 20t-81 55t-55 81.5t-20.5 99.5v14t1 13q-52 -42 -52 -127h-185q0 93 -44 139v-1q-44 44 -106 44q-69 0 -109 -42t-40 -112q0 -27 6.5 -47.5t22.5 -36t44 -26t72 -16.5v-216q-80 11 -141.5 41.5
t-103.5 76t-63.5 103t-21.5 121.5q0 67 26.5 128.5t72 108.5t106.5 74.5t129 27.5q76 0 135.5 -28t114.5 -99q133 118 360 118q61 0 114 -18.5t92 -52t61 -81.5t22 -106zM78 1198q0 30 -21 51t-51 21q-29 0 -50 -21t-21 -51q0 -29 21 -50.5t50 -21.5q15 0 28 6t22.5 16
t15.5 23t6 27z" />
    <glyph glyph-name="matraO4" horiz-adv-x="334" 
d="M238 1235q0 -53 -20 -99.5t-55 -81.5t-81.5 -55t-99.5 -20q-54 0 -100.5 20.5t-81.5 55.5t-55 81.5t-20 98.5q0 8 0.5 14.5t1.5 14.5q-35 -13 -50 -55t-15 -92h-185q-1 37 -8.5 70t-24.5 58t-44 39.5t-66 14.5q-73 0 -109 -45t-36 -114q0 -26 7.5 -51.5t25 -45.5t45 -32
t67.5 -12v-215q-73 2 -133.5 32t-104 79.5t-68 113t-24.5 131.5q0 71 26 134t70.5 109.5t104.5 73.5t129 27q76 0 134.5 -30t107.5 -87q30 25 68.5 48t84 40.5t97 27.5t108.5 10q65 0 121 -18t96.5 -51.5t63.5 -81t23 -107.5zM53 1235q0 30 -21 51t-50 21q-30 0 -51 -21
t-21 -51q0 -14 6 -27t15.5 -23t22.5 -16t28 -6q29 0 50 21.5t21 50.5z" />
    <glyph glyph-name="matraO5" horiz-adv-x="418" 
d="M370 1198q0 -52 -20 -98.5t-55 -81.5t-81.5 -55.5t-100.5 -20.5q-53 0 -100 20.5t-82 55t-55 81t-20 99.5q0 8 0.5 14.5t1.5 14.5q-54 -45 -54 -129h-185q0 92 -42 139h1q-42 43 -101 43q-32 0 -57.5 -13t-43.5 -34t-27.5 -48t-9.5 -55q0 -57 43.5 -92.5t120.5 -40.5
v-216q-79 1 -143.5 30.5t-110 78t-70 111t-24.5 129.5q0 69 24.5 130t67.5 106.5t102 72t128 26.5t130 -32t112 -94q126 117 360 117q67 0 120.5 -18t91.5 -51.5t58.5 -81t20.5 -107.5zM185 1198q0 15 -6 28t-16 22.5t-23 15.5t-27 6q-29 0 -50.5 -21.5t-21.5 -50.5
q0 -28 21.5 -50t50.5 -22t50.5 22t21.5 50z" />
    <glyph glyph-name="matraO6" horiz-adv-x="788" 
d="M728 1198q0 -52 -20 -98.5t-55 -81.5t-81.5 -55.5t-100.5 -20.5q-53 0 -100 20.5t-82 55t-55 81t-20 99.5q0 8 0.5 14.5t1.5 14.5q-54 -45 -54 -129h-185q0 92 -42 139h1q-42 43 -101 43q-32 0 -57.5 -13t-43.5 -34t-27.5 -48t-9.5 -55q0 -57 43.5 -92.5t120.5 -40.5
v-216q-79 1 -143.5 30.5t-110 78t-70 111t-24.5 129.5q0 69 24.5 130t67.5 106.5t102 72t128 26.5t130 -32t112 -94q126 117 360 117q67 0 120.5 -18t91.5 -51.5t58.5 -81t20.5 -107.5zM543 1198q0 15 -6 28t-16 22.5t-23 15.5t-27 6q-29 0 -50.5 -21.5t-21.5 -50.5
q0 -28 21.5 -50t50.5 -22t50.5 22t21.5 50z" />
    <glyph glyph-name="matraO7" horiz-adv-x="752" 
d="M659 1198q0 -53 -20 -99.5t-55 -81.5t-81.5 -55t-99.5 -20q-54 0 -100.5 20.5t-81.5 55.5t-55 81.5t-20 98.5v15t1 13q-52 -43 -52 -128h-185q0 48 -12 82.5t-32.5 56.5t-47.5 32.5t-57 10.5q-31 0 -58 -12.5t-47.5 -33t-32.5 -47.5t-12 -57q0 -56 33 -92.5t112 -41.5
v-215q-78 6 -139.5 37.5t-103.5 79.5t-64 108t-22 124q0 69 26.5 130t71.5 106.5t106 72t130 26.5t133 -33.5t115 -92.5q126 117 354 117q65 0 119.5 -17.5t93.5 -51t61 -81.5t22 -108zM475 1198q0 15 -6 28t-16 22.5t-23 15.5t-27 6q-30 0 -51 -21t-21 -51q0 -14 6 -27
t15.5 -23t22.5 -16t28 -6q28 0 50 22t22 50z" />
    <glyph glyph-name="matraO8" horiz-adv-x="474" 
d="M368 1198q0 -52 -20 -98.5t-55 -81.5t-81.5 -55.5t-100.5 -20.5q-53 0 -100 20.5t-82 55t-55 81t-20 99.5q0 8 0.5 14.5t1.5 14.5q-54 -45 -54 -129h-185q0 92 -42 139h1q-42 43 -101 43q-32 0 -57.5 -13t-43.5 -34t-27.5 -48t-9.5 -55q0 -57 43.5 -92.5t120.5 -40.5
v-216q-79 1 -143.5 30.5t-110 78t-70 111t-24.5 129.5q0 69 24.5 130t67.5 106.5t102 72t128 26.5t130 -32t112 -94q126 117 360 117q67 0 120.5 -18t91.5 -51.5t58.5 -81t20.5 -107.5zM183 1198q0 15 -6 28t-16 22.5t-23 15.5t-27 6q-29 0 -50.5 -21.5t-21.5 -50.5
q0 -28 21.5 -50t50.5 -22t50.5 22t21.5 50z" />
    <glyph glyph-name="matraO9" horiz-adv-x="144" 
d="M89 1201q0 -53 -20.5 -100t-55.5 -81.5t-81.5 -54.5t-99.5 -20t-99.5 20t-81 55t-55 81.5t-20.5 99.5q0 8 0.5 15.5t1.5 14.5q-28 -21 -40.5 -53t-12.5 -77h-185q0 48 -12 82t-32.5 56.5t-48 33t-57.5 10.5t-57.5 -12.5t-47.5 -33t-32 -47.5t-12 -57q0 -29 7 -53.5
t24 -42.5t44.5 -28t69.5 -10v-215q-83 0 -144.5 28t-103 76t-62 111.5t-20.5 133.5t26.5 131t72.5 106.5t106.5 71.5t128.5 26q70 0 134 -33.5t115 -92.5q126 117 353 117q64 0 118 -18.5t94 -52t62.5 -81.5t22.5 -106zM-96 1201q0 30 -21 51t-51 21q-29 0 -50 -21t-21 -51
q0 -29 21 -50.5t50 -21.5q15 0 28 6t22.5 16t15.5 23t6 27z" />
    <glyph glyph-name="matraO10" horiz-adv-x="326" 
d="M265 1198q0 -52 -20 -98.5t-55 -81.5t-81.5 -55.5t-100.5 -20.5q-53 0 -99.5 20t-81.5 55t-55 81.5t-20 99.5q0 8 0.5 14.5t1.5 14.5q-55 -43 -55 -129h-184q0 48 -12 82.5t-33 56.5t-48 32.5t-57 10.5t-57.5 -12.5t-47.5 -33t-32 -47.5t-12 -57q0 -56 32.5 -92
t112.5 -42v-215q-79 6 -140.5 38t-103.5 80.5t-64 108.5t-22 122q0 70 26.5 131t72.5 106.5t106.5 71.5t128.5 26q70 0 133.5 -33.5t115.5 -92.5q126 117 354 117q64 0 118 -18.5t94 -52t62.5 -81.5t22.5 -106zM80 1198q0 30 -21 51t-51 21q-29 0 -50 -21t-21 -51
q0 -29 21 -50.5t50 -21.5q15 0 28 6t22.5 16t15.5 23t6 27z" />
    <glyph glyph-name="matraO11" 
d="M441 1019q0 -53 -20.5 -99.5t-55.5 -81.5t-82 -55.5t-99 -20.5q-53 0 -100 20t-82 55t-55 82t-20 100q0 34 11 70q-14 1 -29.5 1h-33.5q-412 0 -466 -172h-175q0 48 -12.5 82.5t-33 57t-47.5 33t-56 10.5q-31 0 -58 -8t-47.5 -23t-32.5 -37.5t-12 -51.5q0 -55 38.5 -92
t106.5 -43v-214q-79 7 -140.5 39t-103.5 80t-64 107.5t-22 122.5q0 69 26.5 125.5t72 96t106.5 61.5t130 22q152 0 249 -113q154 117 661 117q121 0 206 -16t138 -49t77.5 -84.5t24.5 -121.5zM256 1019q0 29 -21.5 50.5t-50.5 21.5t-50.5 -21.5t-21.5 -50.5t21.5 -50.5
t50.5 -21.5t50.5 21.5t21.5 50.5z" />
    <glyph glyph-name="matraO12" horiz-adv-x="456" 
d="M362 1198q0 -52 -20 -98.5t-55 -81.5t-81.5 -55.5t-100.5 -20.5q-53 0 -100 20.5t-82 55t-55 81t-20 99.5q0 8 0.5 14.5t1.5 14.5q-54 -45 -54 -129h-185q0 92 -42 139h1q-42 43 -101 43q-32 0 -57.5 -13t-43.5 -34t-27.5 -48t-9.5 -55q0 -57 43.5 -92.5t120.5 -40.5
v-216q-79 1 -143.5 30.5t-110 78t-70 111t-24.5 129.5q0 69 24.5 130t67.5 106.5t102 72t128 26.5t130 -32t112 -94q126 117 360 117q67 0 120.5 -18t91.5 -51.5t58.5 -81t20.5 -107.5zM177 1198q0 15 -6 28t-16 22.5t-23 15.5t-27 6q-29 0 -50.5 -21.5t-21.5 -50.5
q0 -28 21.5 -50t50.5 -22t50.5 22t21.5 50z" />
    <glyph glyph-name="matraO13" 
d="M392 1198q0 -52 -20 -98.5t-55 -81.5t-81.5 -55.5t-100.5 -20.5q-53 0 -100 20.5t-82 55t-55 81t-20 99.5q0 8 0.5 14.5t1.5 14.5q-54 -45 -54 -129h-185q0 92 -42 139h1q-42 43 -101 43q-32 0 -57.5 -13t-43.5 -34t-27.5 -48t-9.5 -55q0 -57 43.5 -92.5t120.5 -40.5
v-216q-79 1 -143.5 30.5t-110 78t-70 111t-24.5 129.5q0 69 24.5 130t67.5 106.5t102 72t128 26.5t130 -32t112 -94q126 117 360 117q67 0 120.5 -18t91.5 -51.5t58.5 -81t20.5 -107.5zM207 1198q0 15 -6 28t-16 22.5t-23 15.5t-27 6q-29 0 -50.5 -21.5t-21.5 -50.5
q0 -28 21.5 -50t50.5 -22t50.5 22t21.5 50z" />
    <glyph glyph-name="matraO14" horiz-adv-x="516" 
d="M429 1198q0 -52 -20 -98.5t-55 -81.5t-81.5 -55.5t-100.5 -20.5q-53 0 -100 20.5t-82 55t-55 81t-20 99.5q0 8 0.5 14.5t1.5 14.5q-54 -45 -54 -129h-185q0 92 -42 139h1q-42 43 -101 43q-32 0 -57.5 -13t-43.5 -34t-27.5 -48t-9.5 -55q0 -57 43.5 -92.5t120.5 -40.5
v-216q-79 1 -143.5 30.5t-110 78t-70 111t-24.5 129.5q0 69 24.5 130t67.5 106.5t102 72t128 26.5t130 -32t112 -94q126 117 360 117q67 0 120.5 -18t91.5 -51.5t58.5 -81t20.5 -107.5zM244 1198q0 15 -6 28t-16 22.5t-23 15.5t-27 6q-29 0 -50.5 -21.5t-21.5 -50.5
q0 -28 21.5 -50t50.5 -22t50.5 22t21.5 50z" />
    <glyph glyph-name="matraO15" horiz-adv-x="556" 
d="M488 1198q0 -52 -20 -98.5t-55 -81.5t-81.5 -55.5t-100.5 -20.5q-53 0 -100 20.5t-82 55t-55 81t-20 99.5q0 8 0.5 14.5t1.5 14.5q-54 -45 -54 -129h-185q0 92 -42 139h1q-42 43 -101 43q-32 0 -57.5 -13t-43.5 -34t-27.5 -48t-9.5 -55q0 -57 43.5 -92.5t120.5 -40.5
v-216q-79 1 -143.5 30.5t-110 78t-70 111t-24.5 129.5q0 69 24.5 130t67.5 106.5t102 72t128 26.5t130 -32t112 -94q126 117 360 117q67 0 120.5 -18t91.5 -51.5t58.5 -81t20.5 -107.5zM303 1198q0 15 -6 28t-16 22.5t-23 15.5t-27 6q-29 0 -50.5 -21.5t-21.5 -50.5
q0 -28 21.5 -50t50.5 -22t50.5 22t21.5 50z" />
    <glyph glyph-name="matraO16" horiz-adv-x="402" 
d="M337 1198q0 -52 -20 -98.5t-55 -81.5t-81.5 -55.5t-100.5 -20.5q-53 0 -99.5 20t-81.5 55t-55 81.5t-20 99.5q0 13 1 26.5t3 26.5q-54 -14 -88.5 -49t-34.5 -104h-185q0 48 -14 82.5t-36.5 56.5t-50.5 32.5t-57 10.5q-30 0 -58.5 -12t-51 -32t-36 -47.5t-13.5 -58.5
q0 -116 135 -135v-213q-78 6 -137.5 37.5t-100 79.5t-61.5 108t-21 123q0 69 28 129.5t75.5 106.5t110 72.5t130.5 26.5q151 0 257 -127q31 27 75 49t96.5 37.5t111 24t117.5 8.5q74 0 133 -18.5t100 -52t63 -81.5t22 -107zM152 1198q0 30 -21 51t-51 21q-14 0 -27 -6
t-23 -15.5t-16 -22.5t-6 -28q0 -28 22 -50t50 -22q15 0 28 6t22.5 16t15.5 23t6 27z" />
    <glyph glyph-name="matraO17" horiz-adv-x="394" 
d="M331 1197q0 -52 -20 -98.5t-55 -81.5t-81.5 -55.5t-100.5 -20.5q-53 0 -100 20.5t-82 55t-55 81t-20 99.5q0 8 0.5 14t1.5 14q-26 -22 -40 -54t-14 -74h-185q0 48 -12 83t-32.5 57t-47.5 32.5t-57 10.5t-57 -12.5t-47.5 -33.5t-32.5 -48t-12 -57q0 -114 144 -135v-212
q-78 6 -139 37.5t-103.5 79.5t-64.5 108t-22 122q0 69 26.5 130t72 106.5t106.5 72t129 26.5q69 0 133 -33.5t115 -92.5q126 117 355 117q63 0 117.5 -18.5t94.5 -52t62.5 -81.5t22.5 -106zM146 1197q0 30 -21 51t-51 21q-14 0 -27 -6t-23 -15.5t-16 -22.5t-6 -28
q0 -29 21.5 -50t50.5 -21q30 0 51 21t21 50z" />
    <glyph glyph-name="matraO18" horiz-adv-x="144" 
d="M89 1198q0 -53 -20 -99.5t-55 -81.5t-81.5 -55t-99.5 -20q-54 0 -100.5 20.5t-81.5 55.5t-55 81.5t-20 98.5q0 8 0.5 14.5t1.5 14.5q-55 -42 -55 -129h-185q0 48 -12 82.5t-32.5 56.5t-47.5 32.5t-57 10.5q-34 0 -60 -12.5t-44 -34t-27 -50.5t-9 -62q0 -28 7.5 -52
t26.5 -42t50.5 -29.5t78.5 -13.5v-203q-83 3 -148 32t-109.5 75.5t-67.5 107t-23 125.5q0 73 24 135.5t67 109t103 73t131 26.5q69 0 133 -33.5t115 -92.5q64 55 154 86t201 31q64 0 118.5 -18.5t94 -52.5t62 -81.5t22.5 -105.5zM-96 1198q0 30 -21 51t-50 21q-30 0 -51 -21
t-21 -51q0 -14 6 -27t15.5 -23t22.5 -16t28 -6q29 0 50 21.5t21 50.5z" />
    <glyph glyph-name="matraO19" horiz-adv-x="250" 
d="M186 1198q0 -53 -20 -99.5t-55 -81.5t-81.5 -55t-99.5 -20q-54 0 -100.5 20.5t-81.5 55.5t-55 81.5t-20 98.5q0 12 1.5 25.5t3.5 25.5q-53 -17 -87.5 -54t-34.5 -97h-185q0 48 -14 82.5t-36.5 56.5t-50.5 32.5t-57 10.5q-30 0 -58.5 -12t-51 -32t-36 -47.5t-13.5 -58.5
q0 -119 136 -135v-214q-77 6 -136.5 37.5t-100.5 80t-62.5 108.5t-21.5 123q0 69 28 129.5t75.5 106.5t110 72.5t130.5 26.5q151 0 256 -125q63 60 157.5 89t222.5 29q337 0 337 -260zM1 1198q0 30 -21 51t-50 21q-30 0 -51 -21t-21 -51q0 -14 6 -27t15.5 -23t22.5 -16
t28 -6q29 0 50 21.5t21 50.5z" />
    <glyph glyph-name="matraOo2" horiz-adv-x="286" 
d="M227 1201q0 -52 -20 -98.5t-55 -81.5t-81.5 -55.5t-100.5 -20.5q-53 0 -100 20.5t-82 55t-55 81t-20 99.5q0 8 0.5 14.5t1.5 14.5q-54 -42 -54 -129h-185q-1 34 -9 67t-25.5 58.5t-44 41t-63.5 15.5q-66 0 -102 -41.5t-36 -108.5q0 -29 12.5 -53.5t34.5 -42.5t52 -28
t65 -9v-216q-80 0 -144.5 28.5t-109.5 76.5t-69.5 111t-24.5 133q0 72 23.5 133.5t66.5 106t102 70t130 25.5q74 0 133.5 -27.5t107.5 -84.5q70 60 187 87q-4 19 -4 42q0 42 17 80.5t46 68t67.5 46.5t81.5 17q42 0 87 -13.5t82.5 -41.5t61.5 -71.5t24 -103.5h-184
q0 15 -8 24.5t-18.5 15.5t-21.5 8t-18 2q-14 0 -23 -9t-9 -23q0 -20 34 -28q117 -26 183.5 -91t66.5 -165zM42 1201q0 15 -6 28t-16 22.5t-23 15.5t-27 6q-29 0 -50.5 -21.5t-21.5 -50.5q0 -28 21.5 -50t50.5 -22t50.5 22t21.5 50z" />
    <glyph glyph-name="matraOo3" horiz-adv-x="324" 
d="M263 1198q0 -53 -20.5 -100t-55.5 -81.5t-81.5 -54.5t-99.5 -20t-99.5 20t-81 55t-55 81.5t-20.5 99.5q0 8 0.5 15.5t1.5 14.5q-28 -21 -40.5 -53t-12.5 -77h-185q0 48 -12 82t-32.5 56.5t-48 33t-57.5 10.5q-69 0 -109 -42.5t-40 -111.5q0 -26 6.5 -49.5t22.5 -42.5
t44 -31.5t72 -15.5v-215q-79 6 -140.5 38.5t-103.5 81.5t-64 110t-22 124q0 72 26 133.5t71 107.5t106 72t131 26q153 0 249 -112q35 33 80.5 54t104.5 34q-3 21 -3 41q0 43 17 81.5t46 67.5t67 46t81 17q42 0 85 -12.5t78 -39.5t57 -69.5t22 -103.5h-184q0 15 -6.5 24.5
t-15.5 15.5t-19 8t-17 2q-13 0 -22 -8.5t-9 -22.5q0 -10 11 -20t27 -14q117 -26 183.5 -91t66.5 -165zM78 1198q0 30 -21 51t-51 21q-29 0 -50 -21t-21 -51q0 -29 21 -50.5t50 -21.5q15 0 28 6t22.5 16t15.5 23t6 27z" />
    <glyph glyph-name="matraOo4" horiz-adv-x="315" 
d="M213 1201q0 -52 -20 -98.5t-55 -81.5t-81.5 -55.5t-100.5 -20.5q-53 0 -100 20.5t-82 55t-55 81t-20 99.5q0 8 0.5 14.5t1.5 14.5q-54 -42 -54 -129h-185q-1 34 -9 67t-25.5 58.5t-44 41t-63.5 15.5q-66 0 -102 -41.5t-36 -108.5q0 -29 12.5 -53.5t34.5 -42.5t52 -28
t65 -9v-216q-80 0 -144.5 28.5t-109.5 76.5t-69.5 111t-24.5 133q0 72 23.5 133.5t66.5 106t102 70t130 25.5q74 0 133.5 -27.5t107.5 -84.5q70 60 187 87q-4 19 -4 42q0 42 17 80.5t46 68t67.5 46.5t81.5 17q42 0 87 -13.5t82.5 -41.5t61.5 -71.5t24 -103.5h-184
q0 15 -8 24.5t-18.5 15.5t-21.5 8t-18 2q-14 0 -23 -9t-9 -23q0 -20 34 -28q117 -26 183.5 -91t66.5 -165zM28 1201q0 15 -6 28t-16 22.5t-23 15.5t-27 6q-29 0 -50.5 -21.5t-21.5 -50.5q0 -28 21.5 -50t50.5 -22t50.5 22t21.5 50z" />
    <glyph glyph-name="matraOo5" horiz-adv-x="418" 
d="M370 1201q0 -52 -20 -98.5t-55 -81.5t-81.5 -55.5t-100.5 -20.5q-53 0 -100 20.5t-82 55t-55 81t-20 99.5q0 8 0.5 14.5t1.5 14.5q-54 -42 -54 -129h-185q-1 34 -9 67t-25.5 58.5t-44 41t-63.5 15.5q-66 0 -102 -41.5t-36 -108.5q0 -29 12.5 -53.5t34.5 -42.5t52 -28
t65 -9v-216q-80 0 -144.5 28.5t-109.5 76.5t-69.5 111t-24.5 133q0 72 23.5 133.5t66.5 106t102 70t130 25.5q74 0 133.5 -27.5t107.5 -84.5q70 60 187 87q-4 19 -4 42q0 42 17 80.5t46 68t67.5 46.5t81.5 17q42 0 87 -13.5t82.5 -41.5t61.5 -71.5t24 -103.5h-184
q0 15 -8 24.5t-18.5 15.5t-21.5 8t-18 2q-14 0 -23 -9t-9 -23q0 -20 34 -28q117 -26 183.5 -91t66.5 -165zM185 1201q0 15 -6 28t-16 22.5t-23 15.5t-27 6q-29 0 -50.5 -21.5t-21.5 -50.5q0 -28 21.5 -50t50.5 -22t50.5 22t21.5 50z" />
    <glyph glyph-name="matraOo6" horiz-adv-x="788" 
d="M728 1202q0 -52 -20 -98.5t-55 -81.5t-81.5 -55.5t-100.5 -20.5q-53 0 -100 20.5t-82 55t-55 81t-20 99.5q0 8 0.5 14.5t1.5 14.5q-54 -42 -54 -129h-185q-1 34 -9 67t-25.5 58.5t-44 41t-63.5 15.5q-66 0 -102 -41.5t-36 -108.5q0 -29 12.5 -53.5t34.5 -42.5t52 -28
t65 -9v-216q-80 0 -144.5 28.5t-109.5 76.5t-69.5 111t-24.5 133q0 72 23.5 133.5t66.5 106t102 70t130 25.5q74 0 133.5 -27.5t107.5 -84.5q70 60 187 87q-4 19 -4 42q0 42 17 80.5t46 68t67.5 46.5t81.5 17q42 0 87 -13.5t82.5 -41.5t61.5 -71.5t24 -103.5h-184
q0 15 -8 24.5t-18.5 15.5t-21.5 8t-18 2q-14 0 -23 -9t-9 -23q0 -20 34 -28q117 -26 183.5 -91t66.5 -165zM543 1202q0 15 -6 28t-16 22.5t-23 15.5t-27 6q-29 0 -50.5 -21.5t-21.5 -50.5q0 -28 21.5 -50t50.5 -22t50.5 22t21.5 50z" />
    <glyph glyph-name="matraOo7" horiz-adv-x="741" 
d="M660 1201q0 -53 -20 -99.5t-55 -81.5t-81.5 -55t-99.5 -20q-54 0 -100.5 20.5t-81.5 55.5t-55 81.5t-20 98.5q0 8 0.5 16t1.5 15q-53 -41 -53 -131h-185q-1 37 -9.5 70t-26.5 58t-46 39.5t-67 14.5q-70 0 -110 -39.5t-40 -110.5q0 -25 7.5 -49t25 -43t45 -30.5
t67.5 -11.5v-215q-83 0 -144.5 31t-102.5 81t-61.5 112.5t-20.5 124.5q0 70 25.5 131.5t70.5 106.5t106 71t132 26q76 0 138 -27.5t110 -84.5q36 33 81 54t105 34q-4 19 -4 41q0 43 17 81.5t46 67.5t67.5 46t81.5 17q42 0 85 -13t78 -40t57 -70t22 -103h-174q0 15 -7 25.5
t-16.5 17t-19.5 9.5t-17 3q-14 0 -24.5 -13.5t-10.5 -27.5q0 -10 9 -17.5t24 -10.5q117 -27 183.5 -91.5t66.5 -164.5zM476 1201q0 15 -6 28t-16 22.5t-23 15.5t-27 6q-30 0 -51 -21t-21 -51q0 -14 6 -27t15.5 -23t22.5 -16t28 -6q28 0 50 22t22 50z" />
    <glyph glyph-name="matraOo8" horiz-adv-x="481" 
d="M358 1201q0 -52 -20 -98.5t-55 -81.5t-81.5 -55.5t-100.5 -20.5q-53 0 -100 20.5t-82 55t-55 81t-20 99.5q0 8 0.5 14.5t1.5 14.5q-54 -42 -54 -129h-185q-1 34 -9 67t-25.5 58.5t-44 41t-63.5 15.5q-66 0 -102 -41.5t-36 -108.5q0 -29 12.5 -53.5t34.5 -42.5t52 -28
t65 -9v-216q-80 0 -144.5 28.5t-109.5 76.5t-69.5 111t-24.5 133q0 72 23.5 133.5t66.5 106t102 70t130 25.5q74 0 133.5 -27.5t107.5 -84.5q70 60 187 87q-4 19 -4 42q0 42 17 80.5t46 68t67.5 46.5t81.5 17q42 0 87 -13.5t82.5 -41.5t61.5 -71.5t24 -103.5h-184
q0 15 -8 24.5t-18.5 15.5t-21.5 8t-18 2q-14 0 -23 -9t-9 -23q0 -20 34 -28q117 -26 183.5 -91t66.5 -165zM173 1201q0 15 -6 28t-16 22.5t-23 15.5t-27 6q-29 0 -50.5 -21.5t-21.5 -50.5q0 -28 21.5 -50t50.5 -22t50.5 22t21.5 50z" />
    <glyph glyph-name="matraOo9" horiz-adv-x="144" 
d="M90 1198q0 -53 -20 -99.5t-55 -81.5t-81.5 -55t-99.5 -20q-54 0 -100.5 20.5t-81.5 55.5t-55 81.5t-20 98.5q0 8 0.5 16t1.5 15q-53 -41 -53 -131h-185q-1 37 -9.5 70t-26.5 58t-46 39.5t-67 14.5q-70 0 -110 -39.5t-40 -110.5q0 -51 33 -88.5t112 -45.5v-215
q-78 5 -139 37t-103.5 80.5t-64.5 109t-22 122.5q0 70 25.5 131.5t70.5 106.5t106 71t132 26q76 0 138 -27.5t110 -84.5q36 33 81 54t105 34q-4 19 -4 41q0 43 17 81.5t46 67.5t67.5 46t81.5 17q42 0 83.5 -14t74.5 -43.5t53.5 -73.5t20.5 -104h-174q-1 30 -18.5 42.5
t-31.5 12.5t-24.5 -9t-10.5 -23q0 -10 9 -17.5t24 -10.5q117 -27 183.5 -91.5t66.5 -164.5zM-94 1198q0 15 -6 28t-16 22.5t-23 15.5t-27 6q-30 0 -51 -21t-21 -51q0 -14 6 -27t15.5 -23t22.5 -16t28 -6q28 0 50 22t22 50z" />
    <glyph glyph-name="matraOo10" horiz-adv-x="326" 
d="M263 1198q0 -53 -20 -99.5t-55 -81.5t-81.5 -55t-99.5 -20q-54 0 -100.5 20.5t-81.5 55.5t-55 81.5t-20 98.5q0 8 0.5 16t1.5 15q-53 -41 -53 -131h-185q-1 37 -9.5 70t-26.5 58t-46 39.5t-67 14.5q-70 0 -110 -39.5t-40 -110.5q0 -51 33 -88.5t112 -45.5v-215
q-78 5 -139 37t-103.5 80.5t-64.5 109t-22 122.5q0 70 25.5 131.5t70.5 106.5t106 71t132 26q76 0 138 -27.5t110 -84.5q36 33 81 54t105 34q-4 19 -4 41q0 43 17 81.5t46 67.5t67.5 46t81.5 17q42 0 83.5 -14t74.5 -43.5t53.5 -73.5t20.5 -104h-174q-1 30 -18.5 42.5
t-31.5 12.5t-24.5 -9t-10.5 -23q0 -10 9 -17.5t24 -10.5q117 -27 183.5 -91.5t66.5 -164.5zM79 1198q0 15 -6 28t-16 22.5t-23 15.5t-27 6q-30 0 -51 -21t-21 -51q0 -14 6 -27t15.5 -23t22.5 -16t28 -6q28 0 50 22t22 50z" />
    <glyph glyph-name="matraOo11" 
d="M263 1290q-1 13 -9.5 22.5t-19.5 15.5t-22.5 9t-17.5 3q-14 0 -25.5 -7t-11.5 -20q0 -7 1.5 -16.5t6.5 -14.5q58 -8 108 -29.5t87.5 -55t59 -78.5t21.5 -100q0 -53 -20.5 -99.5t-55.5 -81.5t-82 -55.5t-99 -20.5q-53 0 -100 20t-82 55t-55 82t-20 100q0 18 3 35.5t8 35.5
h-46q-96 0 -181.5 -10t-150.5 -31t-103 -53.5t-38 -77.5h-185q-1 36 -9.5 69.5t-26.5 58.5t-46 40t-67 15q-31 0 -58 -8t-47.5 -23t-32.5 -37.5t-12 -51.5q0 -54 39 -90.5t106 -44.5v-213q-78 4 -139.5 35.5t-103.5 80t-64.5 109t-22.5 123.5q0 69 26.5 125.5t72 96
t106.5 61.5t130 22q152 0 250 -113q72 59 229 87t408 30v13q0 44 17 82.5t46 67.5t67.5 45.5t81.5 16.5q42 0 85.5 -13t78 -40t56.5 -69.5t22 -102.5h-163zM256 1019q0 29 -21.5 50.5t-50.5 21.5t-50.5 -21.5t-21.5 -50.5t21.5 -50.5t50.5 -21.5t50.5 21.5t21.5 50.5z" />
    <glyph glyph-name="matraOo12" horiz-adv-x="442" 
d="M362 1201q0 -52 -20 -98.5t-55 -81.5t-81.5 -55.5t-100.5 -20.5q-53 0 -100 20.5t-82 55t-55 81t-20 99.5q0 8 0.5 14.5t1.5 14.5q-54 -42 -54 -129h-185q-1 34 -9 67t-25.5 58.5t-44 41t-63.5 15.5q-66 0 -102 -41.5t-36 -108.5q0 -29 12.5 -53.5t34.5 -42.5t52 -28
t65 -9v-216q-80 0 -144.5 28.5t-109.5 76.5t-69.5 111t-24.5 133q0 72 23.5 133.5t66.5 106t102 70t130 25.5q74 0 133.5 -27.5t107.5 -84.5q70 60 187 87q-4 19 -4 42q0 42 17 80.5t46 68t67.5 46.5t81.5 17q42 0 87 -13.5t82.5 -41.5t61.5 -71.5t24 -103.5h-184
q0 15 -8 24.5t-18.5 15.5t-21.5 8t-18 2q-14 0 -23 -9t-9 -23q0 -20 34 -28q117 -26 183.5 -91t66.5 -165zM177 1201q0 15 -6 28t-16 22.5t-23 15.5t-27 6q-29 0 -50.5 -21.5t-21.5 -50.5q0 -28 21.5 -50t50.5 -22t50.5 22t21.5 50z" />
    <glyph glyph-name="matraOo13" 
d="M382 1201q0 -52 -20 -98.5t-55 -81.5t-81.5 -55.5t-100.5 -20.5q-53 0 -100 20.5t-82 55t-55 81t-20 99.5q0 8 0.5 14.5t1.5 14.5q-54 -42 -54 -129h-185q-1 34 -9 67t-25.5 58.5t-44 41t-63.5 15.5q-66 0 -102 -41.5t-36 -108.5q0 -29 12.5 -53.5t34.5 -42.5t52 -28
t65 -9v-216q-80 0 -144.5 28.5t-109.5 76.5t-69.5 111t-24.5 133q0 72 23.5 133.5t66.5 106t102 70t130 25.5q74 0 133.5 -27.5t107.5 -84.5q70 60 187 87q-4 19 -4 42q0 42 17 80.5t46 68t67.5 46.5t81.5 17q42 0 87 -13.5t82.5 -41.5t61.5 -71.5t24 -103.5h-184
q0 15 -8 24.5t-18.5 15.5t-21.5 8t-18 2q-14 0 -23 -9t-9 -23q0 -20 34 -28q117 -26 183.5 -91t66.5 -165zM197 1201q0 15 -6 28t-16 22.5t-23 15.5t-27 6q-29 0 -50.5 -21.5t-21.5 -50.5q0 -28 21.5 -50t50.5 -22t50.5 22t21.5 50z" />
    <glyph glyph-name="matraOo14" horiz-adv-x="513" 
d="M428 1201q0 -52 -20 -98.5t-55 -81.5t-81.5 -55.5t-100.5 -20.5q-53 0 -100 20.5t-82 55t-55 81t-20 99.5q0 8 0.5 14.5t1.5 14.5q-54 -42 -54 -129h-185q-1 34 -9 67t-25.5 58.5t-44 41t-63.5 15.5q-66 0 -102 -41.5t-36 -108.5q0 -29 12.5 -53.5t34.5 -42.5t52 -28
t65 -9v-216q-80 0 -144.5 28.5t-109.5 76.5t-69.5 111t-24.5 133q0 72 23.5 133.5t66.5 106t102 70t130 25.5q74 0 133.5 -27.5t107.5 -84.5q70 60 187 87q-4 19 -4 42q0 42 17 80.5t46 68t67.5 46.5t81.5 17q42 0 87 -13.5t82.5 -41.5t61.5 -71.5t24 -103.5h-184
q0 15 -8 24.5t-18.5 15.5t-21.5 8t-18 2q-14 0 -23 -9t-9 -23q0 -20 34 -28q117 -26 183.5 -91t66.5 -165zM243 1201q0 15 -6 28t-16 22.5t-23 15.5t-27 6q-29 0 -50.5 -21.5t-21.5 -50.5q0 -28 21.5 -50t50.5 -22t50.5 22t21.5 50z" />
    <glyph glyph-name="matraOo15" horiz-adv-x="548" 
d="M488 1201q0 -52 -20 -98.5t-55 -81.5t-81.5 -55.5t-100.5 -20.5q-53 0 -100 20.5t-82 55t-55 81t-20 99.5q0 8 0.5 14.5t1.5 14.5q-54 -42 -54 -129h-185q-1 34 -9 67t-25.5 58.5t-44 41t-63.5 15.5q-66 0 -102 -41.5t-36 -108.5q0 -29 12.5 -53.5t34.5 -42.5t52 -28
t65 -9v-216q-80 0 -144.5 28.5t-109.5 76.5t-69.5 111t-24.5 133q0 72 23.5 133.5t66.5 106t102 70t130 25.5q74 0 133.5 -27.5t107.5 -84.5q70 60 187 87q-4 19 -4 42q0 42 17 80.5t46 68t67.5 46.5t81.5 17q42 0 87 -13.5t82.5 -41.5t61.5 -71.5t24 -103.5h-184
q0 15 -8 24.5t-18.5 15.5t-21.5 8t-18 2q-14 0 -23 -9t-9 -23q0 -20 34 -28q117 -26 183.5 -91t66.5 -165zM303 1201q0 15 -6 28t-16 22.5t-23 15.5t-27 6q-29 0 -50.5 -21.5t-21.5 -50.5q0 -28 21.5 -50t50.5 -22t50.5 22t21.5 50z" />
    <glyph glyph-name="matraOo16" horiz-adv-x="402" 
d="M124 1469q0 22 -10 36t-29 14q-13 0 -24.5 -8.5t-11.5 -22.5q0 -13 8.5 -21.5t20.5 -11.5q129 -29 194 -92t65 -165q0 -52 -20 -98.5t-55 -81.5t-81.5 -55.5t-100.5 -20.5q-53 0 -99.5 20t-81.5 55t-55 81.5t-20 99.5q0 13 1 26.5t3 26.5q-54 -14 -88.5 -49t-34.5 -104
h-185q0 49 -14 83.5t-36.5 56.5t-51 32t-56.5 10q-30 0 -58.5 -12t-51 -32t-36 -47.5t-13.5 -58.5q0 -26 6 -49t21.5 -41t41.5 -29.5t66 -14.5v-214q-77 5 -137 36.5t-100.5 80t-61.5 109t-21 122.5q0 69 28 129.5t75.5 106.5t110 72.5t130.5 26.5q162 0 258 -112
q86 74 251 95q-3 18 -3 34q0 43 17 81.5t46.5 67.5t68 46t80.5 17t80.5 -12.5t67.5 -39.5t46.5 -69.5t17.5 -103.5h-168zM152 1198q0 30 -21 51t-51 21q-14 0 -27 -6t-23 -15.5t-16 -22.5t-6 -28q0 -28 22 -50t50 -22q15 0 28 6t22.5 16t15.5 23t6 27z" />
    <glyph glyph-name="matraOo17" 
d="M331 1197q0 -52 -20 -98.5t-55 -81.5t-81.5 -55.5t-100.5 -20.5q-53 0 -100 20.5t-82 55t-55 81t-20 99.5q0 8 0.5 15.5t1.5 14.5q-29 -23 -41.5 -54t-12.5 -76h-185q0 46 -12.5 80.5t-33 57.5t-47.5 34t-56 11q-30 0 -57 -12.5t-47.5 -33.5t-32.5 -48t-12 -57
q0 -60 36 -91t108 -39v-216q-79 5 -140 37t-103 80t-64 107.5t-22 121.5q0 69 26.5 130t72 106.5t106.5 72t129 26.5q77 0 138.5 -27.5t109.5 -84.5q72 63 187 88q-4 19 -4 41q0 42 17 80.5t46 68t67.5 46.5t81.5 17q42 0 85.5 -14t79 -43.5t57.5 -73.5t22 -104h-184
q-1 31 -16 45.5t-34 14.5q-17 0 -27 -13t-10 -24q0 -20 30 -28q70 -18 118.5 -43t78.5 -57t43.5 -71t13.5 -85zM146 1197q0 30 -21 51t-51 21q-14 0 -27 -6t-23 -15.5t-16 -22.5t-6 -28q0 -29 21.5 -50t50.5 -21q30 0 51 21t21 50z" />
    <glyph glyph-name="matraOo18" horiz-adv-x="144" 
d="M89 1198q0 -53 -20 -99.5t-55 -81.5t-81.5 -55t-99.5 -20q-54 0 -100.5 20.5t-81.5 55.5t-55 81.5t-20 98.5q0 8 0.5 15.5t1.5 14.5q-28 -22 -41.5 -55t-13.5 -75h-185q0 46 -12.5 80.5t-33 57t-47.5 33.5t-56 11q-65 0 -102.5 -44.5t-37.5 -114.5q0 -59 37.5 -95.5
t125.5 -41.5v-203q-75 4 -139 29.5t-110.5 69.5t-72.5 105t-26 136q0 70 24 133t67.5 109.5t103 74t130.5 27.5q76 0 138 -27.5t110 -84.5q70 63 188 88q-4 19 -4 41q0 43 17 81.5t46 67.5t67.5 46t81.5 17q42 0 84.5 -13.5t77.5 -42t57 -73t22 -106.5h-183q-1 30 -15.5 45
t-32.5 15q-11 0 -24 -9t-13 -20q0 -9 5 -19.5t16 -13.5q51 -12 98.5 -31t83.5 -49.5t58 -74t22 -104.5zM-96 1198q0 30 -21 51t-50 21q-30 0 -51 -21t-21 -51q0 -14 6 -27t15.5 -23t22.5 -16t28 -6q29 0 50 21.5t21 50.5z" />
    <glyph glyph-name="matraOo19" horiz-adv-x="250" 
d="M186 1198q0 -53 -20 -99.5t-55 -81.5t-81.5 -55t-99.5 -20q-54 0 -100.5 20.5t-81.5 55.5t-55 81.5t-20 98.5q0 12 1.5 25.5t3.5 25.5q-54 -19 -88 -55t-34 -96h-185q-1 37 -11 70.5t-29.5 58t-49 39t-68.5 14.5q-30 0 -58.5 -12t-51 -32t-36 -47.5t-13.5 -58.5
q0 -120 136 -135v-214q-77 7 -137 38.5t-101 79.5t-62 108t-21 123q0 69 28 129.5t75.5 106.5t110 72.5t130.5 26.5q161 0 257 -112q45 39 107.5 63t142.5 35q-2 8 -2 15.5v15.5q0 43 17 81.5t46 67.5t67.5 46t81.5 17q42 0 86 -14t81 -43t60.5 -73t23.5 -105h-183
q0 15 -7 26t-16 18.5t-19 11.5t-16 4q-14 0 -25.5 -9t-11.5 -23q0 -11 7 -20t24 -14q24 -6 38 -9t61 -20.5t81 -50.5t53 -77t19 -98zM1 1198q0 30 -21 51t-50 21q-30 0 -51 -21t-21 -51q0 -14 6 -27t15.5 -23t22.5 -16t28 -6q29 0 50 21.5t21 50.5z" />
    <glyph glyph-name="matraAu2" horiz-adv-x="578" 
d="M509 1011q0 -54 -20.5 -100.5t-55.5 -81.5t-81.5 -55t-98.5 -20q-53 0 -100 20t-82 55t-55 82t-20 100q0 37 9 72h-76q2 -8 2 -20.5v-17.5q0 -44 -16 -89.5t-44.5 -82.5t-67 -60t-83.5 -23h-282v209h275q14 0 24 16.5t10 30.5q0 11 -11.5 24t-22.5 13h-392v185h932
q52 0 98.5 -20.5t81.5 -55.5t55.5 -81.5t20.5 -99.5zM325 1011q0 28 -22 50t-50 22q-15 0 -28 -6t-22.5 -16t-15.5 -23t-6 -27q0 -30 21 -51t51 -21q14 0 27 6t23 15.5t16 22.5t6 28z" />
    <glyph glyph-name="matraAu3" horiz-adv-x="580" 
d="M511 1011q0 -54 -20.5 -100.5t-55.5 -81.5t-81.5 -55t-98.5 -20q-53 0 -100 20t-82 55t-55 82t-20 100q0 37 9 72h-76q2 -8 2 -20.5v-17.5q0 -44 -16 -89.5t-44.5 -82.5t-67 -60t-83.5 -23h-282v209h275q14 0 24 16.5t10 30.5q0 11 -11.5 24t-22.5 13h-392v185h932
q52 0 98.5 -20.5t81.5 -55.5t55.5 -81.5t20.5 -99.5zM327 1011q0 28 -22 50t-50 22q-15 0 -28 -6t-22.5 -16t-15.5 -23t-6 -27q0 -30 21 -51t51 -21q14 0 27 6t23 15.5t16 22.5t6 28z" />
    <glyph glyph-name="matraAu4" horiz-adv-x="464" 
d="M394 1101q0 -54 -20.5 -100.5t-55.5 -81.5t-81.5 -55t-98.5 -20q-53 0 -100 20t-82 55t-55 82t-20 100q0 37 9 72h-76q2 -8 2 -20.5v-17.5q0 -44 -16 -89.5t-44.5 -82.5t-67 -60t-83.5 -23h-282v209h275q14 0 24 16.5t10 30.5q0 11 -11.5 24t-22.5 13h-392v185h932
q52 0 98.5 -20.5t81.5 -55.5t55.5 -81.5t20.5 -99.5zM210 1101q0 28 -22 50t-50 22q-15 0 -28 -6t-22.5 -16t-15.5 -23t-6 -27q0 -30 21 -51t51 -21q14 0 27 6t23 15.5t16 22.5t6 28z" />
    <glyph glyph-name="matraAu5" horiz-adv-x="802" 
d="M663 1111q0 -54 -20.5 -100.5t-55.5 -81.5t-81.5 -55t-98.5 -20q-53 0 -100 20t-82 55t-55 82t-20 100q0 37 9 72h-76q2 -8 2 -20.5v-17.5q0 -44 -16 -89.5t-44.5 -82.5t-67 -60t-83.5 -23h-282v209h275q14 0 24 16.5t10 30.5q0 11 -11.5 24t-22.5 13h-392v185h932
q52 0 98.5 -20.5t81.5 -55.5t55.5 -81.5t20.5 -99.5zM479 1111q0 28 -22 50t-50 22q-15 0 -28 -6t-22.5 -16t-15.5 -23t-6 -27q0 -30 21 -51t51 -21q14 0 27 6t23 15.5t16 22.5t6 28z" />
    <glyph glyph-name="matraAu6" horiz-adv-x="544" 
d="M477 1011q0 -54 -20.5 -100.5t-55.5 -81.5t-81.5 -55t-98.5 -20q-53 0 -100 20t-82 55t-55 82t-20 100q0 37 9 72h-76q2 -8 2 -20.5v-17.5q0 -44 -16 -89.5t-44.5 -82.5t-67 -60t-83.5 -23h-282v209h275q14 0 24 16.5t10 30.5q0 11 -11.5 24t-22.5 13h-392v185h932
q52 0 98.5 -20.5t81.5 -55.5t55.5 -81.5t20.5 -99.5zM293 1011q0 28 -22 50t-50 22q-15 0 -28 -6t-22.5 -16t-15.5 -23t-6 -27q0 -30 21 -51t51 -21q14 0 27 6t23 15.5t16 22.5t6 28z" />
    <glyph glyph-name="matraAu7" horiz-adv-x="666" 
d="M597 1011q0 -54 -20.5 -100.5t-55.5 -81.5t-81.5 -55t-98.5 -20q-53 0 -100 20t-82 55t-55 82t-20 100q0 37 9 72h-76q2 -8 2 -20.5v-17.5q0 -44 -16 -89.5t-44.5 -82.5t-67 -60t-83.5 -23h-282v209h275q14 0 24 16.5t10 30.5q0 11 -11.5 24t-22.5 13h-392v185h932
q52 0 98.5 -20.5t81.5 -55.5t55.5 -81.5t20.5 -99.5zM413 1011q0 28 -22 50t-50 22q-15 0 -28 -6t-22.5 -16t-15.5 -23t-6 -27q0 -30 21 -51t51 -21q14 0 27 6t23 15.5t16 22.5t6 28z" />
    <glyph glyph-name="matraAu8" horiz-adv-x="444" 
d="M377 1001q0 -53 -20.5 -99.5t-55.5 -81.5t-81.5 -55.5t-99.5 -20.5t-99.5 20.5t-81.5 55.5t-55.5 81.5t-20.5 99.5q0 38 10 72h-189q2 -8 2 -20.5v-17.5q0 -44 -16 -84t-44.5 -70.5t-67 -48.5t-83.5 -18h-347v185h343q14 0 22.5 11.5t8.5 25.5q0 11 -10 24t-21 13h-460
v185h1109q52 0 99 -20.5t82 -56t55.5 -82t20.5 -98.5zM192 1001q0 14 -6 27t-15.5 23t-22.5 16t-28 6q-28 0 -50 -22t-22 -50q0 -15 6 -28t16 -22.5t23 -15.5t27 -6q30 0 51 21t21 51z" />
    <glyph glyph-name="matraAu9" horiz-adv-x="604" 
d="M525 810q0 -52 -20 -98.5t-55 -81.5t-81.5 -55.5t-100.5 -20.5q-53 0 -100 20t-81.5 55t-54.5 81.5t-20 99.5q0 19 2 37t7 35h-550q2 -8 2 -20.5v-17.5q0 -44 -16 -83.5t-44.5 -70.5t-67 -49t-83.5 -18h-347v185h342q14 0 23 12t9 25q0 11 -10.5 24t-21.5 13h-459v185
h1470q53 0 100 -20.5t82 -56t55 -82t20 -98.5zM340 810q0 30 -21 51t-51 21q-14 0 -27 -6t-23 -15.5t-16 -22.5t-6 -28q0 -29 21.5 -50t50.5 -21q30 0 51 21t21 50z" />
    <glyph glyph-name="matraAu10" horiz-adv-x="510" 
d="M443 1011q0 -54 -20.5 -100.5t-55.5 -81.5t-81.5 -55t-98.5 -20q-53 0 -100 20t-82 55t-55 82t-20 100q0 37 9 72h-76q2 -8 2 -20.5v-17.5q0 -44 -16 -89.5t-44.5 -82.5t-67 -60t-83.5 -23h-282v209h275q14 0 24 16.5t10 30.5q0 11 -11.5 24t-22.5 13h-392v185h932
q52 0 98.5 -20.5t81.5 -55.5t55.5 -81.5t20.5 -99.5zM259 1011q0 28 -22 50t-50 22q-15 0 -28 -6t-22.5 -16t-15.5 -23t-6 -27q0 -30 21 -51t51 -21q14 0 27 6t23 15.5t16 22.5t6 28z" />
    <glyph glyph-name="matraAu11" horiz-adv-x="470" 
d="M395 971q0 -53 -20.5 -99.5t-55.5 -81.5t-82 -55.5t-99 -20.5q-53 0 -99.5 20.5t-81.5 55.5t-55.5 81.5t-20.5 99.5q0 38 10 72h-600q2 -8 2 -20.5v-17.5q0 -45 -16 -85t-44.5 -70t-67 -48t-83.5 -18h-347v185h347q14 0 20.5 11.5t6.5 25.5q0 11 -8 24t-19 13h-463v185
h1519q52 0 98.5 -20.5t82 -56t56 -82t20.5 -98.5zM210 971q0 28 -21.5 50t-50.5 22t-50.5 -22t-21.5 -50q0 -29 21.5 -50.5t50.5 -21.5q14 0 27 6t23 15.5t16 22.5t6 28z" />
    <glyph glyph-name="matraAu12" horiz-adv-x="750" 
d="M681 1011q0 -54 -20.5 -100.5t-55.5 -81.5t-81.5 -55t-98.5 -20q-53 0 -100 20t-82 55t-55 82t-20 100q0 37 9 72h-76q2 -8 2 -20.5v-17.5q0 -44 -16 -89.5t-44.5 -82.5t-67 -60t-83.5 -23h-282v209h275q14 0 24 16.5t10 30.5q0 11 -11.5 24t-22.5 13h-392v185h932
q52 0 98.5 -20.5t81.5 -55.5t55.5 -81.5t20.5 -99.5zM497 1011q0 28 -22 50t-50 22q-15 0 -28 -6t-22.5 -16t-15.5 -23t-6 -27q0 -30 21 -51t51 -21q14 0 27 6t23 15.5t16 22.5t6 28z" />
    <glyph glyph-name="matraAu13" horiz-adv-x="674" 
d="M567 1011q0 -54 -20.5 -100.5t-55.5 -81.5t-81.5 -55t-98.5 -20q-53 0 -100 20t-82 55t-55 82t-20 100q0 37 9 72h-76q2 -8 2 -20.5v-17.5q0 -44 -16 -89.5t-44.5 -82.5t-67 -60t-83.5 -23h-282v209h275q14 0 24 16.5t10 30.5q0 11 -11.5 24t-22.5 13h-392v185h932
q52 0 98.5 -20.5t81.5 -55.5t55.5 -81.5t20.5 -99.5zM383 1011q0 28 -22 50t-50 22q-15 0 -28 -6t-22.5 -16t-15.5 -23t-6 -27q0 -30 21 -51t51 -21q14 0 27 6t23 15.5t16 22.5t6 28z" />
    <glyph glyph-name="matraAu14" horiz-adv-x="480" 
d="M414 1001q0 -53 -20.5 -99.5t-55.5 -81.5t-81.5 -55.5t-99.5 -20.5t-99.5 20t-81.5 55t-55.5 81.5t-20.5 100.5q0 38 10 72h-76q2 -9 2 -21v-17q0 -44 -17 -84t-46.5 -70.5t-69 -48.5t-84.5 -18h-341v185h341q14 0 23.5 11.5t9.5 25.5q0 11 -11 24t-22 13h-458v185h996
q52 0 99 -20.5t82 -56t55.5 -82t20.5 -98.5zM229 1001q0 14 -6 27t-15.5 23t-22.5 16t-28 6q-28 0 -50 -22t-22 -50q0 -15 6 -28t16 -22.5t23 -15.5t27 -6q30 0 51 21t21 51z" />
    <glyph glyph-name="tsa" unicode="&#xc58;" horiz-adv-x="1414" 
d="M1315 405q0 -88 -26.5 -165t-75 -134.5t-116 -91t-149.5 -33.5q-95 0 -159.5 27.5t-106.5 89.5q-81 -117 -266 -117q-85 0 -152.5 33t-115 86.5t-73 121.5t-25.5 138q0 46 9 76t29 63h-90v203h453v-203q-101 0 -144 -36t-43 -103q0 -56 41.5 -91.5t110.5 -35.5
q33 0 61.5 8.5t50.5 28.5t34.5 53.5t12.5 84.5h215q0 -50 11.5 -84t32.5 -54t50 -28.5t64 -8.5q36 0 64 13.5t48 37t30.5 54.5t10.5 67q0 105 -30 177.5t-87 117.5t-140.5 64.5t-189.5 19.5q-46 0 -92.5 15t-80.5 54l-135 154l130 129l96 -108q14 -17 36.5 -23t45.5 -6
q53 0 140 81t213 244l150 -133q-48 -63 -81 -105.5t-56 -70t-38 -44l-25 -27.5q84 -29 150 -78t112.5 -117t71 -154.5t24.5 -189.5zM1174 1561q0 -42 -16 -79t-43.5 -64.5t-64.5 -43t-79 -15.5h-856v179h654q-1 5 -1 11.5v11.5q0 42 16 79t44 64.5t65 44t78 16.5t78 -16
t64.5 -43.5t44 -65t16.5 -79.5zM1009 1572q0 33 -34 33q-33 0 -33 -33t33 -33q34 0 34 33z" />
    <glyph glyph-name="dza" unicode="&#xc59;" horiz-adv-x="1414" 
d="M1141 728q-2 -57 -31 -106t-77 -85t-110.5 -57t-129.5 -21q-70 0 -127 18.5t-104 45.5q-17 -17 -37.5 -31t-40.5 -24.5t-37.5 -18t-28.5 -11.5q-17 -6 -42.5 -15.5t-50.5 -22.5t-42.5 -28.5t-17.5 -33.5q0 -51 37.5 -78t106.5 -27q34 0 64.5 8t53 25.5t36 45t13.5 66.5
h215q0 -42 11 -69.5t32 -44.5t50 -24t65 -7q35 0 63.5 10t48.5 27.5t30.5 41.5t10.5 53q0 39 -19 67t-43 47l159 156q52 -49 84.5 -119t32.5 -151q0 -84 -28 -154.5t-77 -121.5t-116 -79.5t-146 -28.5q-175 0 -265 120q-43 -60 -109 -90t-163 -30q-86 0 -153.5 27.5
t-113.5 76t-70 113.5t-24 140t25.5 123.5t84.5 85.5q34 21 126 57q82 39 110.5 63t28.5 57q0 60 -59 60q-12 0 -24 -7.5t-22 -20t-16 -29.5t-6 -35h-214q0 63 23 118.5t62 97.5t90 66.5t107 24.5q55 0 104.5 -22.5t87 -60.5t59.5 -87.5t22 -104.5v-18q36 -24 77 -40t76 -16
q78 0 112 17.5t34 48.5q0 35 -19 51.5t-64 16.5v215q67 0 119.5 -18.5t89.5 -54t56.5 -85.5t19.5 -113zM1224 1303q0 -42 -16 -79t-43.5 -64.5t-64.5 -43t-79 -15.5h-856v179h654q-1 5 -1 11.5v11.5q0 42 16 79t44 64.5t65 44t78 16.5t78 -16t64.5 -43.5t44 -65t16.5 -79.5z
M1059 1314q0 33 -34 33q-33 0 -33 -33t33 -33q34 0 34 33z" />
    <glyph glyph-name="kaP" horiz-adv-x="1110" 
d="M1018 315q0 -77 -34.5 -139t-96.5 -105.5t-149.5 -66.5t-192.5 -23q-92 0 -181.5 23.5t-160.5 70t-114.5 114.5t-43.5 158h214q1 -36 29 -61t70.5 -41t92.5 -23t94 -7q258 0 258 100q0 20 -12 34.5t-41.5 24t-79.5 14t-125 4.5q-472 0 -472 292q0 71 34.5 129t97 99.5
t149.5 64t191 22.5q95 0 178 -22t144.5 -66t96.5 -109t35 -151h-214q0 38 -20.5 63.5t-54.5 41t-77 22t-88 6.5q-53 0 -99.5 -7t-81.5 -20.5t-55.5 -32t-20.5 -40.5q0 -57 86 -72q15 -3 57.5 -4t113.5 -1q129 0 219 -17.5t146.5 -53.5t82 -91t25.5 -130z" />
    <glyph glyph-name="gaP" horiz-adv-x="1146" 
d="M1044 471q0 -231 -131 -483l-196 108q113 211 113 375q0 60 -23.5 116t-62.5 100t-90.5 70.5t-108.5 26.5t-108.5 -26.5t-90.5 -70.5t-62 -100t-23 -116q0 -167 112 -375l-196 -108q-131 254 -131 483q0 105 39.5 200.5t107.5 168.5t158.5 116t193.5 43
q102 0 192.5 -42.5t158.5 -115t108 -168.5t40 -202z" />
    <glyph glyph-name="ghaP" horiz-adv-x="2124" 
d="M2029 483q0 -105 -36 -197t-99.5 -159.5t-149.5 -106.5t-186 -39q-53 0 -101.5 8.5t-93.5 27.5t-86 49.5t-78 74.5q-142 -160 -347 -160q-53 0 -96.5 7t-79.5 22t-66 37.5t-57 53.5q-15 -24 -37.5 -43t-50 -31.5t-58 -19.5t-59.5 -7q-59 0 -111 22.5t-90.5 61t-61 90.5
t-22.5 111q0 58 22.5 110t61 90.5t90.5 61t111 22.5q197 0 277 -228q37 -108 227 -108q59 0 107 18t82.5 50.5t53.5 78.5t19 103q0 61 -20 115.5t-59.5 96t-99.5 65.5t-139 24v215q121 0 219.5 -41.5t168 -112t107.5 -164.5t38 -198q0 -29 -4.5 -61t-8.5 -56q4 -29 25 -53.5
t53.5 -42t74.5 -27.5t89 -10q58 0 105 17t80.5 49.5t52 78.5t18.5 105q0 63 -20.5 117.5t-61 95.5t-100.5 64.5t-139 23.5v215q121 0 220 -42t169.5 -112.5t108.5 -164.5t38 -197zM418 285q0 13 -6 25.5t-16 22.5t-22.5 16t-25.5 6q-27 0 -48.5 -20.5t-21.5 -49.5
q0 -30 20 -50t50 -20q29 0 49.5 21.5t20.5 48.5zM649 -128q0 -43 -29.5 -72.5t-72.5 -29.5q-20 0 -38.5 8t-32.5 22t-22 32.5t-8 39.5q0 76 101 177q102 -102 102 -177z" />
    <glyph glyph-name="caP" horiz-adv-x="1414" 
d="M1315 395q0 -89 -26.5 -164.5t-75 -131t-116 -87t-149.5 -31.5q-95 0 -159.5 27.5t-106.5 89.5q-81 -117 -266 -117q-68 0 -133.5 28.5t-117.5 79t-83.5 120t-31.5 151.5q0 46 9 76t29 63h-90v193h453v-193q-97 0 -142 -35.5t-45 -103.5q0 -57 41.5 -92t110.5 -35
q33 0 61.5 5.5t50.5 22t34.5 47t12.5 80.5h215q0 -50 11.5 -80.5t32.5 -47t50 -22t64 -5.5q72 0 112.5 45t40.5 117q0 83 -28 154.5t-78 123.5t-120.5 81.5t-154.5 29.5v215q76 0 150 -21t140 -60t122 -93.5t96.5 -121.5t63.5 -145t23 -163z" />
    <glyph glyph-name="chaP" horiz-adv-x="1414" 
d="M1315 395q0 -89 -26.5 -164.5t-75 -131t-116 -87t-149.5 -31.5q-95 0 -159.5 27.5t-106.5 89.5q-81 -117 -266 -117q-68 0 -133.5 28.5t-117.5 79t-83.5 120t-31.5 151.5q0 46 9 76t29 63h-90v193h453v-193q-97 0 -142 -35.5t-45 -103.5q0 -57 41.5 -92t110.5 -35
q33 0 61.5 5.5t50.5 22t34.5 47t12.5 80.5h215q0 -50 11.5 -80.5t32.5 -47t50 -22t64 -5.5q72 0 112.5 45t40.5 117q0 83 -28 154.5t-78 123.5t-120.5 81.5t-154.5 29.5v215q81 0 157 -21t142 -60t120.5 -93.5t93.5 -121.5t60.5 -145t21.5 -163zM787 -128q0 -43 -29.5 -72.5
t-72.5 -29.5q-20 0 -38.5 8t-32.5 22t-22 32.5t-8 39.5q0 76 101 177q102 -102 102 -177z" />
    <glyph glyph-name="jhaP" horiz-adv-x="2538" 
d="M2445 483q0 -110 -33 -202.5t-94.5 -159t-148 -103.5t-192.5 -37q-222 0 -342 161q-65 -80 -151.5 -120.5t-194.5 -40.5q-59 0 -107 9t-89.5 29.5t-79 52.5t-75.5 78q-26 -38 -66.5 -69t-89.5 -53.5t-103.5 -34.5t-108.5 -12q-107 0 -198 40.5t-158.5 110.5t-105.5 164.5
t-38 202.5q0 103 39.5 194t107 159t158.5 107.5t195 39.5q103 0 194 -39.5t158.5 -107.5t107 -159t39.5 -194q0 -6 -2 -21t-4.5 -32.5t-4.5 -33.5t-2 -25q0 -36 18.5 -65t50.5 -48.5t74.5 -30t89.5 -10.5q120 0 186.5 66t66.5 184q0 61 -19.5 115.5t-59.5 96t-99.5 65.5
t-139.5 24v215q121 0 219.5 -41.5t168 -112t107.5 -164.5t38 -198q0 -9 -1.5 -23.5l-3 -29t-3 -27t-1.5 -16.5q0 -37 18 -66t48.5 -48.5t72.5 -29.5t90 -10q120 0 186.5 66t66.5 184q0 61 -20 115.5t-59.5 96t-99.5 65.5t-139 24v215q121 0 219.5 -41.5t168 -112
t107.5 -164.5t38 -198zM854 499q0 59 -22.5 111t-61 90.5t-90.5 61t-110 22.5q-59 0 -111 -22.5t-90.5 -61t-61 -90.5t-22.5 -111q0 -58 22 -106.5t60 -84t90.5 -55.5t112.5 -20t111.5 19.5t90 55t60.5 84t22 107.5zM1734 -128q0 -43 -29.5 -72.5t-72.5 -29.5q-20 0 -38.5 8
t-32.5 22t-22 32.5t-8 39.5q0 76 101 177q102 -102 102 -177z" />
    <glyph glyph-name="tthaP" horiz-adv-x="1140" 
d="M1044 499q0 -112 -37.5 -207t-104 -164t-158 -108t-199.5 -39q-110 0 -201.5 38.5t-157.5 107.5t-103 164t-37 208q0 103 39.5 194t107 159t158.5 107.5t194 39.5t194 -39.5t158.5 -107.5t107 -159t39.5 -194zM830 499q0 59 -22.5 111t-61 90.5t-90.5 61t-111 22.5
t-111 -22.5t-90.5 -61t-60.5 -90.5t-22 -111t22 -107.5t60.5 -84t90.5 -55t111 -19.5t111 19.5t90.5 55t61 84t22.5 107.5zM653 499q0 -22 -8.5 -41.5t-23.5 -34t-34.5 -23t-41.5 -8.5t-41.5 8.5t-34 23t-23 34t-8.5 41.5t8.5 41.5t23 34.5t34 23.5t41.5 8.5t41.5 -8.5
t34.5 -23.5t23.5 -34.5t8.5 -41.5z" />
    <glyph glyph-name="ddaP" horiz-adv-x="1414" 
d="M1303 235q0 -55 -23 -101.5t-63.5 -80.5t-95.5 -53t-119 -19q-48 0 -94.5 10.5t-87 30.5t-73.5 48t-54 63q-42 -75 -111.5 -114t-164.5 -39q-83 0 -151 30t-116 83.5t-74 127.5t-26 163q0 86 24.5 165.5t68 148t103 124t130 95t148.5 61t159 21.5q261 0 483 -222
l-151 -151q-157 158 -332 158q-83 0 -158.5 -32.5t-133.5 -87.5t-92 -127.5t-34 -152.5q0 -152 152 -152q81 0 120 37.5t39 107.5h215q0 -69 26 -114t73 -74q-2 11 -3.5 23t-1.5 23q0 43 16.5 81.5t44.5 66.5t66 44.5t82 16.5q43 0 81 -16.5t66.5 -45t45 -66.5t16.5 -81z
M1134 234q0 17 -11.5 28.5t-27.5 11.5q-17 0 -28.5 -11.5t-11.5 -28.5t6 -32.5t17 -28.5q29 2 42.5 20.5t13.5 40.5z" />
    <glyph glyph-name="ddhaP" horiz-adv-x="1414" 
d="M1303 235q0 -55 -23 -101.5t-63.5 -80.5t-95.5 -53t-119 -19q-48 0 -94.5 10.5t-87 30.5t-73.5 48t-54 63q-42 -75 -111.5 -114t-164.5 -39q-83 0 -151 30t-116 83.5t-74 127.5t-26 163q0 86 24.5 165.5t68 148t103 124t130 95t148.5 61t159 21.5q261 0 483 -222
l-151 -151q-157 158 -332 158q-83 0 -158.5 -32.5t-133.5 -87.5t-92 -127.5t-34 -152.5q0 -152 152 -152q81 0 120 37.5t39 107.5h215q0 -69 26 -114t73 -74q-2 11 -3.5 23t-1.5 23q0 43 16.5 81.5t44.5 66.5t66 44.5t82 16.5q43 0 81 -16.5t66.5 -45t45 -66.5t16.5 -81z
M1134 234q0 17 -11.5 28.5t-27.5 11.5q-17 0 -28.5 -11.5t-11.5 -28.5t6 -32.5t17 -28.5q29 2 42.5 20.5t13.5 40.5zM793 -128q0 -43 -29.5 -72.5t-72.5 -29.5q-20 0 -38.5 8t-32.5 22t-22 32.5t-8 39.5q0 76 101 177q102 -102 102 -177z" />
    <glyph glyph-name="taP" horiz-adv-x="1414" 
d="M1316 488q0 -114 -49 -207.5t-135 -160t-202.5 -103t-251.5 -36.5t-249.5 32t-198.5 89.5t-131.5 138t-47.5 177.5q0 75 20 135t56 102t86.5 64.5t112.5 22.5q48 0 92 -15.5t77 -44t52.5 -69t19.5 -89.5q0 -50 -19 -90.5t-52 -68.5t-76.5 -43t-91.5 -15h-17t-17 1
q25 -32 61.5 -51t84 -28.5t107 -12.5t131.5 -3q140 0 239 37t153 98q-8 -1 -14.5 -1h-14.5q-48 0 -91.5 18t-76.5 50t-52.5 75t-19.5 94q0 29 9 60.5t27 59t45 49.5t64 31h-215v215h206q76 0 144.5 -38t120.5 -106.5t83 -162t31 -204.5zM1041 534q26 0 49 9t32 29
q-3 11 -11.5 22t-20.5 19.5t-25 14t-24 5.5q-20 0 -35 -14.5t-15 -34.5q0 -21 15 -35.5t35 -14.5zM375 524q0 20 -14.5 34.5t-34.5 14.5q-23 0 -45.5 -18.5t-27.5 -39.5q25 -41 73 -41q20 0 34.5 14.5t14.5 35.5z" />
    <glyph glyph-name="thaP" horiz-adv-x="1414" 
d="M1316 385q0 -84 -27.5 -157.5t-76.5 -128t-116.5 -86.5t-146.5 -32q-170 0 -265 124q-22 -29 -52 -52t-65 -39t-73 -24.5t-77 -8.5q-78 0 -145 32t-116 86.5t-77 128t-28 157.5q0 87 24.5 166t67.5 147.5t102.5 124t129.5 94.5t148.5 60.5t159.5 21.5q85 0 164.5 -23
t150 -63.5t129 -97.5t100.5 -125.5t65.5 -145.5t23.5 -159zM1102 385q0 79 -34 151.5t-92 127.5t-133.5 87.5t-159.5 32.5t-159.5 -32.5t-133 -87.5t-91.5 -127.5t-34 -151.5q0 -72 40.5 -112t111.5 -40q72 0 115.5 34.5t43.5 110.5h215q0 -76 43.5 -110.5t114.5 -34.5
q72 0 112.5 40t40.5 112zM791 570q0 -22 -8.5 -41.5t-23.5 -34t-34.5 -23t-41.5 -8.5t-41.5 8.5t-34 23t-23 34t-8.5 41.5t8.5 41.5t23 34.5t34 23.5t41.5 8.5t41.5 -8.5t34.5 -23.5t23.5 -34.5t8.5 -41.5zM784 -128q0 -43 -29.5 -72.5t-72.5 -29.5q-20 0 -38.5 8t-32.5 22
t-22 32.5t-8 39.5q0 76 101 177q102 -102 102 -177z" />
    <glyph glyph-name="daP" horiz-adv-x="1414" 
d="M1316 385q0 -84 -27.5 -157.5t-76.5 -128t-116.5 -86.5t-146.5 -32q-170 0 -265 124q-22 -29 -52 -52t-65 -39t-73 -24.5t-77 -8.5q-78 0 -145 32t-116 86.5t-77 128t-28 157.5q0 87 24.5 166t67.5 147.5t102.5 124t129.5 94.5t148.5 60.5t159.5 21.5q85 0 164.5 -23
t150 -63.5t129 -97.5t100.5 -125.5t65.5 -145.5t23.5 -159zM1102 385q0 79 -34 151.5t-92 127.5t-133.5 87.5t-159.5 32.5t-159.5 -32.5t-133 -87.5t-91.5 -127.5t-34 -151.5q0 -72 40.5 -112t111.5 -40q72 0 115.5 34.5t43.5 110.5h215q0 -76 43.5 -110.5t114.5 -34.5
q72 0 112.5 40t40.5 112z" />
    <glyph glyph-name="dhaP" horiz-adv-x="1414" 
d="M1316 385q0 -84 -27.5 -157.5t-76.5 -128t-116.5 -86.5t-146.5 -32q-170 0 -265 124q-22 -29 -52 -52t-65 -39t-73 -24.5t-77 -8.5q-78 0 -145 32t-116 86.5t-77 128t-28 157.5q0 87 24.5 166t67.5 147.5t102.5 124t129.5 94.5t148.5 60.5t159.5 21.5q85 0 164.5 -23
t150 -63.5t129 -97.5t100.5 -125.5t65.5 -145.5t23.5 -159zM1102 385q0 79 -34 151.5t-92 127.5t-133.5 87.5t-159.5 32.5t-159.5 -32.5t-133 -87.5t-91.5 -127.5t-34 -151.5q0 -72 40.5 -112t111.5 -40q72 0 115.5 34.5t43.5 110.5h215q0 -76 43.5 -110.5t114.5 -34.5
q72 0 112.5 40t40.5 112zM787 -128q0 -43 -29.5 -72.5t-72.5 -29.5q-20 0 -38.5 8t-32.5 22t-22 32.5t-8 39.5q0 76 101 177q102 -102 102 -177z" />
    <glyph glyph-name="naP" horiz-adv-x="1422" 
d="M1317 411q0 -193 -100 -306h1q-106 -124 -298 -124q-68 0 -128.5 27t-114.5 67t-101.5 87t-90 87t-80 67t-71.5 27q-26 0 -45 -19t-19 -45q0 -12 5 -26.5t16.5 -29.5t30.5 -29.5t46 -26.5l-131 -181q-50 36 -85 73.5t-56.5 74.5t-31 73.5t-9.5 71.5q0 57 22 108t60 88.5
t88.5 59.5t108.5 22q64 0 117.5 -24t100.5 -60t89.5 -78t86.5 -78t90.5 -60t101.5 -24q85 0 134 46.5t49 131.5q0 93 -28.5 163t-79.5 116.5t-121.5 70t-154.5 23.5h-117v215h117q127 0 236.5 -41.5t189.5 -118t126 -185t46 -243.5z" />
    <glyph glyph-name="paP" horiz-adv-x="1414" 
d="M1316 474q0 -108 -34 -198.5t-96 -156t-150.5 -102t-196.5 -36.5q-157 0 -297 111q-44 -53 -93 -72.5t-114 -19.5q-59 0 -110.5 22.5t-90 61t-61 90.5t-22.5 111q0 58 22.5 109.5t61.5 90.5t90.5 61.5t109.5 22.5t100 -18.5t73.5 -49.5t55.5 -72t47 -85q58 -111 228 -111
q60 0 108.5 16.5t83 48t53 76t18.5 100.5q0 75 -25.5 133t-73.5 97t-116.5 59.5t-153.5 20.5v215q137 0 245 -36.5t183 -104.5t115 -165t40 -219zM405 285q0 13 -6 25.5t-15.5 22.5t-22.5 16t-26 6t-25.5 -5.5t-22.5 -15.5t-16 -22.5t-6 -26.5q0 -30 20.5 -50t49.5 -20
q30 0 50 21t20 49z" />
    <glyph glyph-name="phaP" horiz-adv-x="1414" 
d="M1316 474q0 -108 -34 -198.5t-96 -156t-150.5 -102t-196.5 -36.5q-157 0 -297 111q-44 -53 -93 -72.5t-114 -19.5q-59 0 -110.5 22.5t-90 61t-61 90.5t-22.5 111q0 58 22.5 109.5t61.5 90.5t90.5 61.5t109.5 22.5q59 0 101 -18.5t73 -49.5t55 -72t47 -86
q54 -110 228 -110q60 0 108.5 16.5t83 48t53 76t18.5 100.5q0 76 -29.5 134t-79.5 97t-117 59t-143 20v214q128 0 235 -36t184.5 -104t120.5 -165t43 -219zM649 -128q0 -43 -29.5 -72.5t-72.5 -29.5q-20 0 -38.5 8t-32.5 22t-22 32.5t-8 39.5q0 76 101 177
q102 -102 102 -177zM405 285q0 13 -6 25.5t-15.5 22.5t-22.5 16t-26 6t-25.5 -5.5t-22.5 -15.5t-16 -22.5t-6 -26.5q0 -30 20.5 -50t49.5 -20q30 0 50 21t20 49z" />
    <glyph glyph-name="bhaP" horiz-adv-x="1414" 
d="M1316 461q0 -110 -28.5 -198.5t-80.5 -151t-126 -96.5t-165 -34q-84 0 -148.5 28.5t-110.5 82.5q-43 -53 -107 -82t-148 -29q-75 0 -139 28t-111 76.5t-74 113.5t-27 139q0 64 28 109.5t70 79t138 82.5q83 43 111 65t28 50q0 60 -59 60q-24 0 -46 -22.5t-23 -59.5h-213
q0 74 23.5 129.5t63 93t90.5 56t105 18.5t103.5 -22.5t87 -60t60 -87.5t22.5 -105q0 -51 -16 -90t-42.5 -68.5t-60 -52t-105.5 -56.5q-66 -32 -92.5 -47.5t-42.5 -32.5t-16 -39q0 -105 137 -105q145 0 145 129h215q0 -58 38 -93.5t116 -35.5q91 0 138.5 61t47.5 167
q0 74 -17.5 134t-48 102t-70.5 64.5t-85 22.5v215q91 0 170.5 -41t138 -113.5t92.5 -171t34 -212.5zM760 -128q0 -43 -29.5 -72.5t-72.5 -29.5q-20 0 -38.5 8t-32.5 22t-22 32.5t-8 39.5q0 76 101 177q102 -102 102 -177z" />
    <glyph glyph-name="maP" horiz-adv-x="2124" 
d="M2023 483q0 -110 -33.5 -202t-94.5 -159t-147 -104t-190 -37q-63 0 -113 8t-93 27t-80.5 49.5t-74.5 75.5q-139 -160 -345 -160q-90 0 -165 28t-134 82q-42 -44 -94 -67.5t-111 -23.5t-111 22.5t-90.5 61t-61 90.5t-22.5 111t22.5 110.5t61 90t90.5 61t111 22.5
q124 0 199 -102q33 -57 59.5 -100.5t58 -73.5t75 -45t112.5 -15q58 0 106.5 18t83 51t53.5 79t19 102q0 61 -21 116t-59 96t-90.5 65t-115.5 24h-181v215h181q104 0 195.5 -41.5t159.5 -112t107 -164t39 -198.5q0 -29 -3 -58t-10 -56q6 -31 26.5 -56t53 -43t74 -27.5
t88.5 -9.5q57 0 103.5 17.5t79 50t50 78.5t17.5 104q0 61 -19.5 115.5t-59.5 96t-99.5 65.5t-139.5 24v215q121 0 219.5 -41.5t168 -112t107.5 -164.5t38 -198zM418 285q0 13 -6 25.5t-16 22.5t-22.5 16t-25.5 6q-27 0 -48.5 -20.5t-21.5 -49.5q0 -30 20 -50t50 -20
q29 0 49.5 21.5t20.5 48.5z" />
    <glyph glyph-name="yaP" horiz-adv-x="2550" 
d="M2445 483q0 -110 -33 -202.5t-94.5 -159t-148 -103.5t-192.5 -37q-221 0 -341 161q-66 -79 -153 -120t-194 -41q-60 0 -108 9t-89.5 29t-78.5 52t-75 79q-27 -39 -68.5 -70.5t-91 -53t-103.5 -33.5t-105 -12q-107 0 -198 40.5t-158.5 110.5t-105.5 164.5t-38 202.5
q0 103 39.5 194t107 159t158.5 107.5t195 39.5q103 0 194 -39.5t158.5 -107.5t107 -159t39.5 -194q0 -6 -2 -21t-4.5 -32.5t-4.5 -33.5t-2 -25q0 -36 18.5 -64.5t50 -48.5t74 -30.5t90.5 -10.5q120 0 186.5 65.5t66.5 184.5q0 61 -19.5 115.5t-59.5 96t-99.5 65.5t-139.5 24
v215q121 0 219.5 -41.5t168 -112t107.5 -164.5t38 -198q0 -9 -1.5 -23.5l-3 -29t-3 -27t-1.5 -16.5q0 -37 18 -66t48.5 -48.5t72.5 -29.5t90 -10q120 0 186.5 65.5t66.5 184.5q0 61 -20 115.5t-59.5 96t-99.5 65.5t-139 24v215q121 0 219.5 -41.5t168 -112t107.5 -164.5
t38 -198zM854 499q0 59 -22.5 111t-61 90.5t-90.5 61t-110 22.5q-59 0 -111 -22.5t-90.5 -61t-61 -90.5t-22.5 -111q0 -58 22 -106.5t60 -84t90.5 -55.5t112.5 -20t111.5 19.5t90 55t60.5 84t22 107.5z" />
    <glyph glyph-name="raP" horiz-adv-x="1140" 
d="M1044 499q0 -112 -36.5 -207t-102.5 -164t-157.5 -108t-202.5 -39q-109 0 -200.5 38.5t-158 107.5t-103.5 164t-37 208q0 104 39.5 195t107 159t158.5 107t194 39t194 -39.5t159 -107t107 -159t39 -194.5zM830 499q0 59 -22.5 111t-61 90.5t-90.5 61t-111 22.5
t-110.5 -22.5t-90 -61t-61 -90.5t-22.5 -111q0 -58 21.5 -106.5t60 -84t90.5 -55.5t112 -20t112 19.5t90.5 54.5t60.5 84t22 108z" />
    <glyph glyph-name="llaP" horiz-adv-x="1258" 
d="M1168 732q0 -66 -23.5 -128t-65.5 -114t-100 -92t-127 -62q7 -18 9.5 -37t2.5 -42q0 -276 -257 -276q-56 0 -103.5 20t-81.5 56t-53 87t-19 113q0 38 16 81q-70 23 -128.5 66t-100.5 99t-65.5 122t-23.5 136q0 49 19 92t51 75.5t75.5 51.5t92.5 19t92 -19t75.5 -51.5
t51.5 -76t19 -91.5q0 -31 -9 -63t-24.5 -60t-37.5 -51t-48 -36q37 -20 88 -29.5t114 -9.5q71 0 134.5 14.5t111 42t75 66.5t27.5 87q0 62 -40 62h-129v215h129q55 0 101.5 -20t80 -55.5t52.5 -84.5t19 -107zM328 761q0 17 -12.5 29.5t-29.5 12.5t-29.5 -12.5t-12.5 -29.5
q0 -20 5.5 -38.5t13.5 -30.5q12 3 24 10.5t21 18t14.5 21t5.5 19.5zM657 253q0 20 -15 35t-35 15t-35 -15t-15 -35q0 -21 15 -35.5t35 -14.5t35 14.5t15 35.5z" />
    <glyph glyph-name="vaP" horiz-adv-x="1414" 
d="M1316 483q0 -110 -34 -202t-96.5 -158.5t-150.5 -104t-196 -37.5q-48 0 -85.5 5t-71.5 17.5t-67.5 34t-72.5 54.5q-44 -53 -93 -72.5t-114 -19.5q-59 0 -110.5 22.5t-90 61t-61 90.5t-22.5 111q0 58 22.5 110t61.5 90.5t90.5 61t109.5 22.5q49 0 88 -12t71.5 -38.5
t61 -70t56.5 -106.5q44 -109 227 -109q55 0 103.5 19t83.5 52.5t55.5 79.5t20.5 99q0 61 -21.5 115.5t-59.5 96t-90.5 65.5t-114.5 24h-262v215h262q104 0 195 -41.5t159 -112t107 -164t39 -198.5zM405 285q0 13 -6 25.5t-15.5 22.5t-22.5 16t-26 6t-25.5 -5.5t-22.5 -15.5
t-16 -22.5t-6 -26.5q0 -30 20.5 -50t49.5 -20q30 0 50 21t20 49z" />
    <glyph glyph-name="shaP" horiz-adv-x="1128" 
d="M1044 724q0 -161 -143 -241q36 -75 36 -163q0 -69 -25 -131t-68 -108t-101.5 -73t-125.5 -27q-68 0 -126.5 20.5t-101.5 60t-67.5 97.5t-24.5 132q0 30 10.5 62.5t28.5 62.5t42.5 56t52.5 45q-67 -8 -129.5 -40t-113.5 -98l-155 155q172 190 421 190q177 0 307 -81
q36 14 52.5 34.5t16.5 46.5q0 60 -108 60h-277v215h277q70 0 129 -19.5t102 -55.5t67 -87t24 -113zM722 320q0 56 -24 92q-50 -12 -85.5 -24t-58 -26t-33 -31t-10.5 -39q0 -77 106 -77q21 0 40.5 8t33.5 22.5t22.5 33.5t8.5 41z" />
    <glyph glyph-name="ssaP" horiz-adv-x="1414" 
d="M1277 -87q-47 38 -80.5 84t-53.5 94q-59 -57 -133 -83.5t-169 -26.5q-51 0 -89 4t-70.5 16t-65 33.5t-73.5 56.5q-23 -26 -45.5 -43.5t-47.5 -28t-52.5 -15t-60.5 -4.5q-59 0 -111 22.5t-90.5 61t-61 90.5t-22.5 111q0 58 22.5 109.5t61.5 90.5t91 61.5t110 22.5
q46 0 84 -11t71 -37t62.5 -69.5t58.5 -108.5q50 -110 228 -110q60 0 108.5 17t82.5 48t52.5 75.5t18.5 100.5q0 73 -24 130.5t-69.5 97.5t-112.5 61t-153 21v215q138 0 245 -36t180 -104t111 -165.5t38 -219.5q-7 -53 -11 -87t-6.5 -54.5t-3.5 -31t-1 -16.5q0 -143 115 -238
zM407 285q0 12 -5.5 24.5t-15.5 22.5t-22.5 16.5t-26.5 6.5t-26.5 -6t-22 -15.5t-15.5 -22.5t-6 -26q0 -29 20.5 -49.5t49.5 -20.5t49.5 21.5t20.5 48.5z" />
    <glyph glyph-name="saP" horiz-adv-x="1414" 
d="M1316 411q0 -99 -27.5 -178.5t-79 -135.5t-125 -86t-164.5 -30q-63 0 -120.5 27t-110 67t-101 87t-93 87t-84.5 67t-77 27q-26 0 -45 -19t-19 -45q0 -48 99 -111l-132 -182q-182 155 -182 293q0 57 22 108t60 88.5t88.5 59.5t108.5 22q70 0 127.5 -24t106 -60t91 -78
t84 -78t85 -60t92.5 -24q84 0 133 48.5t49 129.5q0 183 -101.5 278t-299.5 95v215q147 0 261.5 -41.5t193 -118.5t119.5 -185.5t41 -242.5z" />
    <glyph glyph-name="haP" horiz-adv-x="2004" 
d="M1898 724q0 -54 -20.5 -103.5t-56 -87.5t-83.5 -60.5t-104 -22.5q-57 0 -105 22t-83 60t-55 90.5t-20 114.5q0 11 1 22.5t5 24.5h-150q99 -131 99 -319q0 -111 -32.5 -200.5t-94 -152.5t-150 -97t-200.5 -34q-50 0 -87.5 5t-71 17t-66.5 33.5t-73 54.5q-22 -26 -45 -43.5
t-47.5 -28t-52.5 -15t-61 -4.5q-59 0 -110.5 22.5t-90.5 61t-61.5 90.5t-22.5 111q0 58 23 109.5t62 90.5t90.5 61.5t109.5 22.5q42 0 79 -10.5t70.5 -36.5t65 -69.5t61.5 -109.5q50 -110 228 -110q59 0 107 16t82.5 46t53.5 73t19 97q0 158 -94 238.5t-265 80.5v215h882
q55 0 103 -22.5t84 -60.5t56.5 -87.5t20.5 -104.5zM1716 724q0 16 -7 30.5t-18 26t-26 18t-31 6.5t-30.5 -6.5t-26 -17.5t-18 -26t-6.5 -31q0 -17 6.5 -31.5t18 -25.5t26 -17.5t30.5 -6.5t31 6.5t26.5 18t18 26t6.5 30.5zM415 285q0 13 -6 25.5t-15.5 22.5t-22.5 16t-26 6
t-25.5 -5.5t-22.5 -15.5t-16 -22.5t-6 -26.5q0 -30 20.5 -50t49.5 -20q30 0 50 21t20 49z" />
    <glyph glyph-name="khaSmallDot" horiz-adv-x="1536" 
d="M767 -118h-207l67 151h73zM346 196q39 0 77 9t67 26q-75 50 -170 50q-16 0 -31.5 -13.5t-15.5 -29.5q0 -42 73 -42zM1442 473q0 -108 -34 -198.5t-95 -155.5t-146.5 -101.5t-188.5 -36.5q-172 0 -317 118q-133 -118 -315 -118q-57 0 -107 19t-86.5 53.5t-57.5 81.5
t-21 103q0 55 19.5 99t53 75t77.5 48t93 17q86 0 158.5 -23.5t141.5 -68.5q24 55 24 121q0 81 -31 142q-35 -63 -90 -94t-120 -31q-49 0 -92 18t-75.5 50t-51.5 75.5t-19 94.5q0 52 20 95.5t56 75t85 49.5t107 18q87 0 164.5 -39.5t135.5 -107t92 -157t34 -189.5
q0 -57 -16.5 -117.5t-46.5 -120.5q70 -35 185 -35q118 0 183.5 61t65.5 179q0 65 -22.5 122t-60.5 99t-88.5 66t-106.5 24v215q111 0 201.5 -39.5t155.5 -109.5t100.5 -166.5t35.5 -210.5zM486 780q-17 12 -37 18t-32 6q-25 0 -42 -12.5t-17 -30.5q0 -19 14 -30.5t33 -11.5
q13 0 26.5 5t25 13.5t19.5 19.5t10 23z" />
    <glyph glyph-name="ghaSmallDot" horiz-adv-x="2130" 
d="M882 1168q-74 -95 -129 -160.5t-91 -100.5q-151 -145 -282 -145q-95 0 -174 69q-29 25 -134 154l130 129q38 -45 61.5 -71.5t34.5 -35.5q36 -31 82 -31q104 0 352 326zM2029 483q0 -104 -36 -195.5t-99 -159.5t-149.5 -107.5t-186.5 -39.5q-64 0 -114 8t-92 26.5
t-78.5 49.5t-74.5 76q-142 -160 -347 -160q-56 0 -96.5 5t-74 17t-63.5 33.5t-65 54.5q-42 -44 -94 -67.5t-111 -23.5t-111 22.5t-90.5 61t-61 90.5t-22.5 111q0 58 22.5 109.5t61.5 90.5t90.5 61.5t110.5 22.5q46 0 83 -11t69.5 -37t62.5 -69.5t61 -108.5
q27 -53 84.5 -81.5t143.5 -28.5q58 0 106.5 18t83 51t53.5 79t19 102q0 61 -22 115.5t-61.5 96t-94 65.5t-120.5 24v215q114 0 208 -41.5t162 -112t105.5 -164.5t37.5 -198q0 -28 -3 -57t-9 -57q5 -33 27.5 -58t55.5 -42.5t74 -26.5t84 -9q58 0 105 17.5t80.5 49.5t52 78.5
t18.5 104.5q0 63 -20.5 117.5t-61 95.5t-100.5 64.5t-139 23.5v215q121 0 220 -42t169.5 -112.5t108.5 -164.5t38 -197zM655 -118h-207l67 141h73zM418 285q0 13 -6 25.5t-16 22.5t-22.5 16t-25.5 6q-27 0 -48.5 -20.5t-21.5 -49.5q0 -30 20 -50t50 -20q29 0 49.5 21.5
t20.5 48.5z" />
    <glyph glyph-name="chaSmallDot" horiz-adv-x="1414" 
d="M1315 385q0 -88 -26.5 -162t-75 -128t-116 -84t-149.5 -30q-95 0 -159.5 27.5t-106.5 89.5q-81 -117 -266 -117q-78 0 -145 30.5t-116 84.5t-77 127t-28 157q0 46 9 86t29 73h-90v203h453v-203q-48 0 -83.5 -12t-58.5 -33.5t-34 -50.5t-11 -63q0 -69 41.5 -108t110.5 -39
q34 0 63.5 9.5t50.5 30t33 54t12 81.5h215q0 -50 11.5 -84t32.5 -54t50 -28.5t64 -8.5q72 0 112.5 40t40.5 112q0 79 -38 151.5t-100 127.5t-143 87.5t-166 32.5q-94 0 -173 69q-27 24 -135 154l131 130q42 -50 65.5 -76.5t28.5 -31.5q37 -30 83 -30q104 0 353 325l150 -132
q-44 -58 -74.5 -97.5t-55 -68.5t-45 -51t-44.5 -45q84 -39 153.5 -98t119 -131t77 -152.5t27.5 -163.5zM785 -118h-207l67 151h73z" />
    <glyph glyph-name="jhaSmallDot" horiz-adv-x="2544" 
d="M2445 483q0 -110 -34 -202t-96 -158.5t-148 -104t-190 -37.5q-58 0 -105.5 8.5t-88 28t-76 51t-71.5 77.5q-35 -42 -68 -71.5t-63 -46.5v1q-84 -48 -216 -48q-131 0 -221 52h1q-66 37 -132 117q-26 -37 -67 -68t-90 -53.5t-103.5 -35t-106.5 -12.5q-107 0 -198.5 41.5
t-158.5 112t-105 164.5t-38 200q0 68 17.5 132t50.5 120.5t79.5 103t104.5 79.5q-16 19 -32.5 39t-27.5 34l130 130q77 -93 95 -108q36 -30 83 -30q106 0 353 325l149 -132q-8 -10 -21.5 -28t-28.5 -37.5t-28 -36.5t-19 -24q-23 -30 -38.5 -50t-29.5 -35t-29 -29.5
t-37 -33.5q54 -35 96.5 -80.5t72 -99.5t44.5 -114.5t15 -124.5q0 -6 -2 -21t-4.5 -32.5t-4.5 -33.5t-2 -25q0 -36 18.5 -64.5t50 -48.5t74 -30.5t90.5 -10.5q120 0 186.5 65.5t66.5 184.5q0 61 -19.5 115.5t-59.5 96t-99.5 65.5t-139.5 24v215q121 0 219.5 -41.5t168 -112
t107.5 -164.5t38 -198q0 -9 -1.5 -23.5l-3 -29t-3 -27t-1.5 -16.5q0 -37 18 -66t48.5 -48.5t72.5 -29.5t90 -10q120 0 186.5 65.5t66.5 184.5q0 61 -20 115.5t-59.5 96t-99.5 65.5t-139 24v215q121 0 219.5 -41.5t168 -112t107.5 -164.5t38 -198zM1741 -117h-207l67 178h73z
M854 499q0 59 -22.5 111t-61 90.5t-90.5 61t-110 22.5q-59 0 -111 -22.5t-90.5 -61t-61 -90.5t-22.5 -111q0 -58 22 -106.5t60 -84t90.5 -55.5t112.5 -20t111.5 19.5t90 55t60.5 84t22 107.5z" />
    <glyph glyph-name="ddhaSmallDot" horiz-adv-x="1457" 
d="M798 -117h-207l67 178h73zM1353 285q0 -71 -29 -127.5t-76.5 -95.5t-109 -60t-126.5 -21q-103 0 -184.5 39t-134.5 116q-43 -74 -113.5 -115t-162.5 -41q-79 0 -146 28t-116 80t-77 127t-28 169q0 88 26.5 172.5t75.5 158t118 132.5t155 97q-11 14 -25.5 32t-24.5 30
l131 131q73 -91 94 -109h-1q36 -30 84 -30q70 0 176 110q21 22 65 75t112 140l149 -133q-21 -28 -41.5 -54.5t-37.5 -49t-30.5 -39t-19.5 -23.5q-25 -29 -46 -53t-44 -44q100 -50 200 -150l-151 -151q-156 157 -332 157q-84 0 -159.5 -33t-133 -87t-91.5 -124.5t-34 -145.5
q0 -69 39 -109.5t110 -51.5q83 1 122.5 44t39.5 131h215q0 -71 30 -123t80 -84q-5 10 -8.5 25t-5 29.5t-2 26t-0.5 14.5q0 43 17.5 81.5t48 66.5t72.5 44.5t91 16.5q50 0 93.5 -18t76 -48.5t51 -70t18.5 -82.5zM1164 274q0 26 -14 43t-35 17q-17 0 -33.5 -15.5t-16.5 -44.5
q0 -32 11.5 -56t27.5 -37q27 10 43.5 35.5t16.5 57.5z" />
    <glyph glyph-name="thaSmallDot" horiz-adv-x="1414" 
d="M790 -118h-207l67 161h73zM1102 385q0 92 -29.5 166t-84.5 125.5t-132 79.5t-173 28q-95 0 -172.5 -28t-132 -80t-84 -126t-29.5 -165q0 -72 40.5 -112t111.5 -40q72 0 115.5 39.5t43.5 115.5h215q0 -45 11.5 -75t32.5 -48t50 -25t64 -7q72 0 112.5 40t40.5 112z
M1316 385q0 -84 -27.5 -157.5t-76.5 -128t-116.5 -86.5t-146.5 -32q-172 0 -265 123q-22 -28 -52.5 -51t-65.5 -39t-73.5 -24.5t-75.5 -8.5q-78 0 -145 32t-116 86.5t-77 128t-28 157.5q0 102 26 188.5t74.5 157t117.5 124t156 90.5q-15 18 -27.5 33.5t-23.5 27.5l132 131
q38 -47 61 -73.5t33 -34.5q36 -30 83 -30q76 0 180 107q49 52 172 218l151 -133q-7 -9 -17 -21.5t-19.5 -25t-18.5 -23.5t-14 -18h1q-36 -47 -55.5 -72t-32.5 -40.5t-25 -27.5t-33 -31q79 -36 142.5 -89t108.5 -122t69 -153.5t24 -182.5zM791 570q0 -22 -8.5 -41.5
t-23.5 -34t-34.5 -23t-41.5 -8.5t-41.5 8.5t-34 23t-23 34t-8.5 41.5t8.5 41.5t23 34.5t34 23.5t41.5 8.5t41.5 -8.5t34.5 -23.5t23.5 -34.5t8.5 -41.5z" />
    <glyph glyph-name="dhaSmallDot" horiz-adv-x="1414" 
d="M787 -117h-207l67 160h73zM1102 385q0 92 -29.5 166t-84.5 125.5t-132 79.5t-173 28q-95 0 -172.5 -28t-132 -80t-84 -126t-29.5 -165q0 -72 40.5 -112t111.5 -40q72 0 115.5 39.5t43.5 115.5h215q0 -45 11.5 -75t32.5 -48t50 -25t64 -7q72 0 112.5 40t40.5 112z
M1316 385q0 -84 -27.5 -157.5t-76.5 -128t-116.5 -86.5t-146.5 -32q-172 0 -265 123q-22 -28 -52.5 -51t-65.5 -39t-73.5 -24.5t-75.5 -8.5q-78 0 -145 32t-116 86.5t-77 128t-28 157.5q0 102 26 188.5t74.5 157t117.5 124t156 90.5q-15 18 -27.5 33.5t-23.5 27.5l132 131
q38 -47 61 -73.5t33 -34.5q36 -30 83 -30q76 0 180 107q49 52 172 218l151 -133q-7 -9 -17 -21.5t-19.5 -25t-18.5 -23.5t-14 -18h1q-36 -47 -55.5 -72t-32.5 -40.5t-25 -27.5t-33 -31q79 -36 142.5 -89t108.5 -122t69 -153.5t24 -182.5zM791 570q0 -22 -8.5 -41.5
t-23.5 -34t-34.5 -23t-41.5 -8.5t-41.5 8.5t-34 23t-23 34t-8.5 41.5t8.5 41.5t23 34.5t34 23.5t41.5 8.5t41.5 -8.5t34.5 -23.5t23.5 -34.5t8.5 -41.5z" />
    <glyph glyph-name="phaSmallDot" horiz-adv-x="1414" 
d="M1315 474q0 -108 -34 -199t-96.5 -156t-150.5 -101.5t-196 -36.5q-79 0 -153 28.5t-144 83.5q-87 -93 -207 -93q-59 0 -111 22.5t-90.5 61t-61 90.5t-22.5 111q0 58 22.5 109.5t61.5 90.5t91 61.5t110 22.5q173 0 276 -226q50 -110 228 -110q60 0 108.5 17t82.5 48
t52.5 75.5t18.5 100.5q0 66 -24 122.5t-70 98.5t-113 65.5t-152 23.5v215q137 0 243.5 -39t180 -108.5t112 -166t38.5 -211.5zM823 1168q-74 -95 -129 -160.5t-91 -100.5q-151 -145 -282 -145q-93 0 -171 70q-15 13 -48 51.5t-84 101.5l131 129q41 -50 64 -76.5t29 -31.5
q33 -30 79 -30q74 0 178 108q17 17 60.5 71.5t114.5 146.5zM647 -118h-208l68 161h72zM404 285q0 13 -6 25.5t-15.5 22.5t-22.5 16t-26 6t-25.5 -5.5t-22.5 -15.5t-16 -22.5t-6 -26.5q0 -29 20.5 -49.5t49.5 -20.5t49.5 20.5t20.5 49.5z" />
    <glyph glyph-name="bhaSmallDot" horiz-adv-x="1414" 
d="M781 -118h-207l67 151h73zM635 856l-14.5 14.5t-28 27t-35.5 33t-35.5 33t-28.5 27.5l-15 15l141 137q29 -29 51 -55t43 -46t43.5 -31.5t51.5 -11.5q16 0 32 7t33.5 20.5t38 34t46.5 48.5q19 20 61 73.5t111 141.5l150 -133q-51 -66 -103 -133.5t-105 -124.5
q59 -29 104.5 -78t76.5 -111.5t47 -135t16 -147.5q0 -96 -25.5 -183t-75 -153t-121 -104.5t-163.5 -38.5q-80 0 -142.5 31t-104.5 88q-43 -60 -109 -90t-163 -30q-86 0 -153.5 27.5t-113.5 76t-70 113.5t-24 140q0 62 25.5 105.5t64 75.5t83 55t83 45t64 46.5t25.5 58.5
q0 60 -59 60q-24 0 -41 -27.5t-17 -64.5h-214q0 63 21.5 118.5t59 97.5t86.5 66.5t105 24.5q54 0 103.5 -21.5t87 -58.5t60 -86.5t22.5 -104.5q0 -71 -25.5 -119t-64 -81t-83 -55t-83 -41.5t-64 -41t-25.5 -52.5q0 -51 37.5 -78t106.5 -27q34 0 64.5 9.5t53 29t36 48.5
t13.5 68h215q0 -80 37.5 -117.5t103.5 -37.5q39 0 70.5 17t53.5 47t34 72t12 92q0 63 -12.5 120t-40 102.5t-72.5 76t-110 41.5q-23 -4 -56 -4q-29 0 -53 3.5t-45 11t-40 18.5t-38 26z" />
    <glyph glyph-name="ghaPSmallDot" horiz-adv-x="2124" 
d="M655 -118h-207l67 161h73zM2029 483q0 -105 -36 -197t-99.5 -159.5t-149.5 -106.5t-186 -39q-63 0 -113 8.5t-92.5 27.5t-79.5 49.5t-74 74.5q-142 -160 -347 -160q-53 0 -93.5 4.5t-74.5 17t-65 34t-66 54.5q-42 -44 -94 -67.5t-111 -23.5t-111 22.5t-90.5 61t-61 90.5
t-22.5 111q0 58 22.5 110t61 90.5t90.5 61t111 22.5q63 0 106.5 -22.5t75.5 -58.5t57.5 -81.5t52.5 -91.5l-1 2q58 -84 213 -84q59 0 107 18t82.5 50.5t53.5 78.5t19 103q0 61 -20 115.5t-59.5 96t-99.5 65.5t-139 24v215q121 0 219.5 -41.5t168 -112t107.5 -164.5t38 -198
q0 -28 -3 -57t-9 -57q5 -31 26 -56t54 -43t74.5 -27.5t86.5 -9.5q58 0 105 17t80.5 49.5t52 78.5t18.5 105q0 63 -20.5 117.5t-61 95.5t-100.5 64.5t-139 23.5v215q121 0 220 -42t169.5 -112.5t108.5 -164.5t38 -197zM418 285q0 13 -6 25.5t-16 22.5t-22.5 16t-25.5 6
q-27 0 -48.5 -20.5t-21.5 -49.5q0 -30 20 -50t50 -20q29 0 49.5 21.5t20.5 48.5z" />
    <glyph glyph-name="chaPSmallDot" horiz-adv-x="1414" 
d="M784 -118h-207l67 153h73zM1315 385q0 -90 -26.5 -164.5t-74.5 -127.5t-115.5 -82.5t-150.5 -29.5q-95 0 -159.5 27.5t-106.5 89.5q-81 -117 -266 -117q-83 0 -150.5 31.5t-115.5 86t-74 127t-26 154.5q0 46 9 86t29 73h-90v203h453v-203q-50 0 -85.5 -12.5t-58 -34
t-33 -50.5t-10.5 -62q0 -69 41.5 -108t110.5 -39q33 0 61.5 9.5t50.5 29.5t34.5 51t12.5 75h215q0 -43 12.5 -74t34 -51.5t50 -30t61.5 -9.5q72 0 112.5 40t40.5 112q0 83 -34 156t-94 127t-142.5 85t-180.5 31v215q87 4 170.5 -16t157.5 -60t136 -97t106.5 -127
t69.5 -149.5t25 -164.5z" />
    <glyph glyph-name="jhaPSmallDot" horiz-adv-x="2544" 
d="M2445 483q0 -110 -33 -202.5t-94.5 -159t-148 -103.5t-192.5 -37q-221 0 -341 161q-66 -79 -153 -120t-194 -41q-59 0 -107 8.5t-90 28.5t-79.5 52t-75.5 79q-27 -39 -68.5 -70t-90.5 -52.5t-103 -33.5t-105 -12q-107 0 -198 40.5t-158.5 110.5t-105.5 164.5t-38 202.5
q0 103 39.5 194t107 159t158.5 107.5t195 39.5q103 0 194 -39.5t158.5 -107.5t107 -159t39.5 -194q0 -6 -2 -21t-4.5 -32.5t-4.5 -33.5t-2 -25q0 -36 18.5 -64.5t50 -48.5t74 -30.5t90.5 -10.5q120 0 186.5 65.5t66.5 184.5q0 61 -19.5 115.5t-59.5 96t-99.5 65.5t-139.5 24
v215q121 0 219.5 -41.5t168 -112t107.5 -164.5t38 -198q0 -9 -1.5 -23.5l-3 -29t-3 -27t-1.5 -16.5q0 -37 18 -66t48.5 -48.5t72.5 -29.5t90 -10q120 0 186.5 65.5t66.5 184.5q0 61 -20 115.5t-59.5 96t-99.5 65.5t-139 24v215q121 0 219.5 -41.5t168 -112t107.5 -164.5
t38 -198zM1741 -118h-207l67 178h73zM854 499q0 59 -22.5 111t-61 90.5t-90.5 61t-110 22.5q-59 0 -111 -22.5t-90.5 -61t-61 -90.5t-22.5 -111q0 -58 22 -106.5t60 -84t90.5 -55.5t112.5 -20t111.5 19.5t90 55t60.5 84t22 107.5z" />
    <glyph glyph-name="ddhaPSmallDot" horiz-adv-x="1414" 
d="M796 -117h-207l67 168h73zM1303 235q0 -55 -23 -101.5t-63.5 -80.5t-95.5 -53t-119 -19q-48 0 -94.5 10.5t-87 30.5t-73.5 48t-54 63q-42 -75 -111.5 -114t-164.5 -39q-83 0 -151 30t-116 83.5t-74 127.5t-26 163q0 86 24.5 165.5t68 148t103 124t130 95t148.5 61
t159 21.5q261 0 483 -222l-151 -151q-157 158 -332 158q-83 0 -158.5 -32.5t-133.5 -87.5t-92 -127.5t-34 -152.5q0 -69 37.5 -110.5t114.5 -41.5q81 0 120 37.5t39 107.5h215q0 -69 26 -114t73 -74q-2 11 -3.5 23t-1.5 23q0 43 16.5 81.5t44.5 66.5t66 44.5t82 16.5
q43 0 81 -16.5t66.5 -45t45 -66.5t16.5 -81zM1134 234q0 17 -11.5 28.5t-27.5 11.5q-17 0 -28.5 -11.5t-11.5 -28.5t6 -32.5t17 -28.5q29 2 42.5 20.5t13.5 40.5z" />
    <glyph glyph-name="thaPSmallDot" horiz-adv-x="1414" 
d="M788 -118h-207l67 161h73zM1316 385q0 -84 -27.5 -157.5t-76.5 -128t-116.5 -86.5t-146.5 -32q-170 0 -265 124q-22 -29 -52 -52t-65 -39t-73 -24.5t-77 -8.5q-78 0 -145 32t-116 86.5t-77 128t-28 157.5q0 87 24.5 166t67.5 147.5t102.5 124t129.5 94.5t148.5 60.5
t159.5 21.5q85 0 164.5 -23t150 -63.5t129 -97.5t100.5 -125.5t65.5 -145.5t23.5 -159zM1102 385q0 79 -34 151.5t-92 127.5t-133.5 87.5t-159.5 32.5t-159.5 -32.5t-133 -87.5t-91.5 -127.5t-34 -151.5q0 -72 40.5 -112t111.5 -40q72 0 115.5 34.5t43.5 110.5h215
q0 -76 43.5 -110.5t114.5 -34.5q72 0 112.5 40t40.5 112zM791 570q0 -22 -8.5 -41.5t-23.5 -34t-34.5 -23t-41.5 -8.5t-41.5 8.5t-34 23t-23 34t-8.5 41.5t8.5 41.5t23 34.5t34 23.5t41.5 8.5t41.5 -8.5t34.5 -23.5t23.5 -34.5t8.5 -41.5z" />
    <glyph glyph-name="dhaPSmallDot" horiz-adv-x="1414" 
d="M785 -117h-207l67 158h73zM1316 385q0 -84 -27.5 -157.5t-76.5 -128t-116.5 -86.5t-146.5 -32q-170 0 -265 124q-22 -29 -52 -52t-65 -39t-73 -24.5t-77 -8.5q-78 0 -145 32t-116 86.5t-77 128t-28 157.5q0 87 24.5 166t67.5 147.5t102.5 124t129.5 94.5t148.5 60.5
t159.5 21.5q85 0 164.5 -23t150 -63.5t129 -97.5t100.5 -125.5t65.5 -145.5t23.5 -159zM1102 385q0 79 -34 151.5t-92 127.5t-133.5 87.5t-159.5 32.5t-159.5 -32.5t-133 -87.5t-91.5 -127.5t-34 -151.5q0 -72 40.5 -112t111.5 -40q72 0 115.5 34.5t43.5 110.5h215
q0 -76 43.5 -110.5t114.5 -34.5q72 0 112.5 40t40.5 112z" />
    <glyph glyph-name="phaPSmallDot" horiz-adv-x="1414" 
d="M1316 474q0 -108 -34 -198.5t-96 -156t-150.5 -102t-196.5 -36.5q-157 0 -297 111q-44 -53 -93 -72.5t-114 -19.5q-59 0 -110.5 22.5t-90 61t-61 90.5t-22.5 111q0 58 22.5 109.5t61.5 90.5t90.5 61.5t109.5 22.5q44 0 80 -10t68.5 -35.5t63.5 -69.5t64 -111v1
q55 -111 228 -111q60 0 108.5 16.5t83 48t53 76t18.5 100.5q0 72 -27.5 129t-79 97.5t-125.5 62t-167 21.5v215q147 0 261 -36.5t192.5 -104.5t119 -165t40.5 -219zM651 -117h-207l67 155h73zM405 285q0 13 -6 25.5t-15.5 22.5t-22.5 16t-26 6t-25.5 -5.5t-22.5 -15.5
t-16 -22.5t-6 -26.5q0 -30 20.5 -50t49.5 -20q30 0 50 21t20 49z" />
    <glyph glyph-name="bhaPSmallDot" horiz-adv-x="1414" 
d="M761 -118h-207l67 151h73zM1316 461q0 -110 -28.5 -198.5t-80.5 -151t-126 -96.5t-165 -34q-84 0 -148.5 28.5t-110.5 82.5q-43 -53 -107 -82t-148 -29q-75 0 -139 28t-111 76.5t-74 113.5t-27 139q0 64 28 109.5t69.5 79t90 58t90 46t69.5 43.5t28 50q0 60 -59 60
q-12 0 -25 -6t-24.5 -16.5t-19 -26t-7.5 -33.5h-213q0 74 25 129.5t65.5 93t92.5 56t106 18.5t103.5 -22.5t87 -60t60 -87.5t22.5 -105q0 -51 -16 -90t-42.5 -68.5t-60 -52t-69 -40.5t-69 -33t-60 -30.5t-42.5 -32.5t-16 -39q0 -105 137 -105q145 0 145 129h215
q0 -58 38 -93.5t116 -35.5q91 0 138.5 61t47.5 167q0 74 -23.5 134t-61 102t-84 64.5t-92.5 22.5v215q95 0 181 -41t151.5 -113.5t104 -171t38.5 -212.5z" />
    <glyph glyph-name="lvl1Ka1" horiz-adv-x="964" 
d="M912 -127h-202q19 -24 35.5 -55.5t28 -66t18 -70t6.5 -67.5q0 -98 -31.5 -181.5t-88.5 -144t-136 -94.5t-173 -34q-95 0 -174.5 34t-136.5 95t-89 144t-32 181q0 80 20 168t50.5 178t66 180t66 174.5t50.5 161t20 139.5q0 91 -61 141t-166 50v193q98 0 175.5 -29
t131.5 -80t83 -121.5t29 -153.5q0 -47 -20 -126t-50.5 -173.5t-66 -198t-66 -199t-50.5 -175.5t-20 -129q0 -53 18 -99t50 -80t76 -53.5t96 -19.5q57 0 101 18.5t74 51.5t45.5 79.5t15.5 102.5q0 50 -14 96t-42 81.5t-70.5 58t-99.5 24.5v191h533v-192z" />
    <glyph glyph-name="lvl1Ka1a" 
d="M-166 -307h-186q-41 -67 -110 -106.5t-149 -39.5q-178 0 -257 146h-187v192h321q0 -44 11 -72t28.5 -44.5t39.5 -23t44 -6.5q24 0 46 9t39 27t27.5 45.5t10.5 64.5h322v-192z" />
    <glyph glyph-name="lvl1Kha1" 
d="M15 -534q0 -82 -26.5 -151t-75.5 -119t-117 -78t-152 -28q-75 0 -132.5 19.5t-111.5 56.5q-103 -76 -243 -76q-47 0 -88 16t-71 43t-47.5 63t-17.5 75q0 40 15 74t41 59.5t61 40t76 14.5q66 0 122 -19.5t110 -51.5q6 15 9.5 42t3.5 45q0 22 -3.5 49t-9.5 45
q-26 -39 -69 -60.5t-90 -21.5q-40 0 -76 13.5t-63 37.5t-43 57.5t-16 74.5q0 40 15.5 76t42.5 63t63 42.5t77 15.5q74 0 140 -30.5t116 -84t79 -125t29 -152.5q0 -87 -44 -178q27 -14 59.5 -22.5t65.5 -8.5q81 0 129.5 48t48.5 136q0 50 -14.5 91.5t-45 71t-78 46
t-112.5 16.5v192q103 0 185.5 -32.5t139.5 -88.5t87.5 -132.5t30.5 -163.5zM-512 -1028q0 -90 -90 -90q-92 0 -92 90q0 70 91 154q91 -82 91 -154zM-801 -344q21 0 39 11t25 32q-11 10 -29.5 14t-34.5 4q-13 0 -22 -9t-9 -22q0 -12 9 -21t22 -9zM-856 -744q64 0 105 23
q-62 39 -121 39q-13 0 -22 -9t-9 -22q0 -11 15 -21t32 -10z" />
    <glyph glyph-name="lvl1Ga1" 
d="M20 -515q0 -178 -110 -389l-174 96q47 85 69 157.5t22 135.5q0 44 -16.5 84.5t-45 72t-65.5 50.5t-77 19t-77 -18.5t-65 -50t-45 -72.5t-17 -85q0 -63 22 -135.5t69 -157.5l-174 -96q-110 211 -110 389q0 84 31.5 159.5t85.5 133t126.5 91.5t153.5 34t153 -34
t126.5 -91.5t86 -133t31.5 -159.5z" />
    <glyph glyph-name="lvl1Gha1" 
d="M14 -479q0 -84 -19 -154t-54.5 -120.5t-85.5 -78.5t-112 -28q-60 0 -106.5 22.5t-78.5 65.5q-74 -88 -191 -88q-23 0 -45.5 6t-41.5 15.5t-34 23t-24 28.5q-20 -23 -53 -41t-71 -18q-42 0 -79 18.5t-64 49t-43 71.5t-16 86t15.5 85.5t43 71.5t64.5 49t79 18
q71 0 118.5 -45t78.5 -135q10 -31 23.5 -46.5t48.5 -15.5q96 0 96 160q0 40 -12 76t-36 63t-60 42.5t-84 15.5v194q86 0 155 -31.5t117 -85.5t73.5 -125t25.5 -149l-1 -56q-1 -52 25 -78t77 -26q21 0 38 13t28.5 34.5t17.5 50.5t6 62q0 39 -9 74.5t-29.5 62.5t-53 43.5
t-79.5 16.5v194q85 0 150.5 -31.5t110.5 -85t68 -124.5t23 -150zM-698 -979q0 -17 -5 -33t-15.5 -29t-27 -20.5t-38.5 -7.5q-23 0 -39 8t-26 21t-15 29t-5 32q0 35 19.5 70t64.5 77q46 -41 66.5 -75.5t20.5 -71.5zM-869 -618q0 20 -10 30t-26 10q-11 0 -21 -10t-10 -30
q0 -42 31 -42q13 0 24.5 12.5t11.5 29.5z" />
    <glyph glyph-name="lvl1Nga1" 
d="M16 -570q0 -68 -22.5 -125t-62 -98t-94 -64t-117.5 -23q-69 0 -119.5 17.5t-85.5 55.5q-70 -73 -205 -73q-62 0 -115.5 20.5t-93.5 57t-63 86.5t-23 109q0 47 21.5 82.5t53.5 62t69 46.5t69 37.5t53.5 33t21.5 34.5q0 17 -12.5 27.5t-29.5 10.5t-34 -15t-17 -51h-181
q0 63 20 110t52.5 78.5t74 47.5t85.5 16q34 0 69 -11.5t65 -31t53 -46.5t34 -58h44v127h175v-127h71v-173h-296q-10 -25 -33.5 -44t-53.5 -34t-62 -28.5t-59 -27.5t-44 -29.5t-17 -36.5q0 -81 103 -81q51 0 80 30.5t29 97.5h193q0 -66 29 -97t79 -31q46 0 75 33.5t29 83.5
q0 13 -5 28t-14 28.5t-20.5 24.5t-24.5 18l146 137q30 -30 51 -58.5t34 -57t19 -58t6 -61.5z" />
    <glyph glyph-name="lvl1Ca1" horiz-adv-x="1018" 
d="M936 -381q0 -108 -23.5 -193.5t-67.5 -144.5t-107.5 -90t-143.5 -31q-66 0 -117.5 19t-86.5 54q-68 -73 -207 -73q-66 0 -120.5 26t-93 68.5t-60 97.5t-21.5 113q0 29 5.5 57.5t15.5 51.5h-61v182h376v-182q-41 0 -68.5 -8.5t-44 -23t-23.5 -34.5t-7 -43t7 -43.5
t20.5 -36t32.5 -24.5t42 -9q51 0 80.5 35t29.5 103h192q1 -29 6 -54.5t17 -44t32.5 -29t53.5 -10.5q147 0 147 260q0 135 -49.5 269.5t-140 256t-217.5 223.5t-283 171l68 200q187 -89 338 -212.5t257.5 -269t164 -307t57.5 -324.5z" />
    <glyph glyph-name="lvl1Cha1" horiz-adv-x="1018" 
d="M936 -381q0 -108 -23.5 -193.5t-67.5 -144.5t-107.5 -90t-143.5 -31q-66 0 -117.5 26t-86.5 61q-34 -36 -85.5 -61.5t-121.5 -25.5q-63 0 -117 24.5t-93.5 66.5t-62 97t-22.5 117q0 29 5.5 57.5t15.5 51.5h-61v182h376v-182q-41 0 -68.5 -8.5t-44 -23t-23.5 -34.5t-7 -43
t7 -43.5t20.5 -36t32.5 -24.5t42 -9q51 0 80.5 30t29.5 98h192q0 -69 29 -98.5t80 -29.5q147 0 147 260q0 135 -49.5 269.5t-140 256t-217.5 223.5t-283 171l68 200q187 -89 338 -212.5t257.5 -269t164 -307t57.5 -324.5zM482 -971q0 -45 -23 -69t-68 -24t-68 24t-23 69
q0 35 22.5 72t68.5 79q45 -41 68 -77.5t23 -73.5z" />
    <glyph glyph-name="lvl1Ja1" 
d="M-970 -349q0 63 23 110t58.5 79t79 47.5t84.5 15.5q39 0 70.5 -7.5t58.5 -27t51.5 -54t49.5 -89.5q24 -62 102 -62q20 0 30 10.5t10 24.5q0 10 -13 21t-49 11v174q63 -1 109 -17.5t76 -45t44 -67t14 -82.5q0 -42 -18 -78.5t-49 -64t-71 -43t-83 -15.5q-88 0 -154 45
q-3 -11 -22.5 -22t-47 -23t-58.5 -25t-57 -26.5t-43.5 -27.5t-17.5 -29q0 -81 103 -81q51 0 80 31t29 87h193q0 -65 29 -91.5t79 -26.5q46 0 75 33.5t29 83.5q0 27 -16.5 47t-31.5 40l149 123q20 -14 36.5 -36.5t28.5 -50t19 -59t7 -63.5q0 -68 -22.5 -125t-62 -98t-94 -64
t-117.5 -23q-69 0 -119.5 17.5t-85.5 55.5q-70 -73 -205 -73q-62 0 -115.5 20.5t-93.5 57t-63 86.5t-23 109q0 50 22.5 85t56.5 60t74 43t74 34.5t56.5 33.5t22.5 40q0 17 -14.5 24.5t-31.5 7.5q-8 0 -18.5 -3t-20 -9.5t-16.5 -18t-7 -29.5h-183z" />
    <glyph glyph-name="lvl1Jha1" 
d="M-160 -472q0 36 -5.5 72.5t-19.5 66t-38.5 48.5t-63.5 19v169q73 0 129.5 -30.5t94.5 -82t57.5 -119.5t19.5 -143q0 -76 -16 -140.5t-46.5 -111t-74.5 -73t-101 -26.5q-45 0 -80.5 22.5t-63.5 55.5q-35 -33 -74.5 -55.5t-84.5 -22.5t-81.5 23t-65.5 59q-32 -36 -72.5 -59
t-91.5 -23q-57 0 -106 29.5t-84.5 79.5t-55.5 116.5t-20 140.5q0 72 19.5 137t54.5 114.5t84 79t108 29.5q60 0 109 -33t84 -84.5t54.5 -113.5t19.5 -119q0 -6 -1 -17.5t-2 -23.5t-2 -22.5t-1 -14.5q0 -105 50 -105q75 0 75 165q0 31 -5 65t-19 62t-39 46.5t-64 19.5v175
q68 0 124 -28.5t95.5 -77t61.5 -114t22 -138.5q0 -2 -1 -12t-1.5 -22t-1.5 -22.5t-1 -13.5q0 -105 57 -105q64 0 64 158zM-278 -962q0 -38 -22.5 -65t-67.5 -27q-23 0 -40 8t-28.5 20.5t-17.5 29t-6 34.5q0 70 91 154q91 -81 91 -154zM-745 -457q0 83 -24.5 125.5
t-68.5 42.5q-42 0 -67.5 -45.5t-25.5 -122.5q0 -33 7 -64t19.5 -55.5t29.5 -39t37 -14.5q21 0 38 14.5t29 38.5t19 55.5t7 64.5z" />
    <glyph glyph-name="lvl1Nya1" 
d="M14 -415h-218v-2q0 -194 -120 -318q44 -82 44 -210h-193q0 34 -4.5 59.5t-12.5 45.5q-100 -50 -189 -50q-45 0 -88 17.5t-76 47t-53.5 68.5t-20.5 82t18 82t49 67.5t71 45.5t84 17q142 0 254 -111q44 61 44 157q0 25 -5.5 48.5t-16 41t-25.5 28t-33 10.5q-23 0 -39.5 -6
t-27.5 -20.5t-16.5 -39t-5.5 -61.5h-192q0 73 -20.5 100t-63.5 27q-30 0 -49 -22t-19 -54q0 -23 13 -42.5t37 -36.5l-135 -135q-22 17 -42 39t-35 48.5t-23.5 58t-8.5 68.5q0 56 19.5 105t54 85t83 57t105.5 21q117 0 179 -72q32 35 79.5 53.5t106.5 18.5q159 0 233 -145h39
v145h155v-145h64v-173zM-668 -708q23 0 47 5t49 17q-54 42 -116 42q-36 0 -36 -28q0 -14 16.5 -25t39.5 -11z" />
    <glyph glyph-name="lvl1Tta1" 
d="M16 -522q0 -81 -23 -148.5t-64.5 -116.5t-99.5 -76t-127 -27q-63 0 -111.5 17t-80.5 49q-69 -66 -187 -66q-71 0 -131 28.5t-104 78t-68.5 117t-24.5 144.5q0 88 20 165.5t56.5 135.5t87.5 91t113 33q48 0 90.5 -18.5t74 -50t50 -73.5t18.5 -90q0 -49 -18.5 -91.5
t-50.5 -73.5t-74 -48.5t-89 -17.5q-45 0 -83 16q1 -32 12.5 -60t30 -49t41.5 -33t49 -12q42 0 67 28t25 88h192q0 -68 24 -92t71 -24q27 0 49.5 13.5t38 37t24.5 55.5t9 70q0 51 -18 94t-50 73.5t-76 48t-97 17.5v192q98 0 178 -31.5t137 -87.5t88 -134.5t31 -171.5z
M-676 -333q0 20 -14 34t-34 14q-19 0 -35.5 -15.5t-24.5 -36.5q6 -18 23 -31t37 -13t34 14t14 34z" />
    <glyph glyph-name="lvl1Ttha1" 
d="M20 -493q0 -83 -31.5 -155t-85.5 -126t-126.5 -85t-153.5 -31t-153.5 31t-126.5 85t-85.5 126t-31.5 155q0 82 31.5 154t85.5 126t126 85t154 31t154 -31t126 -85t85.5 -126t31.5 -154zM-173 -493q0 43 -16.5 80.5t-44 65t-64.5 43t-79 15.5t-79.5 -16.5t-65 -44.5
t-43.5 -65t-16 -78q0 -43 16 -80.5t44 -65t65 -43.5t79 -16q41 0 78 16t65 43.5t44.5 65t16.5 80.5zM-281 -493q0 -20 -7.5 -37.5t-21 -30.5t-31 -20.5t-36.5 -7.5q-20 0 -37 7.5t-30.5 20.5t-21 30.5t-7.5 37.5q0 19 7.5 36.5t21 31t30.5 21t37 7.5q19 0 36.5 -7.5t31 -21
t21 -31t7.5 -36.5z" />
    <glyph glyph-name="lvl1Dda1" 
d="M-128 -695q0 14 -10 21.5t-18 7.5q-22 0 -32 -19t-10 -45q0 -4 5 -4q29 0 47 13t18 26zM16 -696q0 -41 -20 -76.5t-53.5 -61.5t-78.5 -41t-94 -15q-69 0 -133 26.5t-108 74.5q-76 -102 -219 -102q-65 0 -119 24t-93 66t-61 98.5t-22 120.5q0 103 42 191.5t112 154
t160 102.5t186 37q207 0 391 -184l-136 -134q-125 125 -255 125q-60 0 -116 -24t-98.5 -64t-68 -93t-25.5 -111q0 -51 27 -84t76 -33q51 0 80 40.5t29 107.5h193q0 -27 3.5 -47.5t11 -36t18 -28t25.5 -23.5q11 84 59 124.5t112 40.5q38 0 70 -14t55.5 -37.5t36.5 -55.5
t13 -68z" />
    <glyph glyph-name="lvl1Ddha1" 
d="M-379 -1008q0 -35 -23 -62.5t-68 -27.5q-23 0 -40 7.5t-28.5 20.5t-17 29t-5.5 33q0 70 90 154q92 -81 92 -154zM-128 -695q0 14 -10 21.5t-18 7.5q-22 0 -32 -19t-10 -45q0 -4 5 -4q29 0 47 13t18 26zM16 -696q0 -41 -20 -76.5t-53.5 -61.5t-78.5 -41t-94 -15
q-69 0 -133 26.5t-108 74.5q-76 -102 -219 -102q-65 0 -119 24t-93 66t-61 98.5t-22 120.5q0 103 42 191.5t112 154t160 102.5t186 37q207 0 391 -184l-136 -134q-125 125 -255 125q-60 0 -116 -24t-98.5 -64t-68 -93t-25.5 -111q0 -51 27 -84t76 -33q51 0 80 40.5t29 107.5
h193q0 -27 3.5 -47.5t11 -36t18 -28t25.5 -23.5q11 84 59 124.5t112 40.5q38 0 70 -14t55.5 -37.5t36.5 -55.5t13 -68z" />
    <glyph glyph-name="lvl1Nna1" 
d="M16 -514q0 -84 -19 -153t-55 -118.5t-87 -77t-115 -27.5q-47 0 -87 17.5t-69 48t-46 72t-17 88.5q0 48 17.5 89t47.5 71.5t70 48t85 17.5q21 0 42 -5t40 -13q-11 80 -46.5 123.5t-94.5 43.5q-48 0 -80 -27.5t-32 -89.5h-190q0 59 -27 88t-70 29q-86 0 -86 -69
q0 -13 5 -25.5t16.5 -22.5t30 -16t45.5 -6v-153q-27 0 -45.5 -6t-30 -16t-16.5 -22.5t-5 -25.5q0 -20 13.5 -33.5t33.5 -13.5t38 10.5t18 43.5h182q0 -67 -18.5 -113.5t-50.5 -76t-75.5 -43t-93.5 -13.5t-93.5 19t-75.5 51.5t-51 76t-19 92.5q0 20 4.5 41t13 40.5t19 36
t22.5 28.5q-25 27 -42 65.5t-17 81.5q0 57 20.5 104.5t57 82.5t87.5 54.5t113 19.5q106 0 186 -81q42 40 97.5 60.5t115.5 20.5q73 0 134 -31.5t105.5 -87.5t69.5 -132t25 -166zM-254 -696q19 0 40 11t33 34q-12 15 -33.5 24t-39.5 9q-17 0 -28 -11t-11 -28t11 -28t28 -11z
" />
    <glyph glyph-name="lvl1Ta1" 
d="M17 -310q0 -47 -18 -87.5t-48.5 -70.5t-71 -47.5t-85.5 -17.5h-731v192h510q-2 9 -2 16v15q0 46 17 86.5t47 71t71 48t88 17.5q46 0 86.5 -17.5t71 -48t48 -71t17.5 -86.5zM-156 -306q0 22 -14.5 36.5t-36.5 14.5t-36 -14.5t-14 -36.5t14 -36t36 -14t36.5 14t14.5 36z
" />
    <glyph glyph-name="lvl1Tha1" 
d="M-176 -581q0 59 -25.5 112t-68 93t-98.5 63.5t-117 23.5q-60 0 -116 -23.5t-98.5 -63t-68 -92.5t-25.5 -113q0 -24 6.5 -45t19 -37t32 -25.5t45.5 -9.5q51 0 80 25t29 83h193q-1 -51 28.5 -79.5t79.5 -28.5q48 0 76 31.5t28 85.5zM16 -581q0 -68 -22.5 -124.5t-62 -97.5
t-93.5 -64t-118 -23q-131 0 -204 75q-68 -75 -206 -75q-65 0 -119 24t-93 66t-61 98t-22 121q0 103 42 191.5t112 153.5t160 102t186 37q101 0 192 -39t159.5 -105.5t109 -154.5t40.5 -185zM-392 -1028q0 -90 -90 -90q-92 0 -92 90q0 70 91 154q91 -82 91 -154zM-389 -439
q0 -20 -7.5 -37t-21 -30.5t-31 -21t-36.5 -7.5q-20 0 -37 7.5t-30.5 21t-21 30.5t-7.5 37q0 19 7.5 36.5t21 31t30.5 21t37 7.5q19 0 36.5 -7.5t31 -21t21 -31t7.5 -36.5z" />
    <glyph glyph-name="lvl1Da1" 
d="M-176 -581q0 59 -25.5 112t-68 93t-98.5 63.5t-117 23.5q-60 0 -116 -23.5t-98.5 -63t-68 -92.5t-25.5 -113q0 -24 6.5 -45t19 -37t32 -25.5t45.5 -9.5q51 0 80 30t29 88h193q-1 -51 28.5 -84.5t79.5 -33.5q48 0 76 31.5t28 85.5zM16 -581q0 -68 -22.5 -124.5t-62 -97.5
t-93.5 -64t-118 -23q-131 0 -204 75q-68 -75 -206 -75q-65 0 -119 24t-93 66t-61 98t-22 121q0 103 42 191.5t112 153.5t160 102t186 37q101 0 192 -39t159.5 -105.5t109 -154.5t40.5 -185z" />
    <glyph glyph-name="lvl1Dha1" 
d="M-176 -581q0 59 -25.5 112t-68 93t-98.5 63.5t-117 23.5q-60 0 -116 -23.5t-98.5 -63t-68 -92.5t-25.5 -113q0 -24 6.5 -45t19 -37t32 -25.5t45.5 -9.5q51 0 80 30t29 88h193q-1 -51 28.5 -84.5t79.5 -33.5q48 0 76 31.5t28 85.5zM16 -581q0 -68 -22.5 -124.5t-62 -97.5
t-93.5 -64t-118 -23q-131 0 -204 75q-68 -75 -206 -75q-65 0 -119 24t-93 66t-61 98t-22 121q0 103 42 191.5t112 153.5t160 102t186 37q101 0 192 -39t159.5 -105.5t109 -154.5t40.5 -185zM-392 -1028q0 -90 -90 -90q-92 0 -92 90q0 70 91 154q91 -82 91 -154z" />
    <glyph glyph-name="lvl1Na1" horiz-adv-x="1132" 
d="M1115 -559q-116 -281 -394 -281q-65 0 -124.5 21.5t-122.5 70.5q-134 -92 -298 -92q-69 0 -128 20t-103 56t-69 87t-25 113q0 54 20.5 99.5t56.5 79t85 52t107 18.5q156 0 345 -168q47 76 71 170t24 207q0 147 -34 286t-101 261.5t-166 225.5t-228 179l103 167
q153 -103 269 -227.5t193.5 -266t116.5 -299t39 -326.5q0 -296 -143 -502q56 -31 112 -31q159 0 218 158zM176 -639q88 0 150 28q-121 104 -206 104q-31 0 -53.5 -17t-22.5 -40q0 -75 132 -75z" />
    <glyph glyph-name="lvl1Pa1" horiz-adv-x="928" 
d="M852 -353q0 -112 -26 -202t-75 -153.5t-119.5 -97.5t-158.5 -34q-128 0 -213 90q-52 -90 -175 -90q-47 0 -88.5 18t-72 49t-48.5 72t-18 88q0 46 18 87.5t49 72.5t72 49t88 18q96 0 175 -76q25 -28 50 -59t51.5 -57t54 -43t57.5 -17q187 0 187 285q0 154 -41 290
t-122.5 250t-204.5 203t-286 149l69 190q197 -80 343 -189t242.5 -245.5t144 -298.5t47.5 -349zM134 -611q0 20 -14 33t-35 13q-19 0 -33 -13t-14 -33t14 -34t33 -14q21 0 35 14t14 34z" />
    <glyph glyph-name="lvl1Pha1" horiz-adv-x="928" 
d="M351 -948q0 -90 -91 -90t-91 90q0 70 90 154q92 -81 92 -154zM852 -353q0 -112 -26 -202t-75 -153.5t-119.5 -97.5t-158.5 -34q-128 0 -213 90q-30 -36 -72 -63t-103 -27q-47 0 -88.5 18t-72 49t-48.5 72t-18 88q0 46 18 87.5t49 72.5t72 49t88 18q96 0 175 -76
q25 -28 50 -59t51.5 -57t54 -43t57.5 -17q187 0 187 285q0 154 -41 290t-122.5 250t-204.5 203t-286 149l69 190q197 -80 343 -189t242.5 -245.5t144 -298.5t47.5 -349zM134 -611q0 20 -14 33t-35 13q-19 0 -33 -13t-14 -33t14 -34t33 -14q21 0 35 14t14 34z" />
    <glyph glyph-name="lvl1Ba1" horiz-adv-x="978" 
d="M896 -381q0 -102 -23.5 -186.5t-67.5 -145t-106.5 -94t-140.5 -33.5q-58 0 -110 19t-89 51q-36 -36 -84.5 -53t-111.5 -17q-60 0 -112.5 19.5t-90.5 55t-60 86t-22 112.5q0 53 21 96.5t52 76.5q-14 25 -26 56t-12 72q0 44 17 84t46.5 70t70 47.5t88.5 17.5
q44 0 84.5 -18.5t71.5 -49.5t49.5 -71.5t18.5 -84.5q0 -66 -32 -114.5t-101 -71.5q-28 -10 -56 -20.5t-50 -24t-36 -29.5t-14 -36q0 -71 93 -71q49 0 73.5 28t24.5 78h192q0 -106 105 -106q33 0 59.5 18t45 51t28.5 79t10 102q0 157 -44 299.5t-129.5 262.5t-212 213
t-290.5 152l70 190q198 -80 348 -194.5t250.5 -257t151.5 -308.5t51 -350zM178 -273q0 17 -10 32t-30 15q-23 0 -31.5 -17t-8.5 -37q0 -19 10 -36q37 5 53.5 17t16.5 26z" />
    <glyph glyph-name="lvl1Bha1" horiz-adv-x="978" 
d="M-110 -299q0 63 20.5 110.5t54.5 79t78.5 47t91.5 15.5q45 0 85.5 -18.5t71 -49t49 -71t18.5 -85.5t-21.5 -78t-53.5 -57.5t-69.5 -43.5t-69.5 -37t-53.5 -37t-21.5 -43q0 -71 93 -71q49 0 73.5 28.5t24.5 77.5h192q0 -48 25.5 -77t79.5 -29q34 0 61 19t45 52t27.5 79
t9.5 100q0 157 -44 304.5t-129.5 272.5t-212 223t-290.5 157l70 190q197 -80 346.5 -198.5t250.5 -266t152.5 -318.5t51.5 -357q0 -102 -24 -186.5t-68 -145t-106.5 -94t-139.5 -33.5q-29 0 -58.5 8t-56 21t-48.5 29t-36 32q-14 -18 -34.5 -34.5t-46 -28.5t-55 -19.5
t-60.5 -7.5q-60 0 -112 19.5t-90.5 55.5t-60.5 86t-22 112q0 39 21.5 72t53.5 60.5t69 50.5t69 43t53.5 37t21.5 33q0 17 -9.5 29.5t-32.5 12.5q-17 0 -35 -19t-18 -51h-181zM451 -958q0 -90 -90 -90q-92 0 -92 90q0 70 91 154q91 -82 91 -154z" />
    <glyph glyph-name="lvl1Ma1" horiz-adv-x="866" 
d="M853 -337q0 -118 -37 -211t-102.5 -158t-155 -99.5t-193.5 -34.5q-105 0 -193 35.5t-151.5 99t-99 152t-35.5 193.5q0 136 67 247.5t183 188.5q12 73 25.5 148t24 146.5t17.5 135t7 112.5q0 52 -9.5 88.5t-30.5 58.5t-53 32t-77 10v192q91 0 159 -28t113.5 -78t68 -120.5
t22.5 -154.5q0 -51 -6.5 -113t-16 -128.5t-22 -135.5t-24.5 -133q9 1 16.5 1h18.5q58 0 108.5 -21.5t88 -59t59 -87.5t21.5 -106q0 -57 -22 -107.5t-59.5 -88t-88 -59t-107.5 -21.5q-49 0 -94 15t-81 42.5t-60.5 66t-33.5 84.5q-21 -57 -21 -127q0 -63 21.5 -114.5t59.5 -88
t90.5 -56.5t114.5 -20t116 19t93.5 56.5t62.5 94t23 132.5h193zM453 -165q0 35 -24 59t-60 24q-47 0 -75 -9q-4 -16 -6.5 -34.5t-2.5 -39.5q0 -38 23 -61t61 -23q36 0 60 24t24 60z" />
    <glyph glyph-name="lvl1Ya1" horiz-adv-x="642" 
d="M599 -427q0 -86 -26.5 -161.5t-74.5 -131.5t-114 -88t-145 -32q-68 0 -126.5 22t-101.5 61t-67.5 93t-24.5 119q0 41 21.5 80.5t47 74t47 63.5t21.5 49q0 31 -41 31q-29 0 -71 -52l-137 135q98 108 208 108q48 0 90.5 -17t75 -46.5t51 -70t18.5 -88.5q0 -53 -21.5 -90
t-47.5 -67t-47.5 -55.5t-21.5 -54.5q0 -21 10 -38.5t27 -30t40.5 -19t49.5 -6.5q39 0 70 16t52.5 44.5t33 67t11.5 84.5q0 106 -27.5 202.5t-69 188t-89.5 180.5t-89.5 179.5t-69 184.5t-27.5 195q0 58 23 112t62.5 94.5t92.5 65t112 24.5q117 0 233 -105l-137 -132
q-57 45 -96 45q-18 0 -35.5 -7.5t-31 -21.5t-21.5 -33t-8 -42q0 -70 27.5 -152t68.5 -173t89.5 -189t89.5 -200t68.5 -207t27.5 -209z" />
    <glyph glyph-name="lvl1Ra1" 
d="M14 -170q-47 -165 -133 -293.5t-200 -217t-250.5 -134.5t-285.5 -46q-148 0 -284.5 46t-250.5 134.5t-200 217t-133 293.5h186q39 -119 107 -211.5t157.5 -155.5t195.5 -95.5t222 -32.5q117 0 223.5 33t195.5 96t157 155t107 211h186z" />
    <glyph glyph-name="lvl1Ra2" 
d="M21 -365q-39 -119 -109.5 -211t-162.5 -155t-200 -96t-223 -33q-116 0 -226 31t-204 93.5t-167.5 155t-118.5 215.5h190q24 -69 79.5 -124t128 -94t156 -60t162.5 -21q81 0 161 19.5t149 57.5t121.5 94t76.5 128h187z" />
    <glyph glyph-name="lvl1Ra3" 
d="M21 -206q-93 -161 -212.5 -283t-257 -204.5t-288 -124.5t-306.5 -42q-155 0 -305.5 42t-287.5 124.5t-257 204.5t-214 283h195q65 -103 163 -187.5t214 -144.5t242.5 -93t249.5 -33q80 0 163.5 15.5t166 44t160.5 69t148 91.5t129 111t102 127h195z" />
    <glyph glyph-name="lvl1Ra4" 
d="M15 -256q-96 -161 -232 -275.5t-296 -187.5t-334.5 -107t-348.5 -34q-114 0 -232.5 15.5t-235 48t-226.5 82t-206.5 116.5t-176 152.5t-133.5 189.5h192q68 -96 176.5 -172t242.5 -128.5t287.5 -80t311.5 -27.5q159 0 313 28t288.5 80.5t242 128t174.5 171.5h193z" />
    <glyph glyph-name="lvl1Ra5" 
d="M27 -342q-60 -134 -141.5 -233t-179.5 -164.5t-209.5 -98t-230.5 -32.5q-118 0 -228.5 32.5t-208.5 98t-180.5 164.5t-142.5 233h185q45 -82 106.5 -144t135.5 -104t158.5 -63t174.5 -21t174.5 21t159 63t136 104t105.5 144h186z" />
    <glyph glyph-name="lvl1Ra6" 
d="M26 -440q-35 -104 -94 -183t-134 -131.5t-162 -79t-178 -26.5t-179.5 26.5t-164.5 79.5t-136 131.5t-94 182.5h184q25 -54 64.5 -95.5t90 -70t110 -43.5t125.5 -15q62 0 120 14t108.5 42t90 70t63.5 98h186z" />
    <glyph glyph-name="lvl1KaRa" 
d="M-254 -294h-168q-18 -37 -45 -66.5t-60.5 -50t-72 -31.5t-79.5 -11q-40 0 -79 11.5t-72.5 32t-60.5 50t-44 65.5h-168v179h285q0 -44 12 -74.5t31.5 -49.5t44.5 -27t51 -8q25 0 50 8.5t45 27t32 49t12 74.5h286v-179zM21 -249q-39 -119 -109.5 -211t-162 -155t-200 -95.5
t-223.5 -32.5q-117 0 -226.5 31t-203.5 93t-167.5 154.5t-118.5 215.5h190q24 -69 79 -125.5t128 -97t156 -62.5t163 -22t160.5 21t149.5 61t121.5 96.5t77.5 128.5h186z" />
    <glyph glyph-name="lvl1Rra1" 
d="M-177 -529q0 127 -24.5 187t-63.5 60q-17 0 -29 -15t-12 -31q0 -10 2 -19t8 -16t17.5 -11t31.5 -4v-172h-520q-44 0 -80 16q1 -35 12.5 -65t30.5 -52t44 -34.5t53 -12.5q38 0 63 24.5t25 71.5h193q0 -49 33 -72.5t84 -23.5q29 0 53.5 13.5t42 37t27 54t9.5 64.5zM15 -522
q0 -78 -24.5 -145.5t-67.5 -117t-102.5 -77.5t-129.5 -28t-124 22t-89 56q-35 -35 -83 -56.5t-111 -21.5q-71 0 -131 28.5t-104 78.5t-69 117t-25 144q0 88 19 165.5t54 135t86 91t116 33.5q48 0 89.5 -18t71.5 -49t47 -73.5t17 -91.5q0 -11 -0.5 -25t-2.5 -24h64
q-2 10 -2.5 25t-0.5 25q0 46 16.5 87.5t46 73.5t70.5 51t89 19q64 0 115.5 -33t88 -90t56.5 -134.5t20 -167.5zM-714 -329q0 20 -14 34t-34 14q-21 0 -39.5 -14t-24.5 -34q12 -47 64 -47q20 0 34 13.5t14 33.5z" />
    <glyph glyph-name="lvl1La1" 
d="M18 -363q0 -56 -18.5 -105t-55.5 -85.5t-92.5 -58t-128.5 -21.5v182q23 0 41.5 8t32 20.5t20.5 28.5t7 31q0 13 -5.5 25.5t-15 22t-22 15t-26.5 5.5q-31 0 -50.5 -27.5t-19.5 -72.5h-193q0 45 -19.5 72.5t-50.5 27.5q-29 0 -48.5 -19.5t-19.5 -48.5q0 -15 2.5 -30.5
t12.5 -28t30 -21t55 -8.5v-182q-74 0 -129.5 21.5t-92.5 58.5t-55 86t-18 104q0 53 21 100t57 82.5t84 56t101 20.5q97 0 167 -58q71 58 166 58q53 0 101 -20t84 -55t57 -82t21 -102z" />
    <glyph glyph-name="lvl1Lla1" horiz-adv-x="784" 
d="M773 -134q0 -67 -18.5 -132.5t-51.5 -123t-79 -104.5t-101 -77q7 -25 7 -59q0 -43 -16.5 -81.5t-45.5 -67t-67.5 -45t-81.5 -16.5t-81.5 16.5t-67 45t-45.5 67t-17 81.5q0 15 1 28t6 27q-55 21 -99.5 55.5t-75.5 78t-47.5 93.5t-16.5 104q0 40 15.5 76t42 63t62.5 42.5
t77 15.5q40 0 75.5 -15.5t62.5 -42t42.5 -62.5t15.5 -77q0 -23 -6.5 -46t-17.5 -43.5t-25 -37.5t-30 -29q51 -19 129 -19q58 0 106 22.5t83 60.5t54.5 88t19.5 106q0 232 -137.5 405t-421.5 276l72 190q678 -281 678 -863zM112 -241q0 16 -11.5 27t-27.5 11t-27 -11t-11 -27
q0 -34 21 -62q29 8 42.5 25.5t13.5 36.5zM357 -636q0 16 -11.5 27.5t-28.5 11.5q-16 0 -27.5 -11.5t-11.5 -27.5q0 -17 11.5 -28.5t27.5 -11.5q17 0 28.5 11.5t11.5 28.5z" />
    <glyph glyph-name="lvl1Va1" horiz-adv-x="898" 
d="M884 -418q0 -94 -27 -172t-77 -133.5t-122 -86t-162 -30.5q-65 0 -121.5 24t-101.5 67q-52 -91 -175 -91q-47 0 -88.5 18t-72 48.5t-48.5 72t-18 88.5t18 88.5t49 72t72 48.5t88 18q48 0 97 -24.5t80 -67.5q54 -75 107.5 -117.5t113.5 -42.5q195 0 195 220
q0 67 -28 129.5t-73.5 123.5t-104 122t-120 123.5t-120 128.5t-104 138t-73.5 150.5t-28 167.5q0 68 25 128.5t68 106.5t100.5 72.5t122.5 26.5q150 0 294 -153l-138 -135q-86 96 -156 96q-27 0 -49.5 -13t-39 -33t-26 -45.5t-9.5 -50.5q0 -70 28 -135t74 -126.5t104.5 -122
t119.5 -122.5t119.5 -127t104.5 -135.5t74 -148.5t28 -166zM141 -611q0 17 -12 29.5t-31 12.5t-31.5 -12.5t-12.5 -29.5q0 -18 12.5 -31t31.5 -13t31 12.5t12 31.5z" />
    <glyph glyph-name="lvl1Sha1" horiz-adv-x="762" 
d="M753 -78q0 -59 -14 -116t-41 -107t-65.5 -91.5t-86.5 -69.5q22 -53 22 -119q0 -52 -21 -99t-56 -82.5t-82 -56.5t-99 -21q-56 0 -103.5 17t-82 48.5t-54 77t-19.5 103.5q0 79 41 130q-60 -29 -109 -92l-140 139q147 160 343 160q131 0 235 -60q32 16 58.5 40.5t45 55
t28.5 65t10 70.5q0 112 -34 209t-103 176.5t-173.5 139t-245.5 97.5l56 192q690 -242 690 -806zM377 -581q0 18 -2.5 32t-9.5 25q-60 -8 -91 -27t-31 -51q0 -46 67 -46q28 0 47.5 19t19.5 48z" />
    <glyph glyph-name="lvl1Ssa1" 
d="M-82 -924q-76 62 -105 128q-101 -72 -213 -72q-63 0 -117.5 19t-98.5 54q-63 -59 -151 -59q-46 0 -86.5 18t-71 48.5t-48.5 71t-18 85.5t18 85t48.5 71t71 49t86.5 18q38 0 68.5 -10.5t56 -32t48 -54.5t45.5 -78q34 -69 149 -69q38 0 70 10.5t55 30.5t36 49.5t13 67.5
q0 49 -17 87.5t-54 65t-95 40.5t-140 14v190q126 0 219 -27.5t154.5 -78.5t92 -124.5t30.5 -166.5q0 -8 -2.5 -26.5t-5.5 -39.5t-5.5 -40.5t-2.5 -30.5q0 -95 92 -171zM-722 -631q0 17 -12.5 29.5t-30.5 12.5q-17 0 -29.5 -12.5t-12.5 -29.5q0 -18 12.5 -30.5t29.5 -12.5
q18 0 30.5 12.5t12.5 30.5z" />
    <glyph glyph-name="lvl1Sa1" horiz-adv-x="878" 
d="M865 -353q0 -112 -26.5 -202t-75.5 -153.5t-119 -97.5t-158 -34q-50 0 -91 19.5t-75.5 49t-64 63.5t-56.5 63.5t-52 49t-51 19.5q-15 0 -25.5 -10t-10.5 -24q0 -16 16 -40.5t57 -50.5l-108 -153q-157 127 -157 244q0 47 18 88.5t48.5 72t72 48t89.5 17.5q52 0 91.5 -18.5
t72 -47t60.5 -64.5t57 -70q23 -28 51.5 -41t57.5 -13q186 0 186 285q0 170 -46.5 310t-132.5 251t-207.5 193.5t-270.5 137.5l73 189q395 -161 586 -434.5t191 -646.5z" />
    <glyph glyph-name="lvl1Ha1" 
d="M-331 -500q0 -82 -20 -149.5t-57.5 -116t-90 -75t-117.5 -26.5q-43 0 -80.5 17.5t-68.5 49.5q-59 -53 -131 -53q-43 0 -80.5 18t-66 49t-45 71.5t-16.5 84.5t16 84.5t44.5 71.5t66 49.5t81.5 18.5q139 0 202 -179q21 -63 78 -63q103 0 103 148q0 99 -62.5 156t-177.5 57
v190h634q40 0 75 -17.5t61.5 -47.5t41.5 -69t15 -82q0 -45 -15.5 -84t-42 -68.5t-61.5 -46.5t-74 -17t-74.5 17.5t-62 47.5t-42 69t-15.5 82v13t1 13h-85q15 -19 27 -45t21 -55t13.5 -58.5t4.5 -54.5zM-85 -319q0 18 -10.5 32.5t-25.5 14.5q-17 0 -28 -14.5t-11 -32.5
q0 -19 11 -32t28 -13q15 0 25.5 13t10.5 32zM-855 -629q0 17 -12.5 29t-30.5 12t-30 -12t-12 -29q0 -19 12 -31t30 -12t30.5 12t12.5 31z" />
    </font>
</defs>
</svg>
